<?xml version="1.0" encoding="utf-8"?>
<!-- Generator: Adobe Illustrator 27.6.1, SVG Export Plug-In . SVG Version: 6.00 Build 0)  -->
<svg version="1.1" id="Calque_1" xmlns="http://www.w3.org/2000/svg" xmlns:xlink="http://www.w3.org/1999/xlink" x="0px" y="0px"
	 viewBox="0 0 566.93 198.74" style="enable-background:new 0 0 566.93 198.74;" xml:space="preserve">
<style type="text/css">
	.st0{fill:#FFFFFF;}
</style>
<g>
	<polygon class="st0" points="543.36,62.59 543.36,67.41 543.36,72.22 543.36,77.04 548.18,77.04 548.18,72.22 548.18,67.41 
		548.18,62.59 548.18,57.78 548.18,52.96 543.36,52.96 543.36,57.78 	"/>
	<polygon class="st0" points="538.55,81.85 538.55,86.66 538.55,91.48 543.36,91.48 543.36,86.66 543.36,81.85 543.36,77.04 
		538.55,77.04 	"/>
	<polygon class="st0" points="538.55,48.15 538.55,52.96 543.36,52.96 543.36,48.15 543.36,43.33 543.36,38.52 538.55,38.52 
		538.55,43.33 	"/>
	<polygon class="st0" points="533.73,96.3 533.73,101.11 538.55,101.11 538.55,96.3 538.55,91.48 533.73,91.48 	"/>
	<polygon class="st0" points="533.73,38.52 538.55,38.52 538.55,33.7 538.55,28.89 533.73,28.89 533.73,33.7 	"/>
	<rect x="528.92" y="101.11" class="st0" width="4.82" height="4.82"/>
	<rect x="528.92" y="24.07" class="st0" width="4.82" height="4.82"/>
	<rect x="524.1" y="105.93" class="st0" width="4.82" height="4.81"/>
	<rect x="524.1" y="48.15" class="st0" width="4.82" height="4.82"/>
	<rect x="524.1" y="19.26" class="st0" width="4.82" height="4.82"/>
	<rect x="519.29" y="110.74" class="st0" width="4.82" height="4.82"/>
	<rect x="519.29" y="14.44" class="st0" width="4.82" height="4.82"/>
	<polygon class="st0" points="519.29,115.55 514.47,115.55 509.66,115.55 509.66,120.37 514.47,120.37 519.29,120.37 	"/>
	<polygon class="st0" points="514.47,110.74 514.47,105.93 514.47,101.11 514.47,96.3 514.47,91.48 509.66,91.48 509.66,96.3 
		504.84,96.3 500.03,96.3 495.21,96.3 495.21,91.48 490.4,91.48 485.59,91.48 480.77,91.48 480.77,96.3 485.59,96.3 490.4,96.3 
		490.4,101.11 495.21,101.11 495.21,105.93 500.03,105.93 500.03,110.74 504.84,110.74 509.66,110.74 	"/>
	<polygon class="st0" points="514.47,48.15 519.29,48.15 524.1,48.15 524.1,43.33 519.29,43.33 514.47,43.33 509.66,43.33 
		504.84,43.33 504.84,48.15 509.66,48.15 	"/>
	<polygon class="st0" points="514.47,14.44 519.29,14.44 519.29,9.63 514.47,9.63 509.66,9.63 509.66,14.44 	"/>
	<polygon class="st0" points="500.03,120.37 495.21,120.37 495.21,125.18 500.03,125.18 504.84,125.18 509.66,125.18 509.66,120.37 
		504.84,120.37 	"/>
	<polygon class="st0" points="504.84,91.48 509.66,91.48 509.66,86.66 504.84,86.66 500.03,86.66 495.21,86.66 495.21,91.48 
		500.03,91.48 	"/>
	<rect x="500.03" y="48.15" class="st0" width="4.82" height="4.82"/>
	<polygon class="st0" points="500.03,9.63 504.84,9.63 509.66,9.63 509.66,4.81 504.84,4.81 500.03,4.81 495.21,4.81 495.21,9.63 	
		"/>
	<polygon class="st0" points="485.59,125.18 480.77,125.18 475.96,125.18 471.14,125.18 471.14,130 475.96,130 480.77,130 
		485.59,130 490.4,130 495.21,130 495.21,125.18 490.4,125.18 	"/>
	<polygon class="st0" points="490.4,86.66 490.4,81.85 495.21,81.85 495.21,77.04 500.03,77.04 504.84,77.04 509.66,77.04 
		514.47,77.04 519.29,77.04 524.1,77.04 528.92,77.04 528.92,72.22 533.73,72.22 533.73,67.41 533.73,62.59 533.73,57.78 
		533.73,52.96 528.92,52.96 528.92,57.78 524.1,57.78 519.29,57.78 514.47,57.78 509.66,57.78 504.84,57.78 500.03,57.78 
		500.03,52.96 495.21,52.96 495.21,57.78 490.4,57.78 490.4,62.59 490.4,67.41 485.59,67.41 485.59,72.22 485.59,77.04 
		480.77,77.04 480.77,81.85 480.77,86.66 485.59,86.66 	"/>
	<rect x="475.96" y="86.66" class="st0" width="4.82" height="4.82"/>
	<rect x="475.96" y="33.7" class="st0" width="4.82" height="4.82"/>
	<polygon class="st0" points="480.77,4.81 485.59,4.81 490.4,4.81 495.21,4.81 495.21,0 490.4,0 485.59,0 480.77,0 475.96,0 
		471.14,0 471.14,4.81 475.96,4.81 	"/>
	<polygon class="st0" points="475.96,72.22 475.96,67.41 475.96,62.59 480.77,62.59 480.77,57.78 485.59,57.78 485.59,52.96 
		485.59,48.15 485.59,43.33 485.59,38.52 480.77,38.52 480.77,43.33 475.96,43.33 471.14,43.33 471.14,38.52 466.33,38.52 
		461.51,38.52 461.51,33.7 456.7,33.7 451.88,33.7 451.88,28.89 447.07,28.89 447.07,33.7 442.25,33.7 442.25,38.52 442.25,43.33 
		442.25,48.15 447.07,48.15 447.07,52.96 451.88,52.96 451.88,57.78 456.7,57.78 456.7,62.59 461.51,62.59 461.51,67.41 
		461.51,72.22 466.33,72.22 466.33,77.04 466.33,81.85 471.14,81.85 471.14,77.04 475.96,77.04 	"/>
	<rect x="471.14" y="28.89" class="st0" width="4.82" height="4.81"/>
	<polygon class="st0" points="466.33,120.37 461.51,120.37 456.7,120.37 456.7,125.18 461.51,125.18 466.33,125.18 471.14,125.18 
		471.14,120.37 	"/>
	<rect x="461.51" y="91.48" class="st0" width="4.82" height="4.82"/>
	<polygon class="st0" points="466.33,9.63 471.14,9.63 471.14,4.81 466.33,4.81 461.51,4.81 456.7,4.81 456.7,9.63 461.51,9.63 	"/>
	<polygon class="st0" points="456.7,86.66 456.7,81.85 456.7,77.04 451.88,77.04 451.88,72.22 447.07,72.22 447.07,77.04 
		447.07,81.85 442.25,81.85 437.44,81.85 437.44,77.04 437.44,72.22 432.62,72.22 432.62,77.04 432.62,81.85 432.62,86.66 
		437.44,86.66 437.44,91.48 442.25,91.48 447.07,91.48 451.88,91.48 456.7,91.48 461.51,91.48 461.51,86.66 	"/>
	<polygon class="st0" points="461.51,28.89 466.33,28.89 471.14,28.89 471.14,24.07 466.33,24.07 461.51,24.07 456.7,24.07 
		451.88,24.07 451.88,28.89 456.7,28.89 	"/>
	<polygon class="st0" points="451.88,115.55 447.07,115.55 447.07,120.37 451.88,120.37 456.7,120.37 456.7,115.55 	"/>
	<polygon class="st0" points="456.7,14.44 456.7,9.63 451.88,9.63 447.07,9.63 447.07,14.44 451.88,14.44 	"/>
	<rect x="442.25" y="110.74" class="st0" width="4.82" height="4.82"/>
	<polygon class="st0" points="447.07,72.22 447.07,67.41 442.25,67.41 437.44,67.41 437.44,72.22 442.25,72.22 	"/>
	<rect x="442.25" y="14.44" class="st0" width="4.82" height="4.82"/>
	<rect x="437.44" y="105.93" class="st0" width="4.82" height="4.81"/>
	<rect x="437.44" y="19.26" class="st0" width="4.82" height="4.82"/>
	<rect x="432.62" y="101.11" class="st0" width="4.81" height="4.82"/>
	<rect x="432.62" y="24.07" class="st0" width="4.81" height="4.82"/>
	<polygon class="st0" points="432.62,91.48 427.81,91.48 427.81,96.3 427.81,101.11 432.62,101.11 432.62,96.3 	"/>
	<polygon class="st0" points="432.62,33.7 432.62,28.89 427.81,28.89 427.81,33.7 427.81,38.52 432.62,38.52 	"/>
	<polygon class="st0" points="427.81,81.85 427.81,77.04 422.99,77.04 422.99,81.85 422.99,86.66 422.99,91.48 427.81,91.48 
		427.81,86.66 	"/>
	<polygon class="st0" points="427.81,48.15 427.81,43.33 427.81,38.52 422.99,38.52 422.99,43.33 422.99,48.15 422.99,52.96 
		427.81,52.96 	"/>
	<polygon class="st0" points="422.99,67.41 422.99,62.59 422.99,57.78 422.99,52.96 418.18,52.96 418.18,57.78 418.18,62.59 
		418.18,67.41 418.18,72.22 418.18,77.04 422.99,77.04 422.99,72.22 	"/>
	<polygon class="st0" points="557.15,149.88 557.15,159.65 557.15,169.43 557.15,179.19 557.15,188.97 566.93,188.97 566.93,179.19 
		566.93,169.43 566.93,159.65 566.93,149.88 	"/>
	<polygon class="st0" points="537.6,188.97 537.6,179.19 537.6,169.43 537.6,159.65 537.6,149.88 547.38,149.88 557.15,149.88 
		557.15,140.1 547.38,140.1 537.6,140.1 527.83,140.1 527.83,149.88 518.05,149.88 518.05,159.65 518.05,169.43 518.05,179.19 
		518.05,188.97 527.83,188.97 527.83,198.74 537.6,198.74 547.38,198.74 557.15,198.74 557.15,188.97 547.38,188.97 	"/>
	<polygon class="st0" points="498.5,149.88 498.5,159.65 498.5,169.43 498.5,179.19 488.73,179.19 488.73,169.43 478.95,169.43 
		478.95,159.65 478.95,149.88 478.95,140.1 469.19,140.1 459.41,140.1 459.41,149.88 459.41,159.65 459.41,169.43 459.41,179.19 
		459.41,188.97 469.19,188.97 469.19,198.74 478.95,198.74 478.95,188.97 488.73,188.97 488.73,198.74 498.5,198.74 508.28,198.74 
		508.28,188.97 508.28,179.19 508.28,169.43 508.28,159.65 508.28,149.88 508.28,140.1 498.5,140.1 	"/>
	<polygon class="st0" points="410.54,140.1 410.54,149.88 410.54,159.65 410.54,169.43 410.54,179.19 400.76,179.19 400.76,188.97 
		410.54,188.97 410.54,198.74 420.31,198.74 430.09,198.74 430.09,188.97 430.09,179.19 430.09,169.43 430.09,159.65 430.09,149.88 
		430.09,140.1 420.31,140.1 	"/>
	<rect x="381.21" y="81.45" class="st0" width="9.77" height="9.77"/>
	<polygon class="st0" points="371.44,140.1 371.44,149.88 371.44,159.65 371.44,169.43 371.44,179.19 361.66,179.19 361.66,169.43 
		361.66,159.65 361.66,149.88 361.66,140.1 351.89,140.1 342.11,140.1 342.11,149.88 342.11,159.65 342.11,169.43 342.11,179.19 
		351.89,179.19 351.89,188.97 361.66,188.97 371.44,188.97 371.44,198.74 381.21,198.74 390.99,198.74 390.99,188.97 390.99,179.19 
		390.99,169.43 390.99,159.65 390.99,149.88 390.99,140.1 381.21,140.1 	"/>
	<polygon class="st0" points="371.44,71.68 361.66,71.68 351.89,71.68 351.89,81.45 361.66,81.45 371.44,81.45 381.21,81.45 
		381.21,71.68 	"/>
	<path class="st0" d="M342.11,91.23V101h9.77v9.77h-9.77v9.77h9.77v9.77h9.77h9.77h9.77v-9.77h9.77v-9.77V101h-9.77h-9.77v-9.77
		h-9.77h-9.77v-9.77h-9.77V91.23z M371.44,120.55h-9.77v-9.77h9.77V120.55z"/>
	<rect x="322.56" y="110.78" class="st0" width="9.77" height="9.77"/>
	<polygon class="st0" points="322.56,91.23 312.79,91.23 303.01,91.23 303.01,81.45 312.79,81.45 322.56,81.45 322.56,71.68 
		312.79,71.68 303.01,71.68 293.24,71.68 293.24,81.45 283.47,81.45 283.47,91.23 283.47,101 283.47,110.78 283.47,120.55 
		293.24,120.55 293.24,130.33 303.01,130.33 312.79,130.33 322.56,130.33 322.56,120.55 312.79,120.55 312.79,110.78 303.01,110.78 
		303.01,101 312.79,101 322.56,101 332.34,101 332.34,91.23 332.34,81.45 322.56,81.45 	"/>
	<polygon class="st0" points="322.56,140.1 312.79,140.1 303.01,140.1 293.24,140.1 293.24,149.88 303.01,149.88 303.01,159.65 
		312.79,159.65 312.79,169.43 303.01,169.43 293.24,169.43 283.47,169.43 283.47,179.19 283.47,188.97 293.24,188.97 293.24,179.19 
		303.01,179.19 312.79,179.19 312.79,188.97 303.01,188.97 293.24,188.97 293.24,198.74 303.01,198.74 312.79,198.74 322.56,198.74 
		322.56,188.97 332.34,188.97 332.34,179.19 332.34,169.43 332.34,159.65 332.34,149.88 322.56,149.88 	"/>
	<rect x="283.47" y="149.88" class="st0" width="9.77" height="9.77"/>
	<polygon class="st0" points="263.92,71.68 254.14,71.68 244.37,71.68 244.37,81.45 244.37,91.23 244.37,101 244.37,110.78 
		244.37,120.55 244.37,130.33 254.14,130.33 263.92,130.33 263.92,120.55 263.92,110.78 263.92,101 263.92,91.23 273.69,91.23 
		273.69,81.45 263.92,81.45 	"/>
	<polygon class="st0" points="244.37,149.88 244.37,159.65 244.37,169.43 234.59,169.43 234.59,159.65 234.59,149.88 234.59,140.1 
		224.82,140.1 224.82,149.88 224.82,159.65 224.82,169.43 224.82,179.19 224.82,188.97 215.04,188.97 215.04,198.74 224.82,198.74 
		234.59,198.74 244.37,198.74 254.14,198.74 254.14,188.97 254.14,179.19 254.14,169.43 254.14,159.65 254.14,149.88 254.14,140.1 
		244.37,140.1 	"/>
	<rect x="224.82" y="110.78" class="st0" width="9.77" height="9.77"/>
	<polygon class="st0" points="215.04,169.43 215.04,159.65 215.04,149.88 215.04,140.1 205.27,140.1 205.27,149.88 205.27,159.65 
		205.27,169.43 205.27,179.19 205.27,188.97 215.04,188.97 215.04,179.19 	"/>
	<polygon class="st0" points="205.27,130.33 215.04,130.33 224.82,130.33 224.82,120.55 215.04,120.55 215.04,110.78 205.27,110.78 
		205.27,101 215.04,101 224.82,101 234.59,101 234.59,91.23 234.59,81.45 224.82,81.45 224.82,91.23 215.04,91.23 205.27,91.23 
		205.27,81.45 215.04,81.45 224.82,81.45 224.82,71.68 215.04,71.68 205.27,71.68 195.49,71.68 195.49,81.45 185.72,81.45 
		185.72,91.23 185.72,101 185.72,110.78 185.72,120.55 195.49,120.55 195.49,130.33 	"/>
	<polygon class="st0" points="185.72,159.65 185.72,169.43 195.49,169.43 195.49,159.65 195.49,149.88 185.72,149.88 	"/>
	<polygon class="st0" points="166.17,169.43 166.17,159.65 166.17,149.88 175.94,149.88 185.72,149.88 185.72,140.1 175.94,140.1 
		166.17,140.1 156.39,140.1 156.39,149.88 146.62,149.88 146.62,159.65 146.62,169.43 146.62,179.19 146.62,188.97 156.39,188.97 
		156.39,198.74 166.17,198.74 175.94,198.74 185.72,198.74 185.72,188.97 175.94,188.97 166.17,188.97 166.17,179.19 175.94,179.19 
		185.72,179.19 185.72,169.43 175.94,169.43 	"/>
	<polygon class="st0" points="175.94,130.33 175.94,120.55 175.94,110.78 175.94,101 175.94,91.23 175.94,81.45 166.17,81.45 
		166.17,71.68 156.39,71.68 156.39,81.45 156.39,91.23 156.39,101 156.39,110.78 156.39,120.55 156.39,130.33 166.17,130.33 	"/>
	<polygon class="st0" points="146.62,120.55 146.62,110.78 146.62,101 146.62,91.23 136.84,91.23 136.84,81.45 127.07,81.45 
		117.29,81.45 117.29,71.68 107.52,71.68 97.75,71.68 97.75,81.45 97.75,91.23 97.75,101 97.75,110.78 97.75,120.55 97.75,130.33 
		107.52,130.33 117.29,130.33 117.29,120.55 117.29,110.78 117.29,101 117.29,91.23 127.07,91.23 127.07,101 127.07,110.78 
		127.07,120.55 127.07,130.33 136.84,130.33 146.62,130.33 	"/>
	<polygon class="st0" points="117.29,140.1 117.29,149.88 117.29,159.65 117.29,169.43 117.29,179.19 107.52,179.19 107.52,188.97 
		117.29,188.97 117.29,198.74 127.07,198.74 136.84,198.74 136.84,188.97 136.84,179.19 136.84,169.43 136.84,159.65 136.84,149.88 
		136.84,140.1 127.07,140.1 	"/>
	<polygon class="st0" points="78.2,71.68 68.42,71.68 58.65,71.68 58.65,81.45 58.65,91.23 58.65,101 58.65,110.78 58.65,120.55 
		58.65,130.33 68.42,130.33 78.2,130.33 78.2,120.55 78.2,110.78 78.2,101 78.2,91.23 87.97,91.23 87.97,81.45 78.2,81.45 	"/>
	<polygon class="st0" points="39.1,71.68 29.32,71.68 19.55,71.68 9.77,71.68 9.77,81.45 19.55,81.45 29.32,81.45 29.32,91.23 
		19.55,91.23 9.77,91.23 9.77,101 19.55,101 29.32,101 29.32,110.78 29.32,120.55 19.55,120.55 9.77,120.55 9.77,130.33 
		19.55,130.33 29.32,130.33 39.1,130.33 39.1,120.55 48.87,120.55 48.87,110.78 48.87,101 48.87,91.23 48.87,81.45 39.1,81.45 	"/>
	<polygon class="st0" points="9.77,101 0,101 0,110.78 0,120.55 9.77,120.55 9.77,110.78 	"/>
</g>
</svg>
