<?xml version="1.0" encoding="utf-8"?>
<!-- Generator: Adobe Illustrator 27.6.1, SVG Export Plug-In . SVG Version: 6.00 Build 0)  -->
<svg version="1.1" id="Calque_1" xmlns="http://www.w3.org/2000/svg" xmlns:xlink="http://www.w3.org/1999/xlink" x="0px" y="0px"
	 viewBox="0 0 783.56 842.18" style="enable-background:new 0 0 783.56 842.18;" xml:space="preserve">
<style type="text/css">
	.st0{fill:#7E1B1D;}
	.st1{fill-rule:evenodd;clip-rule:evenodd;fill:#7E1B1D;}
	.st2{fill:#44100D;}
	.st3{fill-rule:evenodd;clip-rule:evenodd;fill:#44100D;}
	.st4{fill-rule:evenodd;clip-rule:evenodd;fill:#581818;}
	.st5{fill-rule:evenodd;clip-rule:evenodd;fill:#B6A4B9;}
	.st6{fill-rule:evenodd;clip-rule:evenodd;fill:#AB1917;}
	.st7{fill-rule:evenodd;clip-rule:evenodd;fill:#E31520;}
	.st8{fill-rule:evenodd;clip-rule:evenodd;fill:#FFFFFF;}
	.st9{fill-rule:evenodd;clip-rule:evenodd;fill:#D7CADA;}
	.st10{fill-rule:evenodd;clip-rule:evenodd;fill:#4865AD;}
	.st11{fill-rule:evenodd;clip-rule:evenodd;fill:#758FC8;}
	.st12{fill-rule:evenodd;clip-rule:evenodd;fill:#D74614;}
	.st13{fill-rule:evenodd;clip-rule:evenodd;fill:#EC6F1A;}
	.st14{fill-rule:evenodd;clip-rule:evenodd;fill:#4C7A2F;}
	.st15{fill-rule:evenodd;clip-rule:evenodd;fill:#659B3B;}
	.st16{fill:#FFFFFF;}
	.st17{fill:#34286C;}
	.st18{fill:#E42C22;}
	.st19{fill:#E84C25;}
	.st20{fill:#ED7429;}
	.st21{fill:#F49D2E;}
	.st22{fill:#FFCD36;}
	.st23{fill:#F8E947;}
</style>
<g>
	<polygon class="st0" points="193.5,211.13 193.5,203.52 178.28,203.52 178.28,211.13 132.61,211.13 132.61,203.52 125,203.52 
		125,28.48 132.61,28.48 132.61,20.87 140.23,20.87 140.23,13.26 147.84,13.26 147.84,5.64 223.94,5.64 223.94,13.26 231.55,13.26 
		231.55,20.87 239.16,20.87 239.16,28.48 246.77,28.48 246.77,203.52 239.16,203.52 239.16,211.13 	"/>
	<polygon class="st0" points="431.45,211.13 431.45,203.52 423.84,203.52 423.84,13.26 431.45,13.26 431.45,5.64 538,5.64 
		538,13.26 545.61,13.26 545.61,81.75 538,81.75 538,89.36 530.39,89.36 530.39,127.42 538,127.42 538,135.03 545.61,135.03 
		545.61,203.52 538,203.52 538,211.13 	"/>
	<polygon class="st0" points="28.86,211.13 28.86,203.52 21.25,203.52 21.25,195.91 13.64,195.91 13.64,188.3 6.03,188.3 
		6.03,28.48 13.64,28.48 13.64,20.87 21.25,20.87 21.25,13.26 28.86,13.26 28.86,5.64 104.97,5.64 104.97,13.26 112.58,13.26 
		112.58,20.87 120.19,20.87 120.19,28.48 127.8,28.48 127.8,188.3 120.19,188.3 120.19,195.91 112.58,195.91 112.58,203.52 
		104.97,203.52 104.97,211.13 	"/>
	<polygon class="st0" points="373.36,211.13 373.36,203.52 358.14,203.52 358.14,211.13 312.47,211.13 312.47,203.52 297.25,203.52 
		297.25,211.13 251.59,211.13 251.59,203.52 243.98,203.52 243.98,13.26 251.59,13.26 251.59,5.64 297.25,5.64 297.25,13.26 
		304.86,13.26 304.86,36.09 312.47,36.09 312.47,43.7 320.09,43.7 320.09,66.53 327.7,66.53 327.7,74.14 342.92,74.14 342.92,66.53 
		350.53,66.53 350.53,43.7 358.14,43.7 358.14,36.09 365.75,36.09 365.75,13.26 373.36,13.26 373.36,5.64 419.02,5.64 419.02,13.26 
		426.63,13.26 426.63,203.52 419.02,203.52 419.02,211.13 	"/>
	<polygon class="st0" points="134.88,357.86 134.88,352.66 124.48,352.66 124.48,357.86 93.25,357.86 93.25,352.66 88.05,352.66 
		88.05,222.55 93.25,222.55 93.25,217.35 124.48,217.35 124.48,222.55 134.88,222.55 134.88,217.35 166.11,217.35 166.11,222.55 
		171.31,222.55 171.31,352.66 166.11,352.66 166.11,357.86 	"/>
	<polygon class="st0" points="21.26,357.86 21.26,352.66 16.05,352.66 16.05,347.45 10.85,347.45 10.85,342.25 5.64,342.25 
		5.64,232.96 10.85,232.96 10.85,227.76 16.05,227.76 16.05,222.55 21.26,222.55 21.26,217.35 73.3,217.35 73.3,222.55 
		78.51,222.55 78.51,227.76 83.71,227.76 83.71,232.96 88.91,232.96 88.91,342.25 83.71,342.25 83.71,347.45 78.51,347.45 
		78.51,352.66 73.3,352.66 73.3,357.86 	"/>
	<polygon class="st0" points="611.31,211.13 611.31,203.52 596.09,203.52 596.09,211.13 550.42,211.13 550.42,203.52 542.81,203.52 
		542.81,13.26 550.42,13.26 550.42,5.64 641.75,5.64 641.75,13.26 649.36,13.26 649.36,20.87 656.97,20.87 656.97,28.48 
		664.58,28.48 664.58,203.52 656.97,203.52 656.97,211.13 	"/>
	<polygon class="st0" points="684.62,211.13 684.62,203.52 677.01,203.52 677.01,195.91 669.4,195.91 669.4,188.3 661.79,188.3 
		661.79,28.48 669.4,28.48 669.4,20.87 677.01,20.87 677.01,13.26 684.62,13.26 684.62,5.64 760.73,5.64 760.73,13.26 768.34,13.26 
		768.34,20.87 775.95,20.87 775.95,28.48 783.56,28.48 783.56,188.3 775.95,188.3 775.95,195.91 768.34,195.91 768.34,203.52 
		760.73,203.52 760.73,211.13 	"/>
	<polygon class="st0" points="379.49,357.86 379.49,352.66 374.28,352.66 374.28,222.55 379.49,222.55 379.49,217.35 452.35,217.35 
		452.35,222.55 457.55,222.55 457.55,269.39 452.35,269.39 452.35,274.59 447.14,274.59 447.14,300.62 452.35,300.62 452.35,305.82 
		457.55,305.82 457.55,352.66 452.35,352.66 452.35,357.86 	"/>
	<polygon class="st0" points="338.72,357.86 338.72,352.66 328.31,352.66 328.31,357.86 297.09,357.86 297.09,352.66 291.88,352.66 
		291.88,222.55 297.09,222.55 297.09,217.35 328.31,217.35 328.31,222.55 338.72,222.55 338.72,217.35 369.95,217.35 369.95,222.55 
		375.15,222.55 375.15,352.66 369.95,352.66 369.95,357.86 	"/>
	<polygon class="st0" points="235.5,357.86 235.5,352.66 230.3,352.66 230.3,274.59 214.69,274.59 214.69,269.39 209.48,269.39 
		209.48,222.55 214.69,222.55 214.69,217.35 287.55,217.35 287.55,222.55 292.75,222.55 292.75,269.39 287.55,269.39 287.55,274.59 
		271.93,274.59 271.93,352.66 266.73,352.66 266.73,357.86 	"/>
	<polygon class="st0" points="664.85,357.86 664.85,352.66 654.44,352.66 654.44,357.86 623.21,357.86 623.21,352.66 618.01,352.66 
		618.01,232.96 623.21,232.96 623.21,227.76 628.42,227.76 628.42,222.55 633.62,222.55 633.62,217.35 685.66,217.35 685.66,222.55 
		690.87,222.55 690.87,227.76 696.07,227.76 696.07,232.96 701.28,232.96 701.28,352.66 696.07,352.66 696.07,357.86 	"/>
	<polygon class="st0" points="583.32,357.86 583.32,352.66 572.91,352.66 572.91,357.86 541.69,357.86 541.69,352.66 531.28,352.66 
		531.28,357.86 500.05,357.86 500.05,352.66 494.85,352.66 494.85,222.55 500.05,222.55 500.05,217.35 531.28,217.35 531.28,222.55 
		536.48,222.55 536.48,238.16 541.69,238.16 541.69,243.37 546.89,243.37 546.89,258.98 552.1,258.98 552.1,264.19 562.51,264.19 
		562.51,258.98 567.71,258.98 567.71,243.37 572.91,243.37 572.91,238.16 578.12,238.16 578.12,222.55 583.32,222.55 583.32,217.35 
		614.55,217.35 614.55,222.55 619.75,222.55 619.75,352.66 614.55,352.66 614.55,357.86 	"/>
	<polygon class="st0" points="724.68,357.86 724.68,352.66 719.48,352.66 719.48,274.59 703.87,274.59 703.87,269.39 698.66,269.39 
		698.66,222.55 703.87,222.55 703.87,217.35 776.73,217.35 776.73,222.55 781.93,222.55 781.93,269.39 776.73,269.39 776.73,274.59 
		761.11,274.59 761.11,352.66 755.91,352.66 755.91,357.86 	"/>
</g>
<g>
	<g>
		<path class="st1" d="M199.55,555.43c30.85,0,55.87,14.26,55.87,31.84c0,17.58-25.02,31.84-55.87,31.84
			c-30.85,0-55.87-14.26-55.87-31.84C143.68,569.69,168.7,555.43,199.55,555.43L199.55,555.43z"/>
		<path class="st2" d="M158.64,474.54l-0.01-0.01c16.87-16.87,44.32-16.87,61.2,0c10.43,10.44,14.75,25.63,11.69,39.78
			c-0.56,2.59-1.38,5.15-2.43,7.64c-4.76,11.26-14.14,20.09-25.76,24.1v4.6c3.64,0.76,7.23,1.83,10.66,3.27
			c12.63,5.29,20.94,14.59,20.94,25.42v9.74c0,8.83-5.5,16.62-14.37,22.07c-17.53,10.76-45.12,10.77-62.65,0
			c-8.87-5.45-14.36-13.24-14.37-22.06l0-9.77c0-2.24,0.36-4.4,1.03-6.47c0.66-2.04,1.63-4,2.87-5.86
			c5.15-7.72,15.28-13.72,27.7-16.33v-4.61c-1.22-0.42-2.42-0.9-3.61-1.44c-2.5-1.12-4.84-2.45-6.99-3.94
			C142.28,525.17,139.74,493.44,158.64,474.54L158.64,474.54z"/>
		<path class="st3" d="M189.22,564.27c16.67,0,30.99,6.21,37.15,15.07h3.23v9.74c0,13.7-18.08,24.8-40.38,24.8
			c-22.3,0-40.38-11.11-40.38-24.8v-9.74h3.23C158.23,570.48,172.55,564.27,189.22,564.27L189.22,564.27z"/>
		<path class="st4" d="M189.22,554.53c22.3,0,40.38,11.11,40.38,24.8c0,13.7-18.08,24.8-40.38,24.8c-22.3,0-40.38-11.11-40.38-24.8
			C148.84,565.64,166.92,554.53,189.22,554.53L189.22,554.53z"/>
		<path class="st3" d="M189.22,568.81c7.9,0,14.31,3.93,14.31,8.79c0,4.85-6.41,8.79-14.31,8.79s-14.31-3.93-14.31-8.79
			C174.92,572.75,181.32,568.81,189.22,568.81L189.22,568.81z"/>
		<path class="st5" d="M197.99,576.87c0,2.98-3.93,5.39-8.77,5.39c-4.84,0-8.77-2.41-8.77-5.39v-35.55h17.53V576.87L197.99,576.87z"
			/>
		<path class="st6" d="M189.22,467.18c20.95,0,37.95,16.99,37.95,37.95c0,20.95-16.99,37.95-37.95,37.95s-37.95-16.99-37.95-37.95
			C151.27,484.17,168.27,467.18,189.22,467.18L189.22,467.18z"/>
		<path class="st7" d="M186.18,471.08c17.12,0,31.01,13.88,31.01,31.01c0,17.12-13.88,31.01-31.01,31.01s-31.01-13.88-31.01-31.01
			C155.17,484.96,169.06,471.08,186.18,471.08L186.18,471.08z"/>
		<path class="st8" d="M168.24,483.93c6.45-6.45,14.54-8.83,18.06-5.3c3.52,3.52,1.15,11.61-5.3,18.06
			c-6.45,6.45-14.54,8.83-18.06,5.3C159.42,498.47,161.79,490.38,168.24,483.93L168.24,483.93z"/>
		<path class="st9" d="M191.26,577.55c-0.66,0.1-1.34,0.15-2.04,0.15c-1.72,0-3.32-0.31-4.67-0.83v-30.68
			c1.53,0.19,3.09,0.29,4.67,0.29c0.68,0,1.37-0.02,2.04-0.05V577.55L191.26,577.55z"/>
	</g>
	<g>
		<path class="st1" d="M330.98,567.27c30.85,0,55.87,14.26,55.87,31.84c0,17.58-25.02,31.84-55.87,31.84s-55.87-14.26-55.87-31.84
			C275.11,581.53,300.13,567.27,330.98,567.27L330.98,567.27z"/>
		<path class="st2" d="M336.86,551.56c1.9,0.68,3.65,1.46,5.23,2.31c1.63,0.87,3.15,1.87,4.56,2.97c4.97,3.89,8.02,8.92,8.27,14.56
			c2.18,1.66,4.09,3.49,5.67,5.45c1.13,1.4,2.09,2.85,2.86,4.32c0.35,0.68,0.7,1.45,1.04,2.32c0.95,2.45,1.46,5.03,1.46,7.7v9.73
			c0,8.82-5.49,16.61-14.35,22.06l0.01,0.01c-17.53,10.77-45.16,10.77-62.69,0c-8.86-5.44-14.34-13.23-14.35-22.07l0-9.75
			c0-4.39,1.36-8.52,3.82-12.24c0.35-0.53,0.76-1.1,1.24-1.72c1.64-2.11,3.65-4.06,5.96-5.82c0.3-6.66,4.49-12.48,11.11-16.54
			C308.09,547.84,324.31,547.05,336.86,551.56L336.86,551.56z"/>
		<path class="st3" d="M320.25,576.1c16.67,0,30.99,6.21,37.15,15.07h3.23v9.74c0,13.7-18.08,24.8-40.38,24.8
			c-22.3,0-40.38-11.11-40.38-24.8v-9.74h3.23C289.26,582.31,303.57,576.1,320.25,576.1L320.25,576.1z"/>
		<path class="st4" d="M320.25,566.37c22.3,0,40.38,11.11,40.38,24.8c0,13.7-18.08,24.8-40.38,24.8c-22.3,0-40.38-11.11-40.38-24.8
			C279.86,577.47,297.95,566.37,320.25,566.37L320.25,566.37z"/>
		<path class="st3" d="M320.25,569.82c17.7,0,32.05,8.82,32.05,19.69c0,10.87-14.35,19.69-32.05,19.69
			c-17.7,0-32.05-8.82-32.05-19.69C288.19,578.64,302.55,569.82,320.25,569.82L320.25,569.82z"/>
		<path class="st10" d="M320.25,564.22c12.13,0,22.54,1.47,27.02,7.91h2.35v14.69c0,9.96-13.15,18.04-29.37,18.04
			c-16.22,0-29.37-8.08-29.37-18.04v-14.69h2.35C297.71,565.69,308.12,564.22,320.25,564.22L320.25,564.22z"/>
		<path class="st11" d="M320.25,554.1c16.22,0,29.37,8.08,29.37,18.04c0,9.96-13.15,18.04-29.37,18.04
			c-16.22,0-29.37-8.08-29.37-18.04C290.87,562.18,304.03,554.1,320.25,554.1L320.25,554.1z"/>
	</g>
	<g>
		<path class="st1" d="M448.98,567.27c30.85,0,55.87,14.26,55.87,31.84c0,17.58-25.02,31.84-55.87,31.84s-55.87-14.26-55.87-31.84
			C393.11,581.53,418.13,567.27,448.98,567.27L448.98,567.27z"/>
		<path class="st2" d="M453.82,551.56c1.9,0.68,3.65,1.46,5.23,2.31c1.63,0.87,3.15,1.87,4.56,2.97c4.97,3.89,8.02,8.92,8.27,14.56
			c2.18,1.66,4.09,3.49,5.68,5.45c1.13,1.4,2.09,2.85,2.86,4.32c0.35,0.68,0.7,1.45,1.04,2.32c0.95,2.45,1.46,5.03,1.46,7.7v9.73
			c0,8.82-5.49,16.61-14.36,22.06l0.01,0.01c-17.53,10.77-45.16,10.77-62.69,0c-8.86-5.44-14.34-13.23-14.35-22.07l0-9.75
			c0-4.39,1.36-8.52,3.82-12.24c0.35-0.53,0.76-1.1,1.24-1.72c1.64-2.11,3.65-4.06,5.96-5.82c0.3-6.66,4.49-12.48,11.11-16.54
			C425.06,547.84,441.28,547.05,453.82,551.56L453.82,551.56z"/>
		<path class="st3" d="M437.21,576.1c16.67,0,30.99,6.21,37.15,15.07h3.23v9.74c0,13.7-18.08,24.8-40.38,24.8
			c-22.3,0-40.38-11.11-40.38-24.8v-9.74h3.23C406.23,582.31,420.54,576.1,437.21,576.1L437.21,576.1z"/>
		<path class="st4" d="M437.21,566.37c22.3,0,40.38,11.11,40.38,24.8c0,13.7-18.08,24.8-40.38,24.8c-22.3,0-40.38-11.11-40.38-24.8
			C396.83,577.47,414.91,566.37,437.21,566.37L437.21,566.37z"/>
		<path class="st3" d="M437.21,569.82c17.7,0,32.05,8.82,32.05,19.69c0,10.87-14.35,19.69-32.05,19.69
			c-17.7,0-32.05-8.82-32.05-19.69C405.16,578.64,419.51,569.82,437.21,569.82L437.21,569.82z"/>
		<path class="st12" d="M437.21,564.22c12.13,0,22.54,1.47,27.02,7.91h2.35v14.69c0,9.96-13.15,18.04-29.37,18.04
			c-16.22,0-29.37-8.08-29.37-18.04v-14.69h2.35C414.68,565.69,425.09,564.22,437.21,564.22L437.21,564.22z"/>
		<path class="st13" d="M437.21,554.1c16.22,0,29.37,8.08,29.37,18.04c0,9.96-13.15,18.04-29.37,18.04
			c-16.22,0-29.37-8.08-29.37-18.04C407.84,562.18,420.99,554.1,437.21,554.1L437.21,554.1z"/>
	</g>
	<g>
		<path class="st1" d="M330.98,460.93c30.85,0,55.87,14.26,55.87,31.84s-25.02,31.84-55.87,31.84s-55.87-14.26-55.87-31.84
			S300.13,460.93,330.98,460.93L330.98,460.93z"/>
		<path class="st2" d="M336.86,445.22c1.9,0.68,3.65,1.46,5.23,2.31c1.63,0.87,3.15,1.87,4.56,2.97c4.97,3.89,8.02,8.92,8.27,14.56
			c2.18,1.66,4.09,3.49,5.67,5.45c1.13,1.4,2.09,2.85,2.86,4.32c0.35,0.68,0.7,1.45,1.04,2.32c0.95,2.45,1.46,5.03,1.46,7.7v9.73
			c0,8.82-5.49,16.61-14.35,22.06l0.01,0.01c-17.53,10.77-45.16,10.77-62.69,0c-8.86-5.44-14.34-13.23-14.35-22.07l0-9.75
			c0-4.39,1.36-8.52,3.82-12.24c0.35-0.53,0.76-1.1,1.24-1.72c1.64-2.11,3.65-4.06,5.96-5.82c0.3-6.66,4.49-12.48,11.11-16.54
			C308.09,441.5,324.31,440.71,336.86,445.22L336.86,445.22z"/>
		<path class="st3" d="M320.25,469.77c16.67,0,30.99,6.21,37.15,15.07h3.23v9.74c0,13.7-18.08,24.8-40.38,24.8
			c-22.3,0-40.38-11.11-40.38-24.8v-9.74h3.23C289.26,475.97,303.57,469.77,320.25,469.77L320.25,469.77z"/>
		<path class="st4" d="M320.25,460.03c22.3,0,40.38,11.11,40.38,24.8c0,13.7-18.08,24.8-40.38,24.8c-22.3,0-40.38-11.11-40.38-24.8
			C279.86,471.14,297.95,460.03,320.25,460.03L320.25,460.03z"/>
		<path class="st3" d="M320.25,463.48c17.7,0,32.05,8.82,32.05,19.69c0,10.87-14.35,19.69-32.05,19.69
			c-17.7,0-32.05-8.82-32.05-19.69C288.19,472.3,302.55,463.48,320.25,463.48L320.25,463.48z"/>
		<path class="st6" d="M320.25,457.89c12.13,0,22.54,1.47,27.02,7.91h2.35v14.69c0,9.96-13.15,18.04-29.37,18.04
			c-16.22,0-29.37-8.08-29.37-18.04V465.8h2.35C297.71,459.36,308.12,457.89,320.25,457.89L320.25,457.89z"/>
		<path class="st7" d="M320.25,447.76c16.22,0,29.37,8.08,29.37,18.04c0,9.96-13.15,18.04-29.37,18.04
			c-16.22,0-29.37-8.08-29.37-18.04C290.87,455.84,304.03,447.76,320.25,447.76L320.25,447.76z"/>
	</g>
	<g>
		<path class="st1" d="M448.98,460.93c30.85,0,55.87,14.26,55.87,31.84s-25.02,31.84-55.87,31.84s-55.87-14.26-55.87-31.84
			S418.13,460.93,448.98,460.93L448.98,460.93z"/>
		<path class="st2" d="M453.82,445.22c1.9,0.68,3.65,1.46,5.23,2.31c1.63,0.87,3.15,1.87,4.56,2.97c4.97,3.89,8.02,8.92,8.27,14.56
			c2.18,1.66,4.09,3.49,5.68,5.45c1.13,1.4,2.09,2.85,2.86,4.32c0.35,0.68,0.7,1.45,1.04,2.32c0.95,2.45,1.46,5.03,1.46,7.7v9.73
			c0,8.82-5.49,16.61-14.36,22.06l0.01,0.01c-17.53,10.77-45.16,10.77-62.69,0c-8.86-5.44-14.34-13.23-14.35-22.07l0-9.75
			c0-4.39,1.36-8.52,3.82-12.24c0.35-0.53,0.76-1.1,1.24-1.72c1.64-2.11,3.65-4.06,5.96-5.82c0.3-6.66,4.49-12.48,11.11-16.54
			C425.06,441.5,441.28,440.71,453.82,445.22L453.82,445.22z"/>
		<path class="st3" d="M437.21,469.77c16.67,0,30.99,6.21,37.15,15.07h3.23v9.74c0,13.7-18.08,24.8-40.38,24.8
			c-22.3,0-40.38-11.11-40.38-24.8v-9.74h3.23C406.23,475.97,420.54,469.77,437.21,469.77L437.21,469.77z"/>
		<path class="st4" d="M437.21,460.03c22.3,0,40.38,11.11,40.38,24.8c0,13.7-18.08,24.8-40.38,24.8c-22.3,0-40.38-11.11-40.38-24.8
			C396.83,471.14,414.91,460.03,437.21,460.03L437.21,460.03z"/>
		<path class="st3" d="M437.21,463.48c17.7,0,32.05,8.82,32.05,19.69c0,10.87-14.35,19.69-32.05,19.69
			c-17.7,0-32.05-8.82-32.05-19.69C405.16,472.3,419.51,463.48,437.21,463.48L437.21,463.48z"/>
		<path class="st14" d="M437.21,457.89c12.13,0,22.54,1.47,27.02,7.91h2.35v14.69c0,9.96-13.15,18.04-29.37,18.04
			c-16.22,0-29.37-8.08-29.37-18.04V465.8h2.35C414.68,459.36,425.09,457.89,437.21,457.89L437.21,457.89z"/>
		<path class="st15" d="M437.21,447.76c16.22,0,29.37,8.08,29.37,18.04c0,9.96-13.15,18.04-29.37,18.04
			c-16.22,0-29.37-8.08-29.37-18.04C407.84,455.84,420.99,447.76,437.21,447.76L437.21,447.76z"/>
	</g>
	<g>
		<path class="st1" d="M319.47,675.09c30.85,0,55.87,14.26,55.87,31.84c0,17.58-25.02,31.84-55.87,31.84
			c-30.85,0-55.87-14.26-55.87-31.84C263.6,689.35,288.62,675.09,319.47,675.09L319.47,675.09z"/>
		<path class="st2" d="M308.89,656.58c5.36,0.13,10.65,1.08,15.42,2.8c1.9,0.68,3.65,1.46,5.23,2.3c1.63,0.87,3.15,1.87,4.56,2.97
			c4.97,3.89,8.02,8.92,8.27,14.56c2.18,1.66,4.09,3.49,5.67,5.45c1.13,1.4,2.09,2.85,2.86,4.32c0.35,0.68,0.7,1.45,1.04,2.32
			c0.95,2.45,1.46,5.03,1.46,7.7v9.73c0,8.82-5.49,16.61-14.36,22.06l0.01,0.01c-8.16,5.01-18.52,7.69-29.02,8.04l-118.3,0.03
			c-11.62,0.16-23.31-2.53-32.33-8.07c-8.86-5.44-14.34-13.23-14.35-22.07l0-9.75c0-4.39,1.36-8.52,3.82-12.24
			c0.35-0.53,0.76-1.1,1.24-1.72c1.64-2.1,3.65-4.06,5.96-5.82c0.3-6.66,4.49-12.48,11.11-16.54c6.81-4.19,15.35-6.15,23.8-6.09v0
			L308.89,656.58L308.89,656.58z"/>
		<path class="st3" d="M307.89,733.53H190.74v0c-22.3,0-40.38-11.11-40.38-24.8v-9.74h3.23c6.16-8.86,20.48-15.07,37.15-15.07v-9.55
			h117.15v9.55c16.59,0.05,30.82,6.24,36.96,15.06h3.23v9.74C348.09,722.38,330.1,733.46,307.89,733.53L307.89,733.53L307.89,733.53
			z"/>
		<path class="st4" d="M307.7,674.19c22.3,0,40.38,11.11,40.38,24.8c0,13.7-18.08,24.8-40.38,24.8H190.74
			c-22.3,0-40.38-11.11-40.38-24.8c0-13.7,18.08-24.8,40.38-24.8H307.7L307.7,674.19z"/>
		<path class="st3" d="M307.7,677.64c17.7,0,32.05,8.82,32.05,19.69c0,10.87-14.35,19.69-32.05,19.69H190.74
			c-17.7,0-32.05-8.82-32.05-19.69c0-10.87,14.35-19.69,32.05-19.69H307.7L307.7,677.64z"/>
		<path class="st14" d="M190.74,712.69c-16.22,0-29.37-8.08-29.37-18.04v-14.69h2.35c4.48-6.44,14.89-7.91,27.02-7.91v-10.12H307.7
			v10.12c12.13,0,22.54,1.47,27.02,7.91h2.35v14.69c0,9.96-13.15,18.04-29.37,18.04H190.74L190.74,712.69z"/>
		<path class="st15" d="M192.01,697.98c-0.42,0.01-0.84,0.02-1.27,0.02c-16.22,0-29.37-8.08-29.37-18.04s13.15-18.04,29.37-18.04
			h115.68v0.02c0.43-0.01,0.85-0.02,1.28-0.02c16.22,0,29.37,8.08,29.37,18.04S323.92,698,307.7,698c-0.43,0-0.86-0.01-1.28-0.02v0
			H192.01L192.01,697.98z"/>
	</g>
	<g>
		<path class="st1" d="M578.52,555.43c30.85,0,55.87,14.26,55.87,31.84c0,17.58-25.02,31.84-55.87,31.84
			c-30.85,0-55.87-14.26-55.87-31.84C522.65,569.69,547.67,555.43,578.52,555.43L578.52,555.43z"/>
		<path class="st2" d="M537.6,474.54l-0.01-0.01c16.87-16.87,44.32-16.87,61.2,0c10.43,10.44,14.75,25.63,11.69,39.78
			c-0.56,2.59-1.38,5.15-2.43,7.64c-4.76,11.26-14.14,20.09-25.76,24.1v4.6c3.64,0.76,7.23,1.83,10.66,3.27
			c12.63,5.29,20.94,14.59,20.94,25.42v9.74c0,8.83-5.49,16.62-14.37,22.07c-17.53,10.76-45.12,10.77-62.65,0
			c-8.87-5.45-14.36-13.24-14.37-22.06l0-9.77c0-2.24,0.36-4.4,1.03-6.47c0.66-2.04,1.63-4,2.87-5.86
			c5.15-7.72,15.28-13.72,27.7-16.33v-4.61c-1.22-0.42-2.42-0.9-3.61-1.44c-2.5-1.12-4.84-2.45-6.99-3.94
			C521.24,525.17,518.71,493.44,537.6,474.54L537.6,474.54z"/>
		<path class="st3" d="M568.19,564.27c16.67,0,30.99,6.21,37.15,15.07h3.23v9.74c0,13.7-18.08,24.8-40.38,24.8
			s-40.38-11.11-40.38-24.8v-9.74h3.23C537.2,570.48,551.51,564.27,568.19,564.27L568.19,564.27z"/>
		<path class="st4" d="M568.19,554.53c22.3,0,40.38,11.11,40.38,24.8c0,13.7-18.08,24.8-40.38,24.8s-40.38-11.11-40.38-24.8
			C527.8,565.64,545.89,554.53,568.19,554.53L568.19,554.53z"/>
		<path class="st3" d="M568.19,568.81c7.9,0,14.31,3.93,14.31,8.79c0,4.85-6.41,8.79-14.31,8.79c-7.9,0-14.3-3.93-14.3-8.79
			C553.88,572.75,560.29,568.81,568.19,568.81L568.19,568.81z"/>
		<path class="st5" d="M576.95,576.87c0,2.98-3.93,5.39-8.77,5.39c-4.84,0-8.77-2.41-8.77-5.39v-35.55h17.53V576.87L576.95,576.87z"
			/>
		<path class="st10" d="M568.19,467.18c20.96,0,37.95,16.99,37.95,37.95c0,20.95-16.99,37.95-37.95,37.95
			c-20.95,0-37.95-16.99-37.95-37.95C530.24,484.17,547.23,467.18,568.19,467.18L568.19,467.18z"/>
		<path class="st11" d="M565.14,471.08c17.12,0,31.01,13.88,31.01,31.01c0,17.12-13.88,31.01-31.01,31.01
			c-17.12,0-31-13.88-31-31.01C534.14,484.96,548.02,471.08,565.14,471.08L565.14,471.08z"/>
		<path class="st8" d="M547.21,483.93c6.45-6.45,14.54-8.83,18.06-5.3c3.52,3.52,1.15,11.61-5.3,18.06
			c-6.45,6.45-14.54,8.83-18.06,5.3C538.38,498.47,540.76,490.38,547.21,483.93L547.21,483.93z"/>
		<path class="st9" d="M570.23,577.55c-0.66,0.1-1.34,0.15-2.04,0.15c-1.72,0-3.32-0.31-4.67-0.83v-30.68
			c1.53,0.19,3.09,0.29,4.67,0.29c0.68,0,1.37-0.02,2.04-0.05V577.55L570.23,577.55z"/>
	</g>
	<g>
		<path class="st1" d="M473.58,694.87h116.01c13.45,0,24.46,11.01,24.46,24.46v86.21c0,13.45-11.01,24.46-24.46,24.46H473.58
			c-13.45,0-24.46-11.01-24.46-24.46v-86.21C449.12,705.87,460.12,694.87,473.58,694.87L473.58,694.87z"/>
		<path class="st2" d="M522.64,660.36c4.35,0,8.3,1.78,11.16,4.64c2.21,2.21,3.77,5.08,4.36,8.3l24.29,0.02
			c16.3,0,29.65,13.36,29.66,29.65c0,32.5,0,65,0,97.5c0,8.18-3.33,15.6-8.7,20.96c-5.36,5.36-12.78,8.69-20.96,8.69H446.43
			c-8.18,0-15.6-3.33-20.96-8.69c-5.36-5.36-8.69-12.78-8.69-20.96c0-32.5,0-65,0-97.5c0-8.18,3.33-15.6,8.69-20.96
			c5.36-5.36,12.78-8.69,20.96-8.69l24.29-0.02c1.36-7.44,7.89-12.93,15.52-12.93H522.64L522.64,660.36z"/>
		<path class="st3" d="M446.44,689.8h116.01c13.45,0,24.46,11.01,24.46,24.46v86.21c0,13.45-11.01,24.46-24.46,24.46H446.44
			c-13.45,0-24.46-11.01-24.46-24.46v-86.21C421.98,700.81,432.98,689.8,446.44,689.8L446.44,689.8z"/>
		<path class="st4" d="M446.44,678.52h116.01c13.45,0,24.46,11.01,24.46,24.46v86.21c0,13.45-11.01,24.46-24.46,24.46H446.44
			c-13.45,0-24.46-11.01-24.46-24.46v-86.21C421.98,689.52,432.98,678.52,446.44,678.52L446.44,678.52z"/>
		<path class="st2" d="M522.64,676.16c4.36,0,8.32,1.77,11.16,4.62s4.61,6.8,4.62,11.16l0.02,20.39l20.39,0.02
			c4.35,0,8.3,1.78,11.16,4.64c2.85,2.85,4.61,6.79,4.62,11.14v22.48c0,4.36-1.77,8.31-4.62,11.16c-2.85,2.85-6.8,4.61-11.16,4.62
			l-20.39,0.02l-0.02,20.39c0,4.36-1.77,8.31-4.62,11.16c-2.85,2.85-6.8,4.61-11.16,4.62h-36.41c-4.36,0-8.31-1.77-11.16-4.62
			c-2.85-2.85-4.61-6.8-4.62-11.16l-0.02-20.39l-20.39-0.02c-4.36,0-8.31-1.77-11.16-4.62c-2.85-2.85-4.61-6.8-4.62-11.16v-22.48
			c0-8.69,7.09-15.78,15.78-15.78l20.39-0.02l0.02-20.39c0-4.35,1.77-8.29,4.63-11.15l-0.01-0.01c2.85-2.85,6.8-4.61,11.16-4.62
			H522.64L522.64,676.16z"/>
		<path class="st12" d="M486.24,681.36h36.4c5.82,0,10.58,4.76,10.58,10.58v25.61h25.61c5.82,0,10.58,4.76,10.58,10.58v22.48
			c0,5.82-4.76,10.58-10.58,10.58h-25.61v25.61c0,5.82-4.76,10.58-10.58,10.58h-36.4c-5.82,0-10.58-4.76-10.58-10.58v-25.61h-25.61
			c-5.82,0-10.58-4.76-10.58-10.58v-22.48c0-5.82,4.76-10.58,10.58-10.58h25.61v-25.61C475.66,686.12,480.42,681.36,486.24,681.36
			L486.24,681.36z"/>
		<path class="st13" d="M486.24,665.57h36.4c5.82,0,10.58,4.76,10.58,10.58v25.61h25.61c5.82,0,10.58,4.76,10.58,10.58v22.48
			c0,5.82-4.76,10.58-10.58,10.58h-25.61V771c0,5.82-4.76,10.58-10.58,10.58h-36.4c-5.82,0-10.58-4.76-10.58-10.58v-25.61h-25.61
			c-5.82,0-10.58-4.76-10.58-10.58v-22.48c0-5.82,4.76-10.58,10.58-10.58h25.61v-25.61C475.66,670.33,480.42,665.57,486.24,665.57
			L486.24,665.57z"/>
	</g>
	<g>
		<path class="st1" d="M319.47,778.4c30.85,0,55.87,14.26,55.87,31.84c0,17.58-25.02,31.84-55.87,31.84
			c-30.85,0-55.87-14.26-55.87-31.84C263.6,792.66,288.62,778.4,319.47,778.4L319.47,778.4z"/>
		<path class="st2" d="M308.89,759.89c5.36,0.13,10.65,1.08,15.42,2.8c1.9,0.68,3.65,1.46,5.23,2.3c1.63,0.87,3.15,1.87,4.56,2.97
			c4.97,3.89,8.02,8.92,8.27,14.56c2.18,1.66,4.09,3.49,5.67,5.45c1.13,1.4,2.09,2.85,2.86,4.32c0.35,0.68,0.7,1.45,1.04,2.32
			c0.95,2.45,1.46,5.03,1.46,7.7v9.73c0,8.82-5.49,16.61-14.36,22.06l0.01,0.01c-8.16,5.02-18.52,7.69-29.02,8.04l-118.3,0.03
			c-11.62,0.16-23.31-2.53-32.33-8.07c-8.86-5.44-14.34-13.23-14.35-22.07l0-9.75c0-4.39,1.36-8.52,3.82-12.24
			c0.35-0.53,0.76-1.1,1.24-1.72c1.64-2.1,3.65-4.06,5.96-5.82c0.3-6.66,4.49-12.48,11.11-16.54c6.81-4.19,15.35-6.15,23.8-6.09v0
			L308.89,759.89L308.89,759.89z"/>
		<path class="st3" d="M307.89,836.84H190.74v0c-22.3,0-40.38-11.11-40.38-24.8v-9.73h3.23c6.16-8.86,20.48-15.07,37.15-15.07v-9.55
			h117.15v9.55c16.59,0.05,30.82,6.24,36.96,15.06h3.23v9.73C348.09,825.69,330.1,836.78,307.89,836.84L307.89,836.84L307.89,836.84
			z"/>
		<path class="st4" d="M307.7,777.5c22.3,0,40.38,11.11,40.38,24.8c0,13.7-18.08,24.8-40.38,24.8H190.74
			c-22.3,0-40.38-11.11-40.38-24.8c0-13.7,18.08-24.8,40.38-24.8H307.7L307.7,777.5z"/>
		<path class="st3" d="M307.7,780.95c17.7,0,32.05,8.82,32.05,19.69c0,10.87-14.35,19.69-32.05,19.69H190.74
			c-17.7,0-32.05-8.82-32.05-19.69c0-10.87,14.35-19.69,32.05-19.69H307.7L307.7,780.95z"/>
		<path class="st6" d="M190.74,816c-16.22,0-29.37-8.08-29.37-18.04v-14.69h2.35c4.48-6.44,14.89-7.91,27.02-7.91v-10.12H307.7
			v10.12c12.13,0,22.54,1.47,27.02,7.91h2.35v14.69c0,9.96-13.15,18.04-29.37,18.04H190.74L190.74,816z"/>
		<path class="st7" d="M192.01,801.29c-0.42,0.01-0.84,0.02-1.27,0.02c-16.22,0-29.37-8.08-29.37-18.04
			c0-9.96,13.15-18.04,29.37-18.04h115.68v0.02c0.43-0.01,0.85-0.02,1.28-0.02c16.22,0,29.37,8.08,29.37,18.04
			c0,9.96-13.15,18.04-29.37,18.04c-0.43,0-0.86-0.01-1.28-0.02v0H192.01L192.01,801.29z"/>
	</g>
	<g>
		<path class="st16" d="M216.56,680.81l-3.93-0.06l-2.03,6.2c-0.31,0.93-0.75,1.65-1.34,2.13c-0.59,0.48-1.21,0.72-1.86,0.7
			c-0.68-0.02-1.14-0.28-1.38-0.77c-0.24-0.49-0.19-1.2,0.14-2.12l5.61-15.61c0.29-0.8,0.69-1.36,1.2-1.69
			c0.51-0.33,1.19-0.5,2.05-0.5l5.03,0c1.5,0,2.63,0.11,3.38,0.31c0.75,0.2,1.37,0.54,1.84,1.01c0.48,0.48,0.79,1.07,0.93,1.78
			c0.14,0.72,0.11,1.53-0.11,2.44c-0.48,2-1.51,3.55-3.11,4.61C221.36,680.32,219.21,680.84,216.56,680.81z M218.27,671.81
			l-2.7-0.01l-1.91,5.83l2.82,0.03c0.99,0.01,1.85-0.08,2.58-0.27c0.72-0.19,1.32-0.51,1.8-0.96c0.47-0.44,0.8-1.02,1-1.74
			c0.23-0.84,0.15-1.52-0.23-2.04C221.18,672.09,220.06,671.81,218.27,671.81z"/>
		<path class="st16" d="M238.95,687.41l-0.73-2.94l-9.23-0.17l-1.68,2.92c-0.68,1.17-1.21,1.97-1.61,2.38
			c-0.4,0.42-0.95,0.62-1.64,0.6c-0.59-0.02-1.06-0.25-1.4-0.72c-0.34-0.46-0.44-0.97-0.31-1.53c0.08-0.32,0.21-0.65,0.39-0.99
			c0.18-0.33,0.46-0.8,0.84-1.39l8.4-13.34c0.22-0.35,0.48-0.76,0.78-1.24c0.3-0.48,0.6-0.87,0.89-1.18
			c0.29-0.31,0.65-0.56,1.06-0.75c0.41-0.19,0.9-0.28,1.46-0.28c0.57,0,1.03,0.1,1.38,0.29c0.35,0.19,0.63,0.44,0.82,0.74
			c0.19,0.31,0.35,0.64,0.46,0.99c0.11,0.36,0.26,0.84,0.43,1.45l4.23,13.61c0.38,1.17,0.54,2.02,0.5,2.56
			c-0.05,0.56-0.33,1.08-0.84,1.54c-0.51,0.47-1.1,0.69-1.76,0.68c-0.38-0.01-0.71-0.09-0.96-0.24c-0.26-0.15-0.47-0.34-0.62-0.59
			c-0.16-0.24-0.31-0.62-0.46-1.11C239.18,688.21,239.05,687.78,238.95,687.41z M230.82,680.98l6.62,0.1l-1.96-8.37L230.82,680.98z"
			/>
		<path class="st16" d="M265.9,683.55c0.1,1.41-0.2,2.69-0.89,3.84c-0.71,1.17-1.8,2.08-3.28,2.73c-1.49,0.65-3.27,0.96-5.33,0.9
			c-2.46-0.06-4.47-0.58-6.01-1.55c-1.08-0.69-1.92-1.58-2.54-2.66c-0.61-1.07-0.87-2.09-0.81-3.05c0.04-0.56,0.27-1.02,0.69-1.41
			c0.42-0.38,0.93-0.57,1.54-0.56c0.49,0.01,0.9,0.16,1.23,0.47c0.33,0.31,0.61,0.77,0.83,1.38c0.27,0.73,0.58,1.36,0.91,1.86
			c0.34,0.51,0.83,0.94,1.47,1.28c0.64,0.35,1.5,0.53,2.56,0.55c1.46,0.03,2.65-0.28,3.56-0.93c0.9-0.65,1.32-1.46,1.29-2.44
			c-0.03-0.76-0.29-1.38-0.78-1.85c-0.49-0.47-1.11-0.83-1.87-1.08c-0.75-0.25-1.75-0.52-2.99-0.8c-1.65-0.39-3.01-0.83-4.1-1.32
			c-1.07-0.49-1.9-1.14-2.49-1.95c-0.58-0.8-0.83-1.77-0.75-2.92c0.07-1.07,0.45-2,1.14-2.81c0.68-0.8,1.63-1.4,2.84-1.82
			c1.21-0.42,2.62-0.63,4.24-0.63c1.3,0,2.43,0.14,3.39,0.42c0.97,0.28,1.78,0.66,2.44,1.13c0.67,0.48,1.17,0.98,1.5,1.51
			c0.33,0.54,0.52,1.07,0.55,1.59c0.03,0.48-0.14,0.91-0.5,1.3c-0.36,0.39-0.83,0.58-1.41,0.58c-0.52,0-0.93-0.12-1.2-0.36
			c-0.28-0.24-0.58-0.62-0.91-1.14c-0.42-0.74-0.92-1.32-1.48-1.73c-0.56-0.41-1.45-0.61-2.67-0.61c-1.13,0-2.04,0.21-2.74,0.65
			c-0.7,0.44-1.07,0.97-1.09,1.6c-0.01,0.39,0.09,0.74,0.33,1.03c0.23,0.29,0.56,0.55,0.97,0.76c0.42,0.21,0.85,0.38,1.28,0.51
			c0.44,0.12,1.16,0.31,2.17,0.55c1.28,0.28,2.44,0.6,3.49,0.94c1.06,0.35,1.97,0.76,2.74,1.26c0.77,0.5,1.4,1.13,1.87,1.9
			C265.54,681.43,265.82,682.39,265.9,683.55z"/>
		<path class="st16" d="M289.04,683.93c0.35,1.45,0.26,2.77-0.28,3.96c-0.54,1.2-1.53,2.14-2.98,2.81
			c-1.45,0.67-3.27,0.98-5.45,0.93c-2.6-0.07-4.79-0.61-6.58-1.6c-1.25-0.71-2.29-1.63-3.12-2.75c-0.82-1.1-1.27-2.15-1.36-3.14
			c-0.05-0.57,0.11-1.05,0.48-1.45c0.37-0.39,0.88-0.58,1.52-0.57c0.52,0.01,0.97,0.17,1.37,0.49c0.4,0.32,0.77,0.79,1.1,1.42
			c0.41,0.76,0.84,1.4,1.27,1.92c0.44,0.53,1.03,0.97,1.76,1.32c0.73,0.36,1.66,0.55,2.78,0.57c1.54,0.03,2.74-0.29,3.57-0.96
			c0.83-0.67,1.14-1.5,0.94-2.51c-0.16-0.78-0.54-1.42-1.14-1.91c-0.59-0.48-1.31-0.85-2.15-1.11c-0.83-0.26-1.92-0.53-3.27-0.83
			c-1.79-0.4-3.3-0.85-4.52-1.36c-1.21-0.5-2.19-1.17-2.94-2c-0.74-0.82-1.17-1.82-1.28-2.99c-0.11-1.1,0.14-2.05,0.72-2.88
			c0.58-0.81,1.47-1.43,2.67-1.86c1.19-0.43,2.64-0.64,4.33-0.64c1.36,0,2.57,0.14,3.62,0.43c1.06,0.29,1.98,0.67,2.75,1.16
			c0.78,0.49,1.39,1.01,1.83,1.55c0.44,0.55,0.72,1.09,0.85,1.63c0.11,0.49,0.01,0.93-0.3,1.33c-0.31,0.4-0.77,0.6-1.38,0.59
			c-0.55,0-0.99-0.13-1.32-0.37c-0.33-0.24-0.72-0.63-1.15-1.17c-0.57-0.76-1.19-1.35-1.85-1.77c-0.66-0.42-1.62-0.63-2.9-0.63
			c-1.18,0-2.1,0.22-2.76,0.66c-0.66,0.45-0.96,0.99-0.87,1.64c0.05,0.4,0.22,0.75,0.51,1.05c0.29,0.3,0.68,0.56,1.15,0.78
			c0.48,0.22,0.95,0.39,1.43,0.52c0.48,0.13,1.27,0.32,2.37,0.56c1.39,0.29,2.66,0.61,3.82,0.97c1.17,0.36,2.2,0.79,3.09,1.29
			c0.9,0.51,1.66,1.16,2.29,1.95C288.3,681.75,288.76,682.74,289.04,683.93z"/>
	</g>
	<g>
		<path class="st16" d="M216.53,783.45l-0.72,4.06c-0.1,0.55-0.23,1-0.4,1.33c-0.17,0.34-0.43,0.64-0.78,0.91
			c-0.35,0.27-0.79,0.54-1.31,0.79c-1.51,0.74-2.94,1.28-4.29,1.62c-1.35,0.34-2.78,0.51-4.29,0.51c-1.76,0-3.29-0.27-4.6-0.81
			c-1.3-0.53-2.31-1.31-3.05-2.31c-0.72-0.99-1.15-2.18-1.28-3.55c-0.13-1.35,0.04-2.84,0.52-4.46c0.46-1.56,1.12-2.97,1.97-4.22
			c0.84-1.24,1.85-2.27,3.01-3.11c1.16-0.83,2.45-1.47,3.88-1.9c1.42-0.43,2.97-0.65,4.63-0.65c1.37,0,2.54,0.16,3.53,0.49
			c0.99,0.33,1.77,0.74,2.33,1.24c0.57,0.5,0.97,1.04,1.2,1.61c0.24,0.57,0.31,1.09,0.23,1.54c-0.09,0.49-0.36,0.91-0.82,1.25
			c-0.46,0.35-0.97,0.52-1.53,0.52c-0.31,0-0.59-0.07-0.85-0.2c-0.26-0.13-0.46-0.32-0.6-0.56c-0.37-0.75-0.7-1.32-0.98-1.7
			c-0.28-0.38-0.7-0.7-1.25-0.95c-0.55-0.26-1.3-0.38-2.24-0.38c-0.97,0-1.87,0.15-2.71,0.45c-0.84,0.3-1.61,0.75-2.3,1.33
			c-0.7,0.59-1.31,1.31-1.83,2.18c-0.53,0.88-0.94,1.86-1.23,2.94c-0.65,2.41-0.56,4.3,0.28,5.65c0.85,1.37,2.36,2.07,4.53,2.07
			c1.05,0,2.07-0.14,3.05-0.41c0.98-0.27,1.99-0.65,3.03-1.15l0.69-3.45h-3.43c-0.82,0-1.42-0.12-1.79-0.35
			c-0.37-0.24-0.48-0.64-0.35-1.2c0.11-0.45,0.37-0.83,0.78-1.12c0.41-0.29,0.92-0.44,1.51-0.44h4.93c0.61,0,1.11,0.05,1.51,0.15
			c0.4,0.1,0.7,0.33,0.9,0.68C216.62,782.21,216.65,782.74,216.53,783.45z"/>
		<path class="st16" d="M220.78,783.31l1.44-9.41c0.12-0.75,0.39-1.32,0.82-1.69c0.43-0.37,0.95-0.56,1.56-0.56
			c0.64,0,1.12,0.18,1.44,0.56c0.33,0.37,0.44,0.93,0.35,1.69l-1.24,9.64c-0.15,1.17-0.14,2.15,0.04,2.95
			c0.18,0.81,0.59,1.44,1.25,1.89c0.66,0.45,1.63,0.68,2.92,0.68c1.78,0,3.07-0.46,3.88-1.38c0.8-0.91,1.26-2.27,1.4-4.06l0.73-9.72
			c0.06-0.76,0.29-1.33,0.68-1.7c0.4-0.37,0.9-0.55,1.52-0.55c0.62,0,1.11,0.18,1.47,0.55c0.37,0.37,0.53,0.93,0.49,1.7l-0.48,9.41
			c-0.08,1.63-0.32,3.01-0.72,4.14c-0.4,1.14-1.11,2.15-2.11,3.03c-0.87,0.76-1.88,1.31-3,1.66c-1.13,0.35-2.44,0.53-3.91,0.53
			c-1.76,0-3.25-0.19-4.47-0.57c-1.22-0.38-2.17-0.96-2.85-1.74c-0.68-0.77-1.11-1.76-1.3-2.94
			C220.51,786.26,220.54,784.88,220.78,783.31z"/>
		<path class="st16" d="M256.52,789.73l-1.19-2.74h-9.02l-1.1,2.8c-0.44,1.12-0.82,1.88-1.12,2.28c-0.31,0.4-0.81,0.6-1.5,0.6
			c-0.58,0-1.09-0.21-1.52-0.64c-0.43-0.42-0.63-0.9-0.61-1.43c0.01-0.3,0.08-0.62,0.19-0.94c0.11-0.32,0.3-0.77,0.56-1.34
			l5.8-13.16c0.15-0.35,0.34-0.77,0.55-1.25c0.21-0.48,0.44-0.88,0.67-1.2c0.24-0.32,0.55-0.57,0.93-0.76
			c0.38-0.19,0.85-0.29,1.42-0.29c0.57,0,1.05,0.1,1.44,0.29c0.39,0.19,0.71,0.44,0.95,0.75c0.25,0.31,0.46,0.64,0.63,1
			c0.18,0.36,0.4,0.84,0.68,1.44l6.32,13.07c0.53,1.08,0.82,1.87,0.86,2.37c0.04,0.52-0.15,1-0.56,1.44
			c-0.41,0.44-0.93,0.66-1.55,0.66c-0.36,0-0.68-0.07-0.95-0.19c-0.27-0.13-0.49-0.31-0.68-0.53c-0.19-0.22-0.39-0.56-0.62-1.02
			C256.87,790.47,256.68,790.08,256.52,789.73z M247.51,783.77h6.51l-3.41-8.18L247.51,783.77z"/>
		<path class="st16" d="M270.05,783.01h-1.54l0.79,6.87c0.11,0.94-0.02,1.65-0.4,2.1c-0.38,0.46-0.91,0.68-1.59,0.68
			c-0.74,0-1.33-0.24-1.78-0.72c-0.45-0.47-0.71-1.16-0.79-2.07l-1.41-15.64c-0.07-0.81,0.07-1.39,0.44-1.75
			c0.37-0.36,0.99-0.53,1.88-0.53h6.71c0.93,0,1.72,0.04,2.39,0.1c0.67,0.07,1.29,0.21,1.85,0.43c0.68,0.24,1.31,0.59,1.89,1.04
			c0.58,0.45,1.05,0.99,1.43,1.59c0.38,0.61,0.63,1.27,0.76,1.97c0.27,1.45,0.05,2.62-0.69,3.51c-0.74,0.9-2.01,1.54-3.79,1.92
			c0.84,0.39,1.68,0.97,2.53,1.75c0.85,0.78,1.64,1.62,2.38,2.52c0.74,0.91,1.34,1.74,1.8,2.48c0.47,0.75,0.73,1.27,0.78,1.56
			c0.06,0.3,0.02,0.59-0.12,0.88c-0.14,0.29-0.35,0.53-0.65,0.7c-0.3,0.17-0.67,0.26-1.11,0.26c-0.52,0-0.98-0.12-1.37-0.37
			c-0.39-0.24-0.75-0.55-1.07-0.92c-0.32-0.37-0.75-0.91-1.29-1.62l-2.28-2.95c-0.8-1.06-1.49-1.86-2.08-2.4
			c-0.58-0.54-1.14-0.91-1.68-1.11C271.49,783.11,270.83,783.01,270.05,783.01z M271.43,774.76h-3.87l0.61,5.31h3.87
			c1.04,0,1.9-0.08,2.58-0.25c0.68-0.17,1.18-0.45,1.48-0.85c0.31-0.4,0.4-0.94,0.29-1.63c-0.09-0.53-0.31-1-0.67-1.4
			c-0.36-0.4-0.81-0.7-1.36-0.9C273.85,774.86,272.87,774.76,271.43,774.76z"/>
		<path class="st16" d="M286.15,771.96h5.37c1.4,0,2.63,0.12,3.69,0.35c1.07,0.23,2.11,0.67,3.12,1.31
			c2.66,1.66,4.56,4.25,5.71,7.86c0.39,1.22,0.63,2.35,0.73,3.39c0.1,1.05,0.04,2-0.18,2.86c-0.22,0.87-0.61,1.65-1.17,2.35
			c-0.45,0.54-0.98,0.97-1.61,1.3c-0.63,0.33-1.34,0.56-2.14,0.7c-0.8,0.13-1.72,0.2-2.77,0.2h-6.03c-0.84,0-1.5-0.13-1.98-0.38
			c-0.48-0.25-0.83-0.61-1.06-1.06c-0.23-0.45-0.41-1.04-0.57-1.75l-3.17-14.84c-0.17-0.81-0.1-1.39,0.23-1.75
			C284.66,772.14,285.26,771.96,286.15,771.96z M288.45,774.92l3.28,13.76h3.44c0.75,0,1.34-0.02,1.76-0.06
			c0.42-0.04,0.83-0.14,1.25-0.3c0.41-0.16,0.75-0.38,1-0.67c1.15-1.23,1.29-3.32,0.45-6.2c-0.58-1.97-1.32-3.42-2.22-4.37
			c-0.89-0.94-1.82-1.53-2.8-1.79c-0.97-0.25-2.1-0.38-3.38-0.38H288.45z"/>
	</g>
</g>
<g>
	<g>
		<polygon class="st16" points="187.86,205.49 187.86,197.88 172.63,197.88 172.63,205.49 126.97,205.49 126.97,197.88 
			119.36,197.88 119.36,22.83 126.97,22.83 126.97,15.22 134.58,15.22 134.58,7.61 142.19,7.61 142.19,0 218.3,0 218.3,7.61 
			225.91,7.61 225.91,15.22 233.52,15.22 233.52,22.83 241.13,22.83 241.13,197.88 233.52,197.88 233.52,205.49 		"/>
		<path class="st17" d="M225.91,30.44v-7.61h-7.61v-7.61h-7.61V7.61H149.8v7.61h-7.61v7.61h-7.61v7.61h-7.61v159.82h7.61v7.61h30.44
			v-7.61h7.61v-38.05h15.22v38.05h7.61v7.61h30.44v-7.61h7.61V30.44H225.91z M187.86,83.72h-15.22v-7.61h15.22V83.72z"/>
		<polygon class="st18" points="165.02,121.77 195.47,121.77 195.47,167.43 225.91,167.43 225.91,91.33 134.58,91.33 134.58,167.43 
			165.02,167.43 		"/>
		<rect x="195.47" y="76.11" class="st19" width="30.44" height="15.22"/>
		<rect x="134.58" y="76.11" class="st19" width="30.44" height="15.22"/>
		<rect x="195.47" y="60.89" class="st20" width="30.44" height="15.22"/>
		<rect x="134.58" y="60.89" class="st20" width="30.44" height="15.22"/>
		<rect x="134.58" y="45.66" class="st21" width="30.44" height="15.22"/>
		<rect x="195.47" y="45.66" class="st21" width="30.44" height="15.22"/>
		<rect x="134.58" y="30.44" class="st22" width="91.33" height="15.22"/>
		<rect x="149.8" y="15.22" class="st23" width="60.89" height="15.22"/>
	</g>
	<g>
		<polygon class="st16" points="425.8,205.49 425.8,197.88 418.19,197.88 418.19,7.61 425.8,7.61 425.8,0 532.35,0 532.35,7.61 
			539.96,7.61 539.96,76.11 532.35,76.11 532.35,83.72 524.74,83.72 524.74,121.77 532.35,121.77 532.35,129.38 539.96,129.38 
			539.96,197.88 532.35,197.88 532.35,205.49 		"/>
		<polygon class="st17" points="524.74,76.11 524.74,68.5 532.35,68.5 532.35,15.22 524.74,15.22 524.74,7.61 433.42,7.61 
			433.42,15.22 425.8,15.22 425.8,190.27 433.42,190.27 433.42,197.88 524.74,197.88 524.74,190.27 532.35,190.27 532.35,136.99 
			524.74,136.99 524.74,129.38 517.13,129.38 517.13,76.11 		"/>
		<polygon class="st18" points="524.74,136.99 463.86,136.99 463.86,106.55 509.52,106.55 509.52,91.33 433.42,91.33 433.42,167.43 
			524.74,167.43 		"/>
		<rect x="433.42" y="76.11" class="st19" width="76.11" height="15.22"/>
		<rect x="433.42" y="60.89" class="st20" width="30.44" height="15.22"/>
		<rect x="433.42" y="45.66" class="st21" width="30.44" height="15.22"/>
		<rect x="433.42" y="30.44" class="st22" width="91.33" height="15.22"/>
		<rect x="433.42" y="15.22" class="st23" width="91.33" height="15.22"/>
	</g>
	<g>
		<polygon class="st16" points="23.22,205.49 23.22,197.88 15.61,197.88 15.61,190.27 8,190.27 8,182.66 0.38,182.66 0.38,22.83 
			8,22.83 8,15.22 15.61,15.22 15.61,7.61 23.22,7.61 23.22,0 99.32,0 99.32,7.61 106.93,7.61 106.93,15.22 114.54,15.22 
			114.54,22.83 122.16,22.83 122.16,182.66 114.54,182.66 114.54,190.27 106.93,190.27 106.93,197.88 99.32,197.88 99.32,205.49 		
			"/>
		<path class="st17" d="M114.54,30.44h-7.61v-7.61h-7.61v-7.61h-7.61V7.61H30.83v7.61h-7.61v7.61h-7.61v7.61H8v144.6h7.61v7.61h7.61
			v7.61h7.61v7.61h60.89v-7.61h7.61v-7.61h7.61v-7.61h7.61V30.44z"/>
		<polygon class="st18" points="30.83,167.43 91.71,167.43 91.71,152.21 106.93,152.21 106.93,91.33 61.27,91.33 61.27,106.55 
			76.49,106.55 76.49,136.99 46.05,136.99 46.05,91.33 15.61,91.33 15.61,152.21 30.83,152.21 		"/>
		<rect x="61.27" y="76.11" class="st19" width="45.66" height="15.22"/>
		<rect x="15.61" y="76.11" class="st19" width="30.44" height="15.22"/>
		<rect x="15.61" y="60.89" class="st20" width="30.44" height="15.22"/>
		<rect x="76.49" y="45.66" class="st21" width="30.44" height="15.22"/>
		<rect x="15.61" y="45.66" class="st21" width="30.44" height="15.22"/>
		<rect x="15.61" y="30.44" class="st22" width="91.33" height="15.22"/>
		<rect x="30.83" y="15.22" class="st23" width="60.89" height="15.22"/>
	</g>
	<g>
		<polygon class="st16" points="367.72,205.49 367.72,197.88 352.49,197.88 352.49,205.49 306.83,205.49 306.83,197.88 
			291.61,197.88 291.61,205.49 245.94,205.49 245.94,197.88 238.33,197.88 238.33,7.61 245.94,7.61 245.94,0 291.61,0 291.61,7.61 
			299.22,7.61 299.22,30.44 306.83,30.44 306.83,38.05 314.44,38.05 314.44,60.89 322.05,60.89 322.05,68.5 337.27,68.5 
			337.27,60.89 344.88,60.89 344.88,38.05 352.49,38.05 352.49,30.44 360.1,30.44 360.1,7.61 367.72,7.61 367.72,0 413.38,0 
			413.38,7.61 420.99,7.61 420.99,197.88 413.38,197.88 413.38,205.49 		"/>
		<polygon class="st17" points="253.56,197.88 253.56,190.27 245.94,190.27 245.94,15.22 253.56,15.22 253.56,7.61 284,7.61 
			284,15.22 291.61,15.22 291.61,38.05 299.22,38.05 299.22,45.66 306.83,45.66 306.83,68.5 314.44,68.5 314.44,76.11 322.05,76.11 
			322.05,98.94 337.27,98.94 337.27,76.11 344.88,76.11 344.88,68.5 352.49,68.5 352.49,45.66 360.1,45.66 360.1,38.05 
			367.72,38.05 367.72,15.22 375.33,15.22 375.33,7.61 405.77,7.61 405.77,15.22 413.38,15.22 413.38,190.27 405.77,190.27 
			405.77,197.88 375.33,197.88 375.33,190.27 367.72,190.27 367.72,159.82 360.1,159.82 360.1,167.43 352.49,167.43 352.49,190.27 
			344.88,190.27 344.88,197.88 314.44,197.88 314.44,190.27 306.83,190.27 306.83,167.43 299.22,167.43 299.22,159.82 
			291.61,159.82 291.61,190.27 284,190.27 284,197.88 		"/>
		<polygon class="st18" points="314.44,91.33 253.56,91.33 253.56,167.43 284,167.43 284,106.55 299.22,106.55 299.22,136.99 
			314.44,136.99 314.44,167.43 344.88,167.43 344.88,136.99 360.1,136.99 360.1,106.55 375.33,106.55 375.33,167.43 405.77,167.43 
			405.77,91.33 344.88,91.33 344.88,106.55 314.44,106.55 		"/>
		<rect x="253.56" y="76.11" class="st19" width="60.89" height="15.22"/>
		<rect x="344.88" y="76.11" class="st19" width="60.89" height="15.22"/>
		<rect x="253.56" y="60.89" class="st20" width="45.66" height="15.22"/>
		<rect x="360.1" y="60.89" class="st20" width="45.66" height="15.22"/>
		<rect x="253.56" y="45.66" class="st21" width="45.66" height="15.22"/>
		<rect x="360.1" y="45.66" class="st21" width="45.66" height="15.22"/>
		<rect x="375.33" y="30.44" class="st22" width="30.44" height="15.22"/>
		<rect x="253.56" y="30.44" class="st22" width="30.44" height="15.22"/>
		<rect x="375.33" y="15.22" class="st23" width="30.44" height="15.22"/>
		<rect x="253.56" y="15.22" class="st23" width="30.44" height="15.22"/>
	</g>
	<g>
		<g>
			<polygon class="st16" points="129.24,352.22 129.24,347.01 118.83,347.01 118.83,352.22 87.61,352.22 87.61,347.01 82.4,347.01 
				82.4,216.91 87.61,216.91 87.61,211.7 118.83,211.7 118.83,216.91 129.24,216.91 129.24,211.7 160.47,211.7 160.47,216.91 
				165.67,216.91 165.67,347.01 160.47,347.01 160.47,352.22 			"/>
			<polygon class="st17" points="92.81,347.01 92.81,341.81 87.61,341.81 87.61,222.11 92.81,222.11 92.81,216.91 113.63,216.91 
				113.63,222.11 118.83,222.11 118.83,237.72 124.04,237.72 124.04,242.93 129.24,242.93 129.24,222.11 134.44,222.11 
				134.44,216.91 155.26,216.91 155.26,222.11 160.47,222.11 160.47,341.81 155.26,341.81 155.26,347.01 134.44,347.01 
				134.44,341.81 129.24,341.81 129.24,326.2 124.04,326.2 124.04,320.99 118.83,320.99 118.83,341.81 113.63,341.81 113.63,347.01 
							"/>
			<polygon class="st18" points="124.04,305.38 134.44,305.38 134.44,326.2 155.26,326.2 155.26,274.15 92.81,274.15 92.81,326.2 
				113.63,326.2 113.63,284.56 124.04,284.56 			"/>
			<rect x="92.81" y="263.75" class="st19" width="62.45" height="10.41"/>
			<rect x="134.44" y="253.34" class="st20" width="20.82" height="10.41"/>
			<rect x="92.81" y="253.34" class="st20" width="31.23" height="10.41"/>
			<rect x="92.81" y="242.93" class="st21" width="31.23" height="10.41"/>
			<rect x="134.44" y="242.93" class="st21" width="20.82" height="10.41"/>
			<rect x="134.44" y="232.52" class="st22" width="20.82" height="10.41"/>
			<rect x="92.81" y="232.52" class="st22" width="20.82" height="10.41"/>
			<rect x="134.44" y="222.11" class="st23" width="20.82" height="10.41"/>
			<rect x="92.81" y="222.11" class="st23" width="20.82" height="10.41"/>
		</g>
		<g>
			<polygon class="st16" points="15.61,352.22 15.61,347.01 10.41,347.01 10.41,341.81 5.2,341.81 5.2,336.61 0,336.61 0,227.32 
				5.2,227.32 5.2,222.11 10.41,222.11 10.41,216.91 15.61,216.91 15.61,211.7 67.66,211.7 67.66,216.91 72.86,216.91 72.86,222.11 
				78.06,222.11 78.06,227.32 83.27,227.32 83.27,336.61 78.06,336.61 78.06,341.81 72.86,341.81 72.86,347.01 67.66,347.01 
				67.66,352.22 			"/>
			<path class="st17" d="M72.86,232.52v-5.2h-5.2v-5.2h-5.2v-5.2H20.82v5.2h-5.2v5.2h-5.2v5.2H5.2v98.88h5.2v5.2h5.2v5.2h5.2v5.2
				h41.63v-5.2h5.2v-5.2h5.2v-5.2h5.2v-98.88H72.86z M46.84,300.18H36.43v-36.43h10.41V300.18z"/>
			<polygon class="st18" points="62.45,326.2 62.45,315.79 72.86,315.79 72.86,274.15 52.04,274.15 52.04,305.38 31.23,305.38 
				31.23,274.15 10.41,274.15 10.41,315.79 20.82,315.79 20.82,326.2 			"/>
			<rect x="10.41" y="263.75" class="st19" width="20.82" height="10.41"/>
			<rect x="52.04" y="263.75" class="st19" width="20.82" height="10.41"/>
			<rect x="52.04" y="253.34" class="st20" width="20.82" height="10.41"/>
			<rect x="10.41" y="253.34" class="st20" width="20.82" height="10.41"/>
			<rect x="52.04" y="242.93" class="st21" width="20.82" height="10.41"/>
			<rect x="10.41" y="242.93" class="st21" width="20.82" height="10.41"/>
			<rect x="10.41" y="232.52" class="st22" width="62.45" height="10.41"/>
			<rect x="20.82" y="222.11" class="st23" width="41.63" height="10.41"/>
		</g>
	</g>
	<g>
		<polygon class="st16" points="605.66,205.49 605.66,197.88 590.44,197.88 590.44,205.49 544.78,205.49 544.78,197.88 
			537.17,197.88 537.17,7.61 544.78,7.61 544.78,0 636.11,0 636.11,7.61 643.72,7.61 643.72,15.22 651.33,15.22 651.33,22.83 
			658.94,22.83 658.94,197.88 651.33,197.88 651.33,205.49 		"/>
		<path class="st17" d="M651.33,114.16V30.44h-7.61v-7.61h-7.61v-7.61h-7.61V7.61h-76.11v7.61h-7.61v175.05h7.61v7.61h30.44v-7.61
			h7.61v-30.44h7.61v7.61h7.61v22.83h7.61v7.61h30.44v-7.61h7.61v-68.5h-7.61v-7.61H651.33z M605.66,83.72h-15.22v-7.61h15.22V83.72
			z"/>
		<polygon class="st18" points="582.83,121.77 598.05,121.77 598.05,136.99 613.28,136.99 613.28,167.43 643.72,167.43 
			643.72,121.77 628.5,121.77 628.5,91.33 552.39,91.33 552.39,167.43 582.83,167.43 		"/>
		<rect x="552.39" y="76.11" class="st19" width="30.44" height="15.22"/>
		<rect x="613.28" y="76.11" class="st19" width="30.44" height="15.22"/>
		<rect x="613.28" y="60.89" class="st20" width="30.44" height="15.22"/>
		<rect x="552.39" y="60.89" class="st20" width="30.44" height="15.22"/>
		<rect x="552.39" y="45.66" class="st21" width="30.44" height="15.22"/>
		<rect x="613.28" y="45.66" class="st21" width="30.44" height="15.22"/>
		<rect x="552.39" y="30.44" class="st22" width="91.33" height="15.22"/>
		<rect x="552.39" y="15.22" class="st23" width="76.11" height="15.22"/>
	</g>
	<g>
		<polygon class="st16" points="678.98,205.49 678.98,197.88 671.36,197.88 671.36,190.27 663.75,190.27 663.75,182.66 
			656.14,182.66 656.14,22.83 663.75,22.83 663.75,15.22 671.36,15.22 671.36,7.61 678.98,7.61 678.98,0 755.08,0 755.08,7.61 
			762.69,7.61 762.69,15.22 770.3,15.22 770.3,22.83 777.91,22.83 777.91,182.66 770.3,182.66 770.3,190.27 762.69,190.27 
			762.69,197.88 755.08,197.88 755.08,205.49 		"/>
		<polygon class="st17" points="770.3,83.72 770.3,30.44 762.69,30.44 762.69,22.83 755.08,22.83 755.08,15.22 747.47,15.22 
			747.47,7.61 686.59,7.61 686.59,15.22 678.98,15.22 678.98,22.83 671.36,22.83 671.36,30.44 663.75,30.44 663.75,114.16 
			671.36,114.16 671.36,121.77 663.75,121.77 663.75,175.05 671.36,175.05 671.36,182.66 678.98,182.66 678.98,190.27 
			686.59,190.27 686.59,197.88 747.47,197.88 747.47,190.27 755.08,190.27 755.08,182.66 762.69,182.66 762.69,175.05 770.3,175.05 
			770.3,91.33 762.69,91.33 762.69,83.72 		"/>
		<polygon class="st18" points="686.59,167.43 747.47,167.43 747.47,152.21 762.69,152.21 762.69,91.33 686.59,91.33 686.59,106.55 
			732.25,106.55 732.25,136.99 701.81,136.99 701.81,121.77 671.36,121.77 671.36,152.21 686.59,152.21 		"/>
		<rect x="671.36" y="76.11" class="st19" width="76.11" height="15.22"/>
		<rect x="671.36" y="60.89" class="st20" width="30.44" height="15.22"/>
		<rect x="732.25" y="45.66" class="st21" width="30.44" height="15.22"/>
		<rect x="671.36" y="45.66" class="st21" width="30.44" height="15.22"/>
		<rect x="671.36" y="30.44" class="st22" width="91.33" height="15.22"/>
		<rect x="686.59" y="15.22" class="st23" width="60.89" height="15.22"/>
	</g>
	<g>
		<g>
			<polygon class="st16" points="373.84,352.22 373.84,347.01 368.64,347.01 368.64,216.91 373.84,216.91 373.84,211.7 446.7,211.7 
				446.7,216.91 451.91,216.91 451.91,263.75 446.7,263.75 446.7,268.95 441.5,268.95 441.5,294.97 446.7,294.97 446.7,300.18 
				451.91,300.18 451.91,347.01 446.7,347.01 446.7,352.22 			"/>
			<polygon class="st17" points="441.5,263.75 441.5,258.54 446.7,258.54 446.7,222.11 441.5,222.11 441.5,216.91 379.05,216.91 
				379.05,222.11 373.84,222.11 373.84,341.81 379.05,341.81 379.05,347.01 441.5,347.01 441.5,341.81 446.7,341.81 446.7,305.38 
				441.5,305.38 441.5,300.18 436.29,300.18 436.29,263.75 			"/>
			<polygon class="st18" points="441.5,305.38 399.86,305.38 399.86,284.56 431.09,284.56 431.09,274.15 379.05,274.15 
				379.05,326.2 441.5,326.2 			"/>
			<rect x="379.05" y="263.75" class="st19" width="52.04" height="10.41"/>
			<rect x="379.05" y="253.34" class="st20" width="20.82" height="10.41"/>
			<rect x="379.05" y="242.93" class="st21" width="20.82" height="10.41"/>
			<rect x="379.05" y="232.52" class="st22" width="62.45" height="10.41"/>
			<rect x="379.05" y="222.11" class="st23" width="62.45" height="10.41"/>
		</g>
		<g>
			<polygon class="st16" points="333.08,352.22 333.08,347.01 322.67,347.01 322.67,352.22 291.44,352.22 291.44,347.01 
				286.24,347.01 286.24,216.91 291.44,216.91 291.44,211.7 322.67,211.7 322.67,216.91 333.08,216.91 333.08,211.7 364.3,211.7 
				364.3,216.91 369.51,216.91 369.51,347.01 364.3,347.01 364.3,352.22 			"/>
			<polygon class="st17" points="291.44,222.11 296.65,222.11 296.65,216.91 317.46,216.91 317.46,222.11 322.67,222.11 
				322.67,258.54 333.08,258.54 333.08,222.11 338.28,222.11 338.28,216.91 359.1,216.91 359.1,222.11 364.3,222.11 364.3,341.81 
				359.1,341.81 359.1,347.01 338.28,347.01 338.28,341.81 333.08,341.81 333.08,305.38 322.67,305.38 322.67,341.81 317.46,341.81 
				317.46,347.01 296.65,347.01 296.65,341.81 291.44,341.81 			"/>
			<polygon class="st18" points="317.46,284.56 338.28,284.56 338.28,326.2 359.1,326.2 359.1,274.15 296.65,274.15 296.65,326.2 
				317.46,326.2 			"/>
			<rect x="296.65" y="263.75" class="st19" width="62.45" height="10.41"/>
			<rect x="296.65" y="253.34" class="st20" width="20.82" height="10.41"/>
			<rect x="338.28" y="253.34" class="st20" width="20.82" height="10.41"/>
			<rect x="338.28" y="242.93" class="st21" width="20.82" height="10.41"/>
			<rect x="296.65" y="242.93" class="st21" width="20.82" height="10.41"/>
			<rect x="338.28" y="232.52" class="st22" width="20.82" height="10.41"/>
			<rect x="296.65" y="232.52" class="st22" width="20.82" height="10.41"/>
			<rect x="296.65" y="222.11" class="st23" width="20.82" height="10.41"/>
			<rect x="338.28" y="222.11" class="st23" width="20.82" height="10.41"/>
		</g>
		<g>
			<polygon class="st16" points="229.86,352.22 229.86,347.01 224.65,347.01 224.65,268.95 209.04,268.95 209.04,263.75 
				203.84,263.75 203.84,216.91 209.04,216.91 209.04,211.7 281.9,211.7 281.9,216.91 287.1,216.91 287.1,263.75 281.9,263.75 
				281.9,268.95 266.29,268.95 266.29,347.01 261.08,347.01 261.08,352.22 			"/>
			<polygon class="st17" points="281.9,222.11 276.7,222.11 276.7,216.91 214.24,216.91 214.24,222.11 209.04,222.11 209.04,258.54 
				214.24,258.54 214.24,263.75 229.86,263.75 229.86,341.81 235.06,341.81 235.06,347.01 255.88,347.01 255.88,341.81 
				261.08,341.81 261.08,263.75 276.7,263.75 276.7,258.54 281.9,258.54 			"/>
			<rect x="235.06" y="274.15" class="st18" width="20.82" height="52.04"/>
			<rect x="235.06" y="263.75" class="st19" width="20.82" height="10.41"/>
			<rect x="235.06" y="253.34" class="st20" width="20.82" height="10.41"/>
			<rect x="235.06" y="242.93" class="st21" width="20.82" height="10.41"/>
			<rect x="214.24" y="232.52" class="st22" width="62.45" height="10.41"/>
			<rect x="214.24" y="222.11" class="st23" width="62.45" height="10.41"/>
		</g>
	</g>
	<g>
		<g>
			<polygon class="st16" points="659.2,352.22 659.2,347.01 648.79,347.01 648.79,352.22 617.57,352.22 617.57,347.01 
				612.36,347.01 612.36,227.32 617.57,227.32 617.57,222.11 622.77,222.11 622.77,216.91 627.98,216.91 627.98,211.7 680.02,211.7 
				680.02,216.91 685.22,216.91 685.22,222.11 690.43,222.11 690.43,227.32 695.63,227.32 695.63,347.01 690.43,347.01 
				690.43,352.22 			"/>
			<path class="st17" d="M685.22,232.52v-5.2h-5.2v-5.2h-5.2v-5.2h-41.63v5.2h-5.2v5.2h-5.2v5.2h-5.2v109.29h5.2v5.2h20.82v-5.2h5.2
				v-26.02h10.41v26.02h5.2v5.2h20.82v-5.2h5.2V232.52H685.22z M659.2,268.95h-10.41v-5.2h10.41V268.95z"/>
			<polygon class="st18" points="643.59,294.97 664.41,294.97 664.41,326.2 685.22,326.2 685.22,274.15 622.77,274.15 622.77,326.2 
				643.59,326.2 			"/>
			<rect x="664.41" y="263.75" class="st19" width="20.82" height="10.41"/>
			<rect x="622.77" y="263.75" class="st19" width="20.82" height="10.41"/>
			<rect x="664.41" y="253.34" class="st20" width="20.82" height="10.41"/>
			<rect x="622.77" y="253.34" class="st20" width="20.82" height="10.41"/>
			<rect x="622.77" y="242.93" class="st21" width="20.82" height="10.41"/>
			<rect x="664.41" y="242.93" class="st21" width="20.82" height="10.41"/>
			<rect x="622.77" y="232.52" class="st22" width="62.45" height="10.41"/>
			<rect x="633.18" y="222.11" class="st23" width="41.63" height="10.41"/>
		</g>
		<g>
			<polygon class="st16" points="577.68,352.22 577.68,347.01 567.27,347.01 567.27,352.22 536.04,352.22 536.04,347.01 
				525.63,347.01 525.63,352.22 494.41,352.22 494.41,347.01 489.2,347.01 489.2,216.91 494.41,216.91 494.41,211.7 525.63,211.7 
				525.63,216.91 530.84,216.91 530.84,232.52 536.04,232.52 536.04,237.72 541.25,237.72 541.25,253.34 546.45,253.34 
				546.45,258.54 556.86,258.54 556.86,253.34 562.07,253.34 562.07,237.72 567.27,237.72 567.27,232.52 572.47,232.52 
				572.47,216.91 577.68,216.91 577.68,211.7 608.9,211.7 608.9,216.91 614.11,216.91 614.11,347.01 608.9,347.01 608.9,352.22 			
				"/>
			<polygon class="st17" points="499.61,347.01 499.61,341.81 494.41,341.81 494.41,222.11 499.61,222.11 499.61,216.91 
				520.43,216.91 520.43,222.11 525.63,222.11 525.63,237.72 530.84,237.72 530.84,242.93 536.04,242.93 536.04,258.54 
				541.25,258.54 541.25,263.75 546.45,263.75 546.45,279.36 556.86,279.36 556.86,263.75 562.07,263.75 562.07,258.54 
				567.27,258.54 567.27,242.93 572.47,242.93 572.47,237.72 577.68,237.72 577.68,222.11 582.88,222.11 582.88,216.91 
				603.7,216.91 603.7,222.11 608.9,222.11 608.9,341.81 603.7,341.81 603.7,347.01 582.88,347.01 582.88,341.81 577.68,341.81 
				577.68,320.99 572.47,320.99 572.47,326.2 567.27,326.2 567.27,341.81 562.07,341.81 562.07,347.01 541.25,347.01 541.25,341.81 
				536.04,341.81 536.04,326.2 530.84,326.2 530.84,320.99 525.63,320.99 525.63,341.81 520.43,341.81 520.43,347.01 			"/>
			<polygon class="st18" points="541.25,274.15 499.61,274.15 499.61,326.2 520.43,326.2 520.43,284.56 530.84,284.56 
				530.84,305.38 541.25,305.38 541.25,326.2 562.07,326.2 562.07,305.38 572.47,305.38 572.47,284.56 582.88,284.56 582.88,326.2 
				603.7,326.2 603.7,274.15 562.07,274.15 562.07,284.56 541.25,284.56 			"/>
			<rect x="499.61" y="263.75" class="st19" width="41.63" height="10.41"/>
			<rect x="562.07" y="263.75" class="st19" width="41.63" height="10.41"/>
			<rect x="499.61" y="253.34" class="st20" width="31.23" height="10.41"/>
			<rect x="572.47" y="253.34" class="st20" width="31.23" height="10.41"/>
			<rect x="499.61" y="242.93" class="st21" width="31.23" height="10.41"/>
			<rect x="572.47" y="242.93" class="st21" width="31.23" height="10.41"/>
			<rect x="582.88" y="232.52" class="st22" width="20.82" height="10.41"/>
			<rect x="499.61" y="232.52" class="st22" width="20.82" height="10.41"/>
			<rect x="582.88" y="222.11" class="st23" width="20.82" height="10.41"/>
			<rect x="499.61" y="222.11" class="st23" width="20.82" height="10.41"/>
		</g>
		<g>
			<polygon class="st16" points="719.04,352.22 719.04,347.01 713.83,347.01 713.83,268.95 698.22,268.95 698.22,263.75 
				693.02,263.75 693.02,216.91 698.22,216.91 698.22,211.7 771.08,211.7 771.08,216.91 776.29,216.91 776.29,263.75 771.08,263.75 
				771.08,268.95 755.47,268.95 755.47,347.01 750.27,347.01 750.27,352.22 			"/>
			<polygon class="st17" points="771.08,222.11 765.88,222.11 765.88,216.91 703.43,216.91 703.43,222.11 698.22,222.11 
				698.22,258.54 703.43,258.54 703.43,263.75 719.04,263.75 719.04,341.81 724.24,341.81 724.24,347.01 745.06,347.01 
				745.06,341.81 750.27,341.81 750.27,263.75 765.88,263.75 765.88,258.54 771.08,258.54 			"/>
			<rect x="724.24" y="274.15" class="st18" width="20.82" height="52.04"/>
			<rect x="724.24" y="263.75" class="st19" width="20.82" height="10.41"/>
			<rect x="724.24" y="253.34" class="st20" width="20.82" height="10.41"/>
			<rect x="724.24" y="242.93" class="st21" width="20.82" height="10.41"/>
			<rect x="703.43" y="232.52" class="st22" width="62.45" height="10.41"/>
			<rect x="703.43" y="222.11" class="st23" width="62.45" height="10.41"/>
		</g>
	</g>
</g>
</svg>
