<?xml version="1.0" encoding="utf-8"?>
<!-- Generator: Adobe Illustrator 27.5.0, SVG Export Plug-In . SVG Version: 6.00 Build 0)  -->
<svg version="1.1" id="Calque_1" xmlns="http://www.w3.org/2000/svg" xmlns:xlink="http://www.w3.org/1999/xlink" x="0px" y="0px"
	 viewBox="0 0 281.8 89.5" style="enable-background:new 0 0 281.8 89.5;" xml:space="preserve">
<style type="text/css">
	.st0{fill:#119D3C;}
	.st1{display:none;fill:#FFFFFF;}
	.st2{fill-rule:evenodd;clip-rule:evenodd;fill:#FFFFFF;}
	.st3{display:none;fill-rule:evenodd;clip-rule:evenodd;fill:#FFFFFF;}
	.st4{fill:#FFFFFF;}
</style>
<g>
	<g>
		<g>
			<path class="st0" d="M10.8,89.4v-8.7l-2.9,5.7h-2L3,80.7v8.7H0V74.5h2.9l4,8.1l4-8.1h2.9v14.9H10.8z"/>
			<path class="st0" d="M17.3,89.4V74.5h3v14.9H17.3z"/>
			<path class="st0" d="M29,89.5c-1.6,0-3-0.5-4.1-1.6c-0.7-0.6-1.1-1.4-1.2-2.2c-0.2-0.8-0.3-2.1-0.3-3.7s0.1-2.9,0.3-3.7
				c0.2-0.9,0.6-1.6,1.2-2.2c1.1-1.1,2.5-1.6,4.1-1.6c2.9,0,5.1,1.7,5.6,4.7h-3c-0.3-1.3-1.1-2.1-2.6-2.1c-0.8,0-1.5,0.3-1.9,0.8
				c-0.6,0.6-0.7,1.3-0.7,4.2c0,2.9,0.1,3.6,0.7,4.2c0.4,0.5,1.1,0.8,1.9,0.8c1.4,0,2.2-0.8,2.6-2.1h3C34,87.8,31.9,89.5,29,89.5z"
				/>
			<path class="st0" d="M45.2,89.4l-3-6h-2.1v6h-3V74.5h6c3.1,0,4.9,2.1,4.9,4.6c0,2.1-1.3,3.4-2.8,3.9l3.4,6.4H45.2z M42.9,77.1
				h-2.8V81h2.8c1.3,0,2.2-0.8,2.2-2C45.1,77.9,44.2,77.1,42.9,77.1z"/>
			<path class="st0" d="M60.3,87.9c-1.1,1-2.4,1.6-4.1,1.6c-1.7,0-3.1-0.6-4.1-1.6c-1.5-1.5-1.5-3.4-1.5-6s0-4.4,1.5-6
				c1.1-1,2.4-1.6,4.1-1.6c1.7,0,3,0.6,4.1,1.6c1.5,1.5,1.5,3.4,1.5,6S61.9,86.4,60.3,87.9z M58.1,77.7c-0.4-0.5-1.1-0.8-1.9-0.8
				c-0.8,0-1.5,0.3-1.9,0.8c-0.6,0.6-0.7,1.3-0.7,4.2c0,2.9,0.1,3.6,0.7,4.2c0.4,0.5,1.1,0.8,1.9,0.8c0.8,0,1.5-0.3,1.9-0.8
				c0.6-0.6,0.7-1.3,0.7-4.2C58.9,79,58.7,78.4,58.1,77.7z"/>
			<path class="st0" d="M64.9,89.4V74.5h3v14.9H64.9z"/>
			<path class="st0" d="M80.9,88c-1,1-2.4,1.4-4,1.4h-5.5V74.5h5.5c1.6,0,3,0.4,4,1.4c1.7,1.7,1.5,3.7,1.5,6S82.6,86.3,80.9,88z
				 M78.8,78c-0.5-0.6-1.2-0.9-2.2-0.9h-2.2v9.7h2.2c1,0,1.7-0.3,2.2-0.9c0.6-0.7,0.6-1.7,0.6-4S79.4,78.6,78.8,78z"/>
			<path class="st0" d="M89.7,89.5c-2.3,0-4.1-0.5-5.6-2l1.9-1.9c1,0.9,2.3,1.3,3.7,1.3c1.8,0,2.7-0.6,2.7-1.8c0-0.5-0.1-1-0.5-1.3
				c-0.3-0.3-0.6-0.4-1.3-0.5L88.8,83c-1.3-0.2-2.3-0.6-3-1.2c-0.7-0.7-1.1-1.7-1.1-2.9c0-2.7,2-4.5,5.3-4.5c2.1,0,3.6,0.5,4.9,1.7
				l-1.9,1.8c-1-0.9-2.1-1-3.1-1c-1.6,0-2.4,0.9-2.4,1.9c0,0.4,0.1,0.8,0.4,1.1c0.3,0.3,0.8,0.5,1.4,0.6l1.8,0.3
				c1.4,0.2,2.3,0.6,2.9,1.2c0.8,0.8,1.2,1.8,1.2,3.2C95.3,87.9,92.9,89.5,89.7,89.5z"/>
		</g>
	</g>
	<path class="st0" d="M61.5,0L21.1,0c-3.4,0-6.2,2.8-6.2,6.2v40.4c0,10.4,8.5,18.9,18.9,18.9h40.4c3.4,0,6.2-2.8,6.2-6.2V18.9
		C80.4,8.5,72,0,61.5,0z M56.6,50.2c0,0.2-0.2,0.3-0.4,0.3c-1.6-0.2-3.4-0.4-5.3-0.5c-0.2,0-0.3-0.2-0.3-0.3V21.3
		c0-0.2,0.2-0.3,0.3-0.3c1.8,0.1,3.6,0.2,5.3,0.5c0.2,0,0.3,0.2,0.3,0.3V50.2z M68.1,53.2c-0.8-0.3-2.6-0.8-5.3-1.4
		c-0.1,0-0.3-0.2-0.3-0.3V16.8c0-0.2-0.1-0.3-0.3-0.3c-4.8-1.1-9.7-1.6-14.8-1.6c-4.9,0-9.8,0.6-14.5,1.6c-0.2,0-0.3,0.2-0.3,0.3
		v28.5c0,0.2,0.2,0.4,0.4,0.3c1.7-0.4,3.5-0.7,5.3-0.9c0.2,0,0.3-0.2,0.3-0.3V21.7c0-0.2,0.1-0.3,0.3-0.3c1.8-0.2,3.5-0.4,5.3-0.5
		c0.2,0,0.3,0.1,0.3,0.3v28.5c0,0.2-0.1,0.3-0.3,0.3C36,50.5,29,52.6,27.2,53.2c-0.2,0.1-0.4-0.1-0.4-0.3V12.4
		c0-0.1,0.1-0.3,0.2-0.3c6.4-2,13.3-3.2,20.5-3.2c0.1,0,0.2,0,0.3,0.1l4.9,5.8c0.1,0.1,0.3,0.2,0.5,0l5.7-4.9
		c0.1-0.1,0.2-0.1,0.3-0.1c3.2,0.5,6.2,1.3,9.2,2.2c0.1,0,0.2,0.2,0.2,0.3l0,40.4C68.5,53.1,68.3,53.2,68.1,53.2z"/>
</g>
<g>
	<g>
		<g id="Logo.psd_00000002371704130812235840000008723387337817793464_">
			<g>
				<path class="st1" d="M236.4,45.5c0.1-10,0.2-20.1,0.3-30.1c11.8,0.1,23.6,0.3,35.4,0.4c-0.1,10-0.2,20.1-0.3,30.1
					C259.9,45.7,248.1,45.6,236.4,45.5z M250.6,41.4C250.6,41.4,250.6,41.4,250.6,41.4c0.1-0.2,0.2-0.3,0.3-0.4
					c1.1-1.2,2.3-2.2,3.6-3.1c1.9-1.2,3.9-2.1,6.2-2.4c1.4-0.2,2.7-0.1,4,0.2c1.1,0.2,2.2,0.5,3.3,0.3c1.1-0.2,2.1-0.6,2.8-1.6
					c0.8-1.1,0.9-2.4,0.8-3.7c-0.2-1.6-0.8-3.1-1.9-4.4c-1.8-2.2-4.3-3-7.1-2.2c-1.5,0.4-2.8,1.2-4,2.2c-1.5,1.2-2.7,2.8-3.8,4.4
					c-1.1,1.7-2,3.5-2.8,5.4c-0.8,1.8-1.4,3.7-1.9,5.6c0,0.1,0,0.2,0,0.3c0,0,0.2,0,0.2,0c1.6-0.5,3.2-0.6,4.8-0.3
					c1.7,0.3,3.1,1,4.3,2.3c0.3,0.3,0.5,0.5,0.8,0.8c1.4,1.1,2.9,0.8,3.9-0.6c0.5-0.7,0.7-1.5,0.8-2.4c0-1.6-0.5-2.9-1.9-3.8
					c-0.8-0.5-1.6-0.7-2.5-0.7c-1.4-0.1-2.7,0.3-4,0.8c-2,0.8-3.8,1.9-5.4,3.2C250.9,41.2,250.7,41.3,250.6,41.4z M249.3,40.5
					C249.4,40.5,249.4,40.5,249.3,40.5c0.2-0.1,0.2-0.2,0.3-0.3c1.3-2.4,2.4-5,3.2-7.6c0.8-2.4,1.3-4.9,1.3-7.5
					c0-1.9-0.3-3.8-1.2-5.5c-0.9-1.7-2.1-3-4-3.6c-0.7-0.2-1.5-0.4-2.2-0.4c-0.8,0-1.6,0.2-2.3,0.4c-1.8,0.5-3.3,1.5-4.3,3.1
					c-0.9,1.4-0.9,3,0.1,4.4c0.6,0.8,1.3,1.4,2.1,1.9c1.6,0.9,2.9,2,4,3.5c1.4,1.8,2.2,3.8,2.6,6c0.4,1.8,0.5,3.6,0.3,5.4
					C249.3,40.4,249.3,40.4,249.3,40.5z M247.6,39.5C247.6,39.5,247.7,39.5,247.6,39.5c0-0.3-0.1-0.5-0.2-0.7
					c-0.8-1.9-1.7-3.6-3.1-5.1c-0.9-1-1.9-1.8-3.1-2.1c-0.9-0.3-1.8-0.2-2.6,0.2c-1.3,0.8-2.1,2.6-1.8,4.1c0.2,0.9,1,1.6,1.9,1.5
					c0.5,0,0.9-0.1,1.4-0.3c1.1-0.4,2.3-0.4,3.5-0.1c1.5,0.4,2.7,1.2,3.8,2.2C247.4,39.4,247.5,39.4,247.6,39.5z"/>
				<path class="st2" d="M250.6,41.4c0.1-0.1,0.2-0.2,0.4-0.2c1.7-1.3,3.4-2.5,5.4-3.2c1.3-0.5,2.6-0.8,4-0.8c0.9,0,1.8,0.2,2.5,0.7
					c1.4,0.9,1.9,2.2,1.9,3.8c0,0.9-0.3,1.7-0.8,2.4c-1,1.5-2.5,1.7-3.9,0.6c-0.3-0.2-0.6-0.5-0.8-0.8c-1.1-1.3-2.6-2-4.3-2.3
					c-1.6-0.3-3.3-0.1-4.8,0.3c-0.1,0-0.2,0-0.2,0c0-0.1,0-0.2,0-0.3c0.5-1.9,1.2-3.8,1.9-5.6c0.8-1.9,1.7-3.7,2.8-5.4
					c1.1-1.6,2.3-3.1,3.8-4.4c1.2-1,2.5-1.8,4-2.2c2.8-0.8,5.3,0.1,7.1,2.2c1.1,1.3,1.7,2.7,1.9,4.4c0.2,1.3,0,2.6-0.8,3.7
					c-0.7,1-1.6,1.4-2.8,1.6c-1.1,0.2-2.2-0.1-3.3-0.3c-1.3-0.3-2.7-0.3-4-0.2c-2.3,0.3-4.3,1.2-6.2,2.4c-1.3,0.9-2.5,1.9-3.6,3.1
					C250.8,41.1,250.7,41.2,250.6,41.4C250.6,41.4,250.6,41.4,250.6,41.4z M255.8,31C255.9,31,255.9,31.1,255.8,31
					c0.1,0,0.1,0,0.2,0c0.6-0.5,1.2-1,1.9-1.4c1.4-1,3-1.5,4.7-1.7c1-0.1,1.9,0.1,2.9,0.3c0.7,0.1,1.5,0.2,2.2,0
					c0.6-0.2,0.9-0.6,0.7-1.2c0-0.2-0.1-0.3-0.2-0.5c-0.4-0.6-1.1-1-1.8-1.3c-1.1-0.4-2.2-0.4-3.4-0.1c-1.1,0.3-2.1,0.9-3,1.6
					c-1.5,1.2-2.8,2.6-4,4.1C255.9,30.8,255.9,30.9,255.8,31z M255.3,39.5C255.3,39.5,255.3,39.5,255.3,39.5c0.2,0.1,0.3,0,0.4,0
					c1.1-0.3,2.1-0.3,3.2-0.1c1,0.2,1.9,0.7,2.7,1.3c0.4,0.3,0.7,0.5,1.2,0.6c0.4,0,0.8-0.3,0.7-0.8c-0.2-0.9-0.7-1.5-1.5-1.9
					c-1.2-0.6-2.4-0.5-3.6-0.2c-0.8,0.2-1.5,0.5-2.3,0.8C255.9,39.2,255.6,39.3,255.3,39.5z"/>
				<path class="st2" d="M249.3,40.5c0-0.1,0-0.1,0-0.2c0.2-1.8,0-3.6-0.3-5.4c-0.4-2.2-1.2-4.2-2.6-6c-1.1-1.5-2.4-2.5-4-3.5
					c-0.8-0.5-1.6-1.1-2.1-1.9c-0.9-1.4-1-2.9-0.1-4.4c1-1.6,2.5-2.6,4.3-3.1c0.7-0.2,1.5-0.4,2.3-0.4c0.7,0,1.5,0.2,2.2,0.4
					c1.9,0.6,3.1,1.9,4,3.6c0.9,1.7,1.2,3.6,1.2,5.5c0,2.6-0.5,5-1.3,7.5c-0.8,2.6-1.9,5.2-3.2,7.6
					C249.6,40.3,249.5,40.4,249.3,40.5C249.4,40.5,249.4,40.5,249.3,40.5z M252.8,27.9C252.8,27.9,252.8,27.9,252.8,27.9
					c0.1-0.1,0.1-0.2,0.1-0.3c0.1-2.3-0.1-4.6-0.8-6.8c-0.4-1.3-1.1-2.5-2.2-3.3c-1.1-0.8-2.3-1.2-3.6-0.9c-1,0.2-1.3,1.1-0.6,1.8
					c0,0,0,0,0,0c0.5,0.4,0.9,0.8,1.4,1.1c0.9,0.5,1.8,1,2.5,1.8c1.6,1.6,2.5,3.6,3,5.8C252.7,27.4,252.8,27.6,252.8,27.9z"/>
				<path class="st2" d="M247.6,39.5c-0.1-0.1-0.2-0.1-0.2-0.2c-1.1-1.1-2.3-1.8-3.8-2.2c-1.2-0.3-2.3-0.3-3.5,0.1
					c-0.4,0.1-0.9,0.2-1.4,0.3c-0.9,0-1.7-0.6-1.9-1.5c-0.3-1.5,0.4-3.3,1.8-4.1c0.8-0.5,1.7-0.5,2.6-0.2c1.3,0.4,2.3,1.2,3.1,2.1
					c1.4,1.5,2.3,3.2,3.1,5.1C247.5,39,247.6,39.2,247.6,39.5C247.7,39.5,247.6,39.5,247.6,39.5z M244.5,35.5
					C244.5,35.5,244.5,35.5,244.5,35.5c0-0.1,0-0.2-0.1-0.3c-0.3-0.4-0.6-0.7-0.9-1c-0.7-0.7-1.4-1.3-2.4-1.6
					c-1-0.3-1.9-0.2-2.6,0.6c-0.3,0.3-0.2,0.7,0.3,0.9c0.2,0,0.4,0.1,0.5,0c0.8-0.1,0.8-0.1,1.3-0.2c1.2-0.1,2.3,0.4,3.3,1.1
					C244.1,35.2,244.3,35.4,244.5,35.5z"/>
				<path class="st3" d="M255.8,31c0.1-0.1,0.1-0.2,0.2-0.2c1.2-1.5,2.5-2.9,4-4.1c0.9-0.7,1.9-1.3,3-1.6c1.1-0.3,2.3-0.3,3.4,0.1
					c0.7,0.3,1.3,0.7,1.8,1.3c0.1,0.2,0.2,0.3,0.2,0.5c0.2,0.6-0.1,1-0.7,1.2c-0.7,0.2-1.5,0.1-2.2,0c-1-0.2-1.9-0.3-2.9-0.3
					c-1.7,0.2-3.3,0.7-4.7,1.7c-0.6,0.4-1.3,0.9-1.9,1.4C256,31,255.9,31,255.8,31C255.9,31.1,255.9,31,255.8,31z"/>
				<path class="st3" d="M255.3,39.5c0.3-0.1,0.6-0.3,0.8-0.4c0.8-0.3,1.5-0.6,2.3-0.8c1.2-0.3,2.5-0.4,3.6,0.2
					c0.8,0.4,1.3,1.1,1.5,1.9c0.1,0.4-0.3,0.8-0.7,0.8c-0.5-0.1-0.9-0.3-1.2-0.6c-0.8-0.6-1.7-1.1-2.7-1.3c-1.1-0.2-2.2-0.1-3.2,0.1
					C255.6,39.5,255.5,39.5,255.3,39.5C255.3,39.5,255.3,39.5,255.3,39.5z"/>
				<path class="st3" d="M252.8,27.9c0-0.2-0.1-0.5-0.2-0.8c-0.5-2.2-1.4-4.2-3-5.8c-0.7-0.7-1.6-1.2-2.5-1.8
					c-0.5-0.3-1-0.7-1.4-1.1c0,0,0,0,0,0c-0.7-0.8-0.5-1.6,0.6-1.8c1.4-0.3,2.6,0.1,3.6,0.9c1.1,0.8,1.8,2,2.2,3.3
					c0.8,2.2,0.9,4.5,0.8,6.8C252.9,27.7,252.9,27.8,252.8,27.9C252.8,27.9,252.8,27.9,252.8,27.9z"/>
				<path class="st3" d="M244.2,35.1c-0.2-0.2-0.4-0.3-0.6-0.5c-1-0.7-2-1.1-3.3-1.1c-0.5,0-0.9,0.1-1.3,0.2c-0.2,0-0.4,0-0.5,0
					c-0.4-0.1-0.6-0.5-0.3-0.9c0.7-0.8,1.6-0.9,2.6-0.6c1,0.3,1.7,0.9,2.4,1.6c0.3,0.3,0.6,0.7,0.9,1
					C244.2,34.9,244.2,34.9,244.2,35.1C244.3,35,244.3,35,244.2,35.1z"/>
			</g>
		</g>
		<path class="st4" d="M254.1,51.4c0,0-0.1,0-0.1,0c-5.6-0.1-10.8-2.3-14.6-6.2c-3.9-4-6-9.2-5.9-14.8c0-5.5,2.3-10.7,6.2-14.6
			c3.9-3.9,9.1-6,14.6-5.9c0,0,0.1,0,0.1,0c5.6,0.1,10.8,2.3,14.6,6.2c3.9,4,6,9.2,5.9,14.8l0,0c0,5.5-2.3,10.7-6.2,14.6
			C264.8,49.3,259.6,51.4,254.1,51.4z M254.3,11.2c-5.1,0-10,1.9-13.7,5.5c-3.7,3.6-5.8,8.5-5.8,13.6c-0.1,5.2,1.9,10.1,5.5,13.8
			c3.6,3.7,8.5,5.8,13.7,5.8c0,0,0.1,0,0.1,0c5.1,0,10-1.9,13.7-5.5c3.7-3.6,5.8-8.5,5.8-13.6l0,0c0.1-5.2-1.9-10.1-5.5-13.8
			c-3.6-3.7-8.5-5.8-13.7-5.8C254.4,11.2,254.3,11.2,254.3,11.2z"/>
	</g>
	<g>
		<path class="st4" d="M122,49.6c-1.1,0.5-2.2,0.9-3.4,1c-1.2,0.1-2.2,0.2-3.1,0.2c-1.8,0-3.4-0.5-4.7-1.5c-1.3-1-2-2.6-2-4.9
			c0-2.1,0.6-3.6,1.9-4.5c1.2-0.9,2.8-1.5,4.7-1.8c0.3,0,0.6,0,0.9-0.1c0.4-0.1,0.8-0.1,1.2-0.2c2.2-0.3,3.3-0.9,3.3-1.9
			c0-0.8-0.4-1.2-1.2-1.5c-0.8-0.2-1.5-0.3-2.1-0.4c-0.7,0-1.3,0.1-1.9,0.3c-0.6,0.2-1,0.6-1.2,1.1l-5,0c0.2-1.6,0.9-2.8,2.1-3.8
			c1.4-1.1,3.3-1.7,5.8-1.7c2.8,0,4.9,0.5,6.3,1.5c1.4,1,2.2,2.4,2.2,4.2l0,6.9c0,2-0.4,3.6-1.1,4.7C123.9,48.3,123,49.1,122,49.6z
			 M120.9,40.3c-0.7,0.3-1.7,0.7-2.9,1l-1.7,0.4c-0.9,0.2-1.6,0.6-2,1c-0.4,0.6-0.5,1.1-0.5,1.7c0,0.8,0.2,1.4,0.7,1.8
			c0.4,0.4,1.1,0.6,2,0.6c1.4,0,2.5-0.4,3.3-1.2c0.8-0.8,1.2-1.9,1.2-3.3L120.9,40.3z"/>
		<path class="st4" d="M135.3,50.5c-1.7,0.1-3.5,0.1-5.4-0.1c-1.9-0.2-2.9-1.4-2.9-3.7l0.1-22.1l2.7,0c0.7,0,1.2,0.3,1.7,0.8
			c0.5,0.5,0.7,1.1,0.7,1.8l0,3.4l3.1,0l0,1.1c0,0.8-0.3,1.4-0.8,1.8c-0.5,0.5-1.1,0.7-1.8,0.7l-0.5,0l-0.1,11.1
			c0,0.9,0.5,1.3,1.5,1.3l1.6,0L135.3,50.5z"/>
		<path class="st4" d="M148.5,36.2c-0.7-1.1-1.8-1.6-3.1-1.6c-1.4,0-2.5,0.5-3.2,1.5c-0.8,1-1.1,2.4-1.2,4.1l-0.1,10.3l-5.1,0
			l0.1-25.9l2.6,0c0.7,0,1.3,0.3,1.8,0.8c0.5,0.5,0.7,1.1,0.7,1.8l0,5.9c0.9-1.5,2.2-2.4,3.9-2.8c1.7-0.4,3.2-0.3,4.7,0.3
			c1.4,0.6,2.6,1.6,3.5,2.9c0.9,1.3,1.4,3.1,1.4,5.4l-0.1,11.7l-5,0l0.1-10.4c0-0.8-0.1-1.4-0.2-2.1
			C149.2,37.5,148.9,36.8,148.5,36.2z"/>
		<path class="st4" d="M155.7,24.7l2.7,0c0.7,0,1.3,0.2,1.8,0.7c0.5,0.5,0.7,1.1,0.7,1.8l-0.1,23.4l-5.3,0L155.7,24.7z"/>
		<path class="st4" d="M175.7,44.5l3.8,0c-0.6,2.1-1.6,3.7-3.2,4.8c-1.6,1.1-3.5,1.7-5.9,1.7c-2.9,0-5.1-1-6.7-2.8
			c-1.6-1.8-2.4-4.4-2.4-7.8c0-3.2,0.8-5.7,2.4-7.5c1.6-1.8,3.9-2.8,6.7-2.7c3,0,5.3,0.9,7,2.7c1.6,1.9,2.4,4.5,2.4,7.8
			c0,0.2,0,0.4,0,0.5c0,0.2,0,0.3,0,0.3c0,0.3,0,0.4-0.1,0.5l-13-0.1c0,1.6,0.4,2.7,1.1,3.5c0.6,0.8,1.6,1.2,2.9,1.2
			c0.9,0,1.6-0.2,2.2-0.5c0.2,0,0.3-0.1,0.4-0.3c0.1-0.1,0.3-0.3,0.4-0.4c0.1-0.1,0.2-0.3,0.6-0.6C174.7,44.6,175.1,44.5,175.7,44.5
			z M166.7,38.6l7.7,0c-0.1-1.4-0.4-2.4-1-3c-0.6-0.7-1.6-1.1-2.8-1.1c-1.1,0-2,0.3-2.7,1C167.2,36.3,166.8,37.3,166.7,38.6z"/>
		<path class="st4" d="M189.5,50.8c-1.7,0.1-3.5,0.1-5.4-0.1c-1.9-0.2-2.9-1.4-2.9-3.7l0.1-22.1l2.7,0c0.7,0,1.2,0.3,1.7,0.8
			c0.5,0.5,0.7,1.1,0.7,1.8l0,3.4l3.1,0l0,1.1c0,0.8-0.3,1.4-0.8,1.8c-0.5,0.5-1.1,0.7-1.8,0.7l-0.5,0l-0.1,11.1
			c0,0.9,0.5,1.3,1.5,1.3l1.6,0L189.5,50.8z"/>
		<path class="st4" d="M203.9,44.7l3.8,0c-0.6,2.1-1.6,3.7-3.2,4.8c-1.6,1.1-3.5,1.7-5.9,1.7c-2.9,0-5.1-1-6.7-2.8
			c-1.6-1.8-2.4-4.4-2.4-7.8c0-3.2,0.8-5.7,2.4-7.5c1.6-1.8,3.9-2.8,6.7-2.7c3,0,5.3,0.9,7,2.7c1.6,1.9,2.4,4.5,2.4,7.8
			c0,0.2,0,0.4,0,0.5c0,0.2,0,0.3,0,0.3c0,0.3,0,0.4-0.1,0.5l-13-0.1c0,1.6,0.4,2.7,1.1,3.5c0.6,0.8,1.6,1.2,2.9,1.2
			c0.9,0,1.6-0.2,2.2-0.5c0.2,0,0.3-0.1,0.4-0.3c0.1-0.1,0.3-0.3,0.4-0.4c0.1-0.1,0.2-0.3,0.6-0.6C202.8,44.8,203.3,44.7,203.9,44.7
			z M194.9,38.8l7.7,0c-0.1-1.4-0.4-2.4-1-3c-0.6-0.7-1.6-1.1-2.8-1.1c-1.1,0-2,0.3-2.7,1C195.3,36.4,195,37.4,194.9,38.8z"/>
		<path class="st4" d="M208.3,44.2l5.1,0c0,1,0.4,1.8,1.1,2.3c0.7,0.5,1.8,0.8,3,0.8c0.9,0,1.7-0.2,2.3-0.5c0.6-0.3,0.9-0.8,0.9-1.4
			c0-0.9-1-1.6-3.2-2.1c-0.9-0.2-1.6-0.3-2-0.5c-2.7-0.7-4.4-1.5-5.3-2.4c-1-0.9-1.5-2.1-1.5-3.6c0-1.9,0.7-3.5,2.2-4.7
			c1.5-1.1,3.5-1.7,5.9-1.7c2.6,0,4.7,0.6,6.2,1.8c1.4,1.3,2.2,2.9,2.3,4.9l-3.2,0c-1,0-1.7-0.4-2.2-1.3c-0.2-0.2-0.4-0.4-0.6-0.6
			c-0.6-0.5-1.4-0.7-2.5-0.7c-1,0-1.8,0.1-2.3,0.4c-0.5,0.3-0.7,0.7-0.7,1.4c0,0.8,1.3,1.5,3.9,2.1c0.3,0.1,0.6,0.2,0.8,0.2
			c0.2,0.1,0.4,0.1,0.6,0.1c2.6,0.7,4.3,1.4,5.3,2.3c0.9,0.9,1.4,2.1,1.4,3.6c0,2.2-0.8,3.9-2.4,5.1c-1.5,1.1-3.8,1.6-6.8,1.6
			c-2.9,0-5-0.6-6.4-1.8c-1.5-1.2-2.2-2.8-2.2-5.1L208.3,44.2z"/>
	</g>
	<g>
		<path class="st4" d="M278.9,55.8c1,0.9,1.8,2.1,2.2,3.7c0.4,1.5,0.7,3.1,0.7,4.8c0,1.4-0.2,2.7-0.6,4.1c-0.4,1.4-1,2.5-1.8,3.4
			c-1.3,1.5-3,2.4-5.1,2.6c-2.1,0.3-3.9,0.1-5.6-0.5c-1.9-0.8-3.3-2.1-4.2-3.9c-0.8-1.7-1.3-3.6-1.2-5.8c0-1.6,0.2-3,0.5-4.1
			c0.4-1.2,0.8-2.1,1.4-2.9c1.2-1.6,2.8-2.7,4.6-3.1c1.7-0.4,3.3-0.5,5-0.1C276.5,54.3,277.9,54.9,278.9,55.8z M275.2,69.1
			c1.1-1.1,1.5-2.9,1.5-5.1c-0.1-2.3-0.5-3.9-1.3-4.8c-0.3-0.4-0.8-0.7-1.6-1c-0.8-0.3-1.5-0.3-2.3-0.1c-0.8,0.2-1.5,0.8-2.1,1.7
			c-0.6,0.9-0.9,2.4-1,4.4c0,1.8,0.3,3.2,0.8,4.1c0.6,0.9,1.2,1.5,2,1.7c0.8,0.3,1.5,0.3,2.3,0C274.3,69.7,274.8,69.4,275.2,69.1z"
			/>
		<path class="st4" d="M245.1,53.8l2.6,0c0.8,0,1.4,0.2,1.8,0.7c0.5,0.5,0.7,1.1,0.7,1.8l-0.1,10.2c0,1.2,0.4,2.1,1.1,2.6
			c0.7,0.6,1.5,0.8,2.4,0.8c0.9,0,1.7-0.3,2.4-0.8c0.7-0.5,1.1-1.4,1.1-2.6l0.1-12.8l5.3,0l-0.1,11.7c0,3.4-0.9,5.7-2.7,6.8
			c-1.8,1.1-3.8,1.8-5.9,1.8c-2.2,0-4.2-0.6-6.1-1.8c-1.9-1.2-2.8-3.5-2.7-7L245.1,53.8z"/>
		<path class="st4" d="M226.7,53.7c1.7-0.1,3.5-0.1,5.4,0.1c1.9,0.2,2.9,1.4,2.9,3.7l-0.1,22.1l-2.7,0c-0.7,0-1.2-0.3-1.7-0.8
			c-0.5-0.5-0.7-1.1-0.7-1.8l0-3.4l-3.1,0l0-1.1c0-0.8,0.3-1.4,0.8-1.8c0.5-0.5,1.1-0.7,1.8-0.7l0.5,0l0.1-11.1
			c0-0.9-0.5-1.3-1.5-1.3l-1.6,0L226.7,53.7z"/>
		<path class="st4" d="M213.6,68c0.7,1.1,1.8,1.6,3.1,1.6c1.4,0,2.5-0.5,3.2-1.5c0.8-1,1.1-2.4,1.2-4.1l0.1-10.3l5.1,0l-0.1,25.9
			l-2.6,0c-0.7,0-1.3-0.3-1.8-0.8c-0.5-0.5-0.7-1.1-0.7-1.8l0-5.9c-0.9,1.5-2.2,2.4-3.9,2.8c-1.7,0.4-3.2,0.3-4.7-0.3
			c-1.4-0.6-2.6-1.6-3.5-2.9c-0.9-1.3-1.4-3.1-1.4-5.4l0.1-11.7l5,0L212.6,64c0,0.8,0.1,1.4,0.2,2.1C212.9,66.7,213.1,67.4,213.6,68
			z"/>
		<path class="st4" d="M192.7,59.7l-3.8,0c0.6-2.1,1.6-3.7,3.2-4.8c1.6-1.1,3.5-1.7,5.9-1.7c2.9,0,5.1,1,6.7,2.8
			c1.6,1.8,2.4,4.4,2.4,7.8c0,3.2-0.8,5.7-2.4,7.5c-1.6,1.8-3.9,2.8-6.7,2.7c-3,0-5.3-0.9-7-2.7c-1.6-1.9-2.4-4.5-2.4-7.8
			c0-0.2,0-0.4,0-0.5c0-0.1,0-0.3,0-0.3c0-0.3,0-0.4,0.1-0.5l13,0.1c0-1.6-0.4-2.7-1.1-3.5c-0.6-0.8-1.6-1.2-2.9-1.2
			c-0.9,0-1.6,0.2-2.2,0.5c-0.2,0-0.3,0.1-0.4,0.3c-0.1,0.1-0.3,0.3-0.4,0.4c-0.1,0.2-0.2,0.3-0.6,0.6
			C193.8,59.6,193.3,59.7,192.7,59.7z M201.7,65.6l-7.7,0c0.1,1.4,0.4,2.4,1,3c0.6,0.7,1.6,1.1,2.8,1.1c1.1,0,2-0.3,2.7-1
			C201.3,67.9,201.7,66.9,201.7,65.6z"/>
		<path class="st4" d="M161.7,53.4l5.2,0l-0.1,11.7l0,1.1c0,1.2,0.4,2.1,1.1,2.6c0.7,0.6,1.5,0.8,2.4,0.8c0.9,0,1.7-0.3,2.4-0.8
			c0.7-0.5,1.1-1.4,1.1-2.6l0.1-12.8l5.3,0l-0.1,11.7c0,3.4-0.9,5.7-2.7,6.8c-1.8,1.1-3.8,1.8-5.9,1.8c-1.2,0-2.3-0.1-3.4-0.4
			c-1.1-0.3-2.1-0.8-3-1.5c-0.8,0.6-1.7,1.1-2.7,1.4c-1,0.3-2.1,0.4-3.2,0.5c-2.2,0-4.2-0.6-6.1-1.8c-1.8-1.2-2.8-3.5-2.7-7
			l0.1-11.7l2.6,0c0.8,0,1.4,0.2,1.8,0.7c0.5,0.5,0.7,1.1,0.7,1.8l-0.1,10.2c0,1.2,0.4,2.1,1.1,2.6c0.7,0.6,1.5,0.8,2.4,0.8
			c0.9,0,1.7-0.3,2.5-0.8c0.7-0.5,1.1-1.4,1.1-2.6l0-1.1L161.7,53.4z"/>
		<path class="st4" d="M135.2,54c1.1-0.5,2.2-0.9,3.4-1c1.2-0.1,2.2-0.2,3.1-0.2c1.8,0,3.4,0.5,4.7,1.5c1.3,1,2,2.6,2,4.9
			c0,2.1-0.6,3.6-1.9,4.5c-1.2,0.9-2.8,1.5-4.7,1.8c-0.3,0-0.6,0-0.9,0.1c-0.4,0.1-0.8,0.1-1.2,0.2c-2.2,0.3-3.3,0.9-3.3,1.9
			c0,0.8,0.4,1.2,1.2,1.5c0.8,0.2,1.5,0.3,2.1,0.4c0.7,0,1.3-0.1,1.9-0.3c0.6-0.2,1-0.6,1.2-1.1l5,0c-0.2,1.6-0.9,2.8-2.1,3.8
			c-1.4,1.1-3.3,1.7-5.8,1.7c-2.8,0-4.9-0.5-6.3-1.5c-1.4-1-2.2-2.4-2.2-4.2l0-6.9c0-2,0.4-3.6,1.1-4.7
			C133.3,55.4,134.2,54.5,135.2,54z M136.4,63.3c0.7-0.3,1.7-0.7,2.9-1L141,62c0.9-0.2,1.6-0.6,2-1c0.4-0.6,0.5-1.1,0.5-1.7
			c0-0.8-0.2-1.4-0.7-1.8c-0.4-0.4-1.1-0.6-2-0.6c-1.4,0-2.5,0.4-3.3,1.2c-0.8,0.8-1.2,1.9-1.2,3.3L136.4,63.3z"/>
		<path class="st4" d="M121.9,53.1c1.7-0.1,3.5-0.1,5.4,0.1c1.9,0.2,2.9,1.4,2.9,3.7L130,79.1l-2.7,0c-0.7,0-1.2-0.3-1.7-0.8
			c-0.5-0.5-0.7-1.1-0.7-1.8l0-3.4l-3.1,0l0-1.1c0-0.8,0.3-1.4,0.8-1.8c0.5-0.5,1.1-0.7,1.8-0.7l0.5,0l0.1-11.1
			c0-0.9-0.5-1.3-1.5-1.3l-1.6,0L121.9,53.1z"/>
	</g>
</g>
</svg>
