<?xml version="1.0" encoding="utf-8"?>
<!-- Generator: Adobe Illustrator 27.7.0, SVG Export Plug-In . SVG Version: 6.00 Build 0)  -->
<svg version="1.1" id="Calque_1" xmlns="http://www.w3.org/2000/svg" xmlns:xlink="http://www.w3.org/1999/xlink" x="0px" y="0px"
	 viewBox="0 0 281.8 89.5" style="enable-background:new 0 0 281.8 89.5;" xml:space="preserve">
<style type="text/css">
	.st0{fill:#119D3C;}
	.st1{display:none;}
	.st2{display:inline;}
	.st3{display:none;fill:#FFFFFF;}
	.st4{fill-rule:evenodd;clip-rule:evenodd;fill:#FFFFFF;}
	.st5{display:none;fill-rule:evenodd;clip-rule:evenodd;fill:#FFFFFF;}
	.st6{fill:#FFFFFF;}
</style>
<g>
	<g>
		<g>
			<path class="st0" d="M10.8,89.4v-8.7l-2.9,5.7h-2L3,80.7v8.7H0V74.5h2.9l4,8.1l4-8.1h2.9v14.9H10.8z"/>
			<path class="st0" d="M17.3,89.4V74.5h3v14.9H17.3z"/>
			<path class="st0" d="M29,89.5c-1.6,0-3-0.5-4.1-1.6c-0.7-0.6-1.1-1.4-1.2-2.2c-0.2-0.8-0.3-2.1-0.3-3.7s0.1-2.9,0.3-3.7
				c0.2-0.9,0.6-1.6,1.2-2.2c1.1-1.1,2.5-1.6,4.1-1.6c2.9,0,5.1,1.7,5.6,4.7h-3c-0.3-1.3-1.1-2.1-2.6-2.1c-0.8,0-1.5,0.3-1.9,0.8
				c-0.6,0.6-0.7,1.3-0.7,4.2c0,2.9,0.1,3.6,0.7,4.2c0.4,0.5,1.1,0.8,1.9,0.8c1.4,0,2.2-0.8,2.6-2.1h3C34,87.8,31.9,89.5,29,89.5z"
				/>
			<path class="st0" d="M45.2,89.4l-3-6h-2.1v6h-3V74.5h6c3.1,0,4.9,2.1,4.9,4.6c0,2.1-1.3,3.4-2.8,3.9l3.4,6.4H45.2z M42.9,77.1
				h-2.8V81h2.8c1.3,0,2.2-0.8,2.2-2C45.1,77.9,44.2,77.1,42.9,77.1z"/>
			<path class="st0" d="M60.3,87.9c-1.1,1-2.4,1.6-4.1,1.6c-1.7,0-3.1-0.6-4.1-1.6c-1.5-1.5-1.5-3.4-1.5-6s0-4.4,1.5-6
				c1.1-1,2.4-1.6,4.1-1.6c1.7,0,3,0.6,4.1,1.6c1.5,1.5,1.5,3.4,1.5,6S61.9,86.4,60.3,87.9z M58.1,77.7c-0.4-0.5-1.1-0.8-1.9-0.8
				c-0.8,0-1.5,0.3-1.9,0.8c-0.6,0.6-0.7,1.3-0.7,4.2c0,2.9,0.1,3.6,0.7,4.2c0.4,0.5,1.1,0.8,1.9,0.8c0.8,0,1.5-0.3,1.9-0.8
				c0.6-0.6,0.7-1.3,0.7-4.2C58.9,79,58.7,78.4,58.1,77.7z"/>
			<path class="st0" d="M64.9,89.4V74.5h3v14.9H64.9z"/>
			<path class="st0" d="M80.9,88c-1,1-2.4,1.4-4,1.4h-5.5V74.5h5.5c1.6,0,3,0.4,4,1.4c1.7,1.7,1.5,3.7,1.5,6S82.6,86.3,80.9,88z
				 M78.8,78c-0.5-0.6-1.2-0.9-2.2-0.9h-2.2v9.7h2.2c1,0,1.7-0.3,2.2-0.9c0.6-0.7,0.6-1.7,0.6-4S79.4,78.6,78.8,78z"/>
			<path class="st0" d="M89.7,89.5c-2.3,0-4.1-0.5-5.6-2l1.9-1.9c1,0.9,2.3,1.3,3.7,1.3c1.8,0,2.7-0.6,2.7-1.8c0-0.5-0.1-1-0.5-1.3
				c-0.3-0.3-0.6-0.4-1.3-0.5L88.8,83c-1.3-0.2-2.3-0.6-3-1.2c-0.7-0.7-1.1-1.7-1.1-2.9c0-2.7,2-4.5,5.3-4.5c2.1,0,3.6,0.5,4.9,1.7
				L93,77.9c-1-0.9-2.1-1-3.1-1c-1.6,0-2.4,0.9-2.4,1.9c0,0.4,0.1,0.8,0.4,1.1c0.3,0.3,0.8,0.5,1.4,0.6l1.8,0.3
				c1.4,0.2,2.3,0.6,2.9,1.2c0.8,0.8,1.2,1.8,1.2,3.2C95.3,87.9,92.9,89.5,89.7,89.5z"/>
		</g>
	</g>
	<path class="st0" d="M61.5,0H21.1c-3.4,0-6.2,2.8-6.2,6.2v40.4c0,10.4,8.5,18.9,18.9,18.9h40.4c3.4,0,6.2-2.8,6.2-6.2V18.9
		C80.4,8.5,72,0,61.5,0z M56.6,50.2c0,0.2-0.2,0.3-0.4,0.3c-1.6-0.2-3.4-0.4-5.3-0.5c-0.2,0-0.3-0.2-0.3-0.3V21.3
		c0-0.2,0.2-0.3,0.3-0.3c1.8,0.1,3.6,0.2,5.3,0.5c0.2,0,0.3,0.2,0.3,0.3v28.4H56.6z M68.1,53.2c-0.8-0.3-2.6-0.8-5.3-1.4
		c-0.1,0-0.3-0.2-0.3-0.3V16.8c0-0.2-0.1-0.3-0.3-0.3c-4.8-1.1-9.7-1.6-14.8-1.6c-4.9,0-9.8,0.6-14.5,1.6c-0.2,0-0.3,0.2-0.3,0.3
		v28.5c0,0.2,0.2,0.4,0.4,0.3c1.7-0.4,3.5-0.7,5.3-0.9c0.2,0,0.3-0.2,0.3-0.3V21.7c0-0.2,0.1-0.3,0.3-0.3c1.8-0.2,3.5-0.4,5.3-0.5
		c0.2,0,0.3,0.1,0.3,0.3v28.5c0,0.2-0.1,0.3-0.3,0.3c-8.2,0.5-15.2,2.6-17,3.2c-0.2,0.1-0.4-0.1-0.4-0.3V12.4c0-0.1,0.1-0.3,0.2-0.3
		c6.4-2,13.3-3.2,20.5-3.2c0.1,0,0.2,0,0.3,0.1l4.9,5.8c0.1,0.1,0.3,0.2,0.5,0l5.7-4.9c0.1-0.1,0.2-0.1,0.3-0.1
		c3.2,0.5,6.2,1.3,9.2,2.2c0.1,0,0.2,0.2,0.2,0.3v40.4C68.5,53.1,68.3,53.2,68.1,53.2z"/>
</g>
<g class="st1">
	<g class="st2">
		<g id="Logo.psd_00000002371704130812235840000008723387337817793464_">
			<g>
				<path class="st3" d="M236.4,47.7c0.1-10,0.2-20.1,0.3-30.1c11.8,0.1,23.6,0.3,35.4,0.4c-0.1,10-0.2,20.1-0.3,30.1
					C259.9,47.9,248.1,47.8,236.4,47.7z M250.6,43.6L250.6,43.6c0.1-0.2,0.2-0.3,0.3-0.4c1.1-1.2,2.3-2.2,3.6-3.1
					c1.9-1.2,3.9-2.1,6.2-2.4c1.4-0.2,2.7-0.1,4,0.2c1.1,0.2,2.2,0.5,3.3,0.3c1.1-0.2,2.1-0.6,2.8-1.6c0.8-1.1,0.9-2.4,0.8-3.7
					c-0.2-1.6-0.8-3.1-1.9-4.4c-1.8-2.2-4.3-3-7.1-2.2c-1.5,0.4-2.8,1.2-4,2.2c-1.5,1.2-2.7,2.8-3.8,4.4c-1.1,1.7-2,3.5-2.8,5.4
					c-0.8,1.8-1.4,3.7-1.9,5.6c0,0.1,0,0.2,0,0.3h0.2c1.6-0.5,3.2-0.6,4.8-0.3c1.7,0.3,3.1,1,4.3,2.3c0.3,0.3,0.5,0.5,0.8,0.8
					c1.4,1.1,2.9,0.8,3.9-0.6c0.5-0.7,0.7-1.5,0.8-2.4c0-1.6-0.5-2.9-1.9-3.8c-0.8-0.5-1.6-0.7-2.5-0.7c-1.4-0.1-2.7,0.3-4,0.8
					c-2,0.8-3.8,1.9-5.4,3.2C250.9,43.4,250.7,43.5,250.6,43.6z M249.3,42.7C249.4,42.7,249.4,42.7,249.3,42.7
					c0.2-0.1,0.2-0.2,0.3-0.3c1.3-2.4,2.4-5,3.2-7.6c0.8-2.4,1.3-4.9,1.3-7.5c0-1.9-0.3-3.8-1.2-5.5s-2.1-3-4-3.6
					c-0.7-0.2-1.5-0.4-2.2-0.4c-0.8,0-1.6,0.2-2.3,0.4c-1.8,0.5-3.3,1.5-4.3,3.1c-0.9,1.4-0.9,3,0.1,4.4c0.6,0.8,1.3,1.4,2.1,1.9
					c1.6,0.9,2.9,2,4,3.5c1.4,1.8,2.2,3.8,2.6,6c0.4,1.8,0.5,3.6,0.3,5.4C249.3,42.6,249.3,42.6,249.3,42.7z M247.6,41.7
					C247.6,41.7,247.7,41.7,247.6,41.7c0-0.3-0.1-0.5-0.2-0.7c-0.8-1.9-1.7-3.6-3.1-5.1c-0.9-1-1.9-1.8-3.1-2.1
					c-0.9-0.3-1.8-0.2-2.6,0.2c-1.3,0.8-2.1,2.6-1.8,4.1c0.2,0.9,1,1.6,1.9,1.5c0.5,0,0.9-0.1,1.4-0.3c1.1-0.4,2.3-0.4,3.5-0.1
					c1.5,0.4,2.7,1.2,3.8,2.2C247.4,41.6,247.5,41.6,247.6,41.7z"/>
				<path class="st4" d="M250.6,43.6c0.1-0.1,0.2-0.2,0.4-0.2c1.7-1.3,3.4-2.5,5.4-3.2c1.3-0.5,2.6-0.8,4-0.8c0.9,0,1.8,0.2,2.5,0.7
					c1.4,0.9,1.9,2.2,1.9,3.8c0,0.9-0.3,1.7-0.8,2.4c-1,1.5-2.5,1.7-3.9,0.6c-0.3-0.2-0.6-0.5-0.8-0.8c-1.1-1.3-2.6-2-4.3-2.3
					c-1.6-0.3-3.3-0.1-4.8,0.3c-0.1,0-0.2,0-0.2,0c0-0.1,0-0.2,0-0.3c0.5-1.9,1.2-3.8,1.9-5.6c0.8-1.9,1.7-3.7,2.8-5.4
					c1.1-1.6,2.3-3.1,3.8-4.4c1.2-1,2.5-1.8,4-2.2c2.8-0.8,5.3,0.1,7.1,2.2c1.1,1.3,1.7,2.7,1.9,4.4c0.2,1.3,0,2.6-0.8,3.7
					c-0.7,1-1.6,1.4-2.8,1.6c-1.1,0.2-2.2-0.1-3.3-0.3c-1.3-0.3-2.7-0.3-4-0.2c-2.3,0.3-4.3,1.2-6.2,2.4c-1.3,0.9-2.5,1.9-3.6,3.1
					C250.8,43.3,250.7,43.4,250.6,43.6L250.6,43.6z M255.8,33.2C255.9,33.2,255.9,33.3,255.8,33.2c0.1,0,0.1,0,0.2,0
					c0.6-0.5,1.2-1,1.9-1.4c1.4-1,3-1.5,4.7-1.7c1-0.1,1.9,0.1,2.9,0.3c0.7,0.1,1.5,0.2,2.2,0c0.6-0.2,0.9-0.6,0.7-1.2
					c0-0.2-0.1-0.3-0.2-0.5c-0.4-0.6-1.1-1-1.8-1.3c-1.1-0.4-2.2-0.4-3.4-0.1c-1.1,0.3-2.1,0.9-3,1.6c-1.5,1.2-2.8,2.6-4,4.1
					C255.9,33,255.9,33.1,255.8,33.2z M255.3,41.7L255.3,41.7c0.2,0.1,0.3,0,0.4,0c1.1-0.3,2.1-0.3,3.2-0.1c1,0.2,1.9,0.7,2.7,1.3
					c0.4,0.3,0.7,0.5,1.2,0.6c0.4,0,0.8-0.3,0.7-0.8c-0.2-0.9-0.7-1.5-1.5-1.9c-1.2-0.6-2.4-0.5-3.6-0.2c-0.8,0.2-1.5,0.5-2.3,0.8
					C255.9,41.4,255.6,41.5,255.3,41.7z"/>
				<path class="st4" d="M249.3,42.7c0-0.1,0-0.1,0-0.2c0.2-1.8,0-3.6-0.3-5.4c-0.4-2.2-1.2-4.2-2.6-6c-1.1-1.5-2.4-2.5-4-3.5
					c-0.8-0.5-1.6-1.1-2.1-1.9c-0.9-1.4-1-2.9-0.1-4.4c1-1.6,2.5-2.6,4.3-3.1c0.7-0.2,1.5-0.4,2.3-0.4c0.7,0,1.5,0.2,2.2,0.4
					c1.9,0.6,3.1,1.9,4,3.6s1.2,3.6,1.2,5.5c0,2.6-0.5,5-1.3,7.5c-0.8,2.6-1.9,5.2-3.2,7.6C249.6,42.5,249.5,42.6,249.3,42.7
					C249.4,42.7,249.4,42.7,249.3,42.7z M252.8,30.1L252.8,30.1c0.1-0.1,0.1-0.2,0.1-0.3c0.1-2.3-0.1-4.6-0.8-6.8
					c-0.4-1.3-1.1-2.5-2.2-3.3c-1.1-0.8-2.3-1.2-3.6-0.9c-1,0.2-1.3,1.1-0.6,1.8l0,0c0.5,0.4,0.9,0.8,1.4,1.1c0.9,0.5,1.8,1,2.5,1.8
					c1.6,1.6,2.5,3.6,3,5.8C252.7,29.6,252.8,29.8,252.8,30.1z"/>
				<path class="st4" d="M247.6,41.7c-0.1-0.1-0.2-0.1-0.2-0.2c-1.1-1.1-2.3-1.8-3.8-2.2c-1.2-0.3-2.3-0.3-3.5,0.1
					c-0.4,0.1-0.9,0.2-1.4,0.3c-0.9,0-1.7-0.6-1.9-1.5c-0.3-1.5,0.4-3.3,1.8-4.1c0.8-0.5,1.7-0.5,2.6-0.2c1.3,0.4,2.3,1.2,3.1,2.1
					c1.4,1.5,2.3,3.2,3.1,5.1C247.5,41.2,247.6,41.4,247.6,41.7C247.7,41.7,247.6,41.7,247.6,41.7z M244.5,37.7L244.5,37.7
					c0-0.1,0-0.2-0.1-0.3c-0.3-0.4-0.6-0.7-0.9-1c-0.7-0.7-1.4-1.3-2.4-1.6s-1.9-0.2-2.6,0.6c-0.3,0.3-0.2,0.7,0.3,0.9
					c0.2,0,0.4,0.1,0.5,0c0.8-0.1,0.8-0.1,1.3-0.2c1.2-0.1,2.3,0.4,3.3,1.1C244.1,37.4,244.3,37.6,244.5,37.7z"/>
				<path class="st5" d="M255.8,33.2c0.1-0.1,0.1-0.2,0.2-0.2c1.2-1.5,2.5-2.9,4-4.1c0.9-0.7,1.9-1.3,3-1.6c1.1-0.3,2.3-0.3,3.4,0.1
					c0.7,0.3,1.3,0.7,1.8,1.3c0.1,0.2,0.2,0.3,0.2,0.5c0.2,0.6-0.1,1-0.7,1.2c-0.7,0.2-1.5,0.1-2.2,0c-1-0.2-1.9-0.3-2.9-0.3
					c-1.7,0.2-3.3,0.7-4.7,1.7c-0.6,0.4-1.3,0.9-1.9,1.4C256,33.2,255.9,33.2,255.8,33.2C255.9,33.3,255.9,33.2,255.8,33.2z"/>
				<path class="st5" d="M255.3,41.7c0.3-0.1,0.6-0.3,0.8-0.4c0.8-0.3,1.5-0.6,2.3-0.8c1.2-0.3,2.5-0.4,3.6,0.2
					c0.8,0.4,1.3,1.1,1.5,1.9c0.1,0.4-0.3,0.8-0.7,0.8c-0.5-0.1-0.9-0.3-1.2-0.6c-0.8-0.6-1.7-1.1-2.7-1.3c-1.1-0.2-2.2-0.1-3.2,0.1
					C255.6,41.7,255.5,41.7,255.3,41.7L255.3,41.7z"/>
				<path class="st5" d="M252.8,30.1c0-0.2-0.1-0.5-0.2-0.8c-0.5-2.2-1.4-4.2-3-5.8c-0.7-0.7-1.6-1.2-2.5-1.8
					c-0.5-0.3-1-0.7-1.4-1.1l0,0c-0.7-0.8-0.5-1.6,0.6-1.8c1.4-0.3,2.6,0.1,3.6,0.9c1.1,0.8,1.8,2,2.2,3.3c0.8,2.2,0.9,4.5,0.8,6.8
					C252.9,29.9,252.9,30,252.8,30.1L252.8,30.1z"/>
				<path class="st5" d="M244.2,37.3c-0.2-0.2-0.4-0.3-0.6-0.5c-1-0.7-2-1.1-3.3-1.1c-0.5,0-0.9,0.1-1.3,0.2c-0.2,0-0.4,0-0.5,0
					c-0.4-0.1-0.6-0.5-0.3-0.9c0.7-0.8,1.6-0.9,2.6-0.6c1,0.3,1.7,0.9,2.4,1.6c0.3,0.3,0.6,0.7,0.9,1
					C244.2,37.1,244.2,37.1,244.2,37.3C244.3,37.2,244.3,37.2,244.2,37.3z"/>
			</g>
		</g>
		<path class="st6" d="M254.1,53.6H254c-5.6-0.1-10.8-2.3-14.6-6.2c-3.9-4-6-9.2-5.9-14.8c0-5.5,2.3-10.7,6.2-14.6s9.1-6,14.6-5.9
			h0.1c5.6,0.1,10.8,2.3,14.6,6.2c3.9,4,6,9.2,5.9,14.8l0,0c0,5.5-2.3,10.7-6.2,14.6C264.8,51.5,259.6,53.6,254.1,53.6z M254.3,13.4
			c-5.1,0-10,1.9-13.7,5.5s-5.8,8.5-5.8,13.6c-0.1,5.2,1.9,10.1,5.5,13.8s8.5,5.8,13.7,5.8h0.1c5.1,0,10-1.9,13.7-5.5
			s5.8-8.5,5.8-13.6l0,0c0.1-5.2-1.9-10.1-5.5-13.8s-8.5-5.8-13.7-5.8C254.4,13.4,254.3,13.4,254.3,13.4z"/>
	</g>
	<g class="st2">
		<path class="st6" d="M122,51.8c-1.1,0.5-2.2,0.9-3.4,1c-1.2,0.1-2.2,0.2-3.1,0.2c-1.8,0-3.4-0.5-4.7-1.5c-1.3-1-2-2.6-2-4.9
			c0-2.1,0.6-3.6,1.9-4.5c1.2-0.9,2.8-1.5,4.7-1.8c0.3,0,0.6,0,0.9-0.1c0.4-0.1,0.8-0.1,1.2-0.2c2.2-0.3,3.3-0.9,3.3-1.9
			c0-0.8-0.4-1.2-1.2-1.5c-0.8-0.2-1.5-0.3-2.1-0.4c-0.7,0-1.3,0.1-1.9,0.3s-1,0.6-1.2,1.1h-5c0.2-1.6,0.9-2.8,2.1-3.8
			c1.4-1.1,3.3-1.7,5.8-1.7c2.8,0,4.9,0.5,6.3,1.5s2.2,2.4,2.2,4.2v6.9c0,2-0.4,3.6-1.1,4.7C123.9,50.5,123,51.3,122,51.8z
			 M120.9,42.5c-0.7,0.3-1.7,0.7-2.9,1l-1.7,0.4c-0.9,0.2-1.6,0.6-2,1c-0.4,0.6-0.5,1.1-0.5,1.7c0,0.8,0.2,1.4,0.7,1.8
			c0.4,0.4,1.1,0.6,2,0.6c1.4,0,2.5-0.4,3.3-1.2s1.2-1.9,1.2-3.3L120.9,42.5z"/>
		<path class="st6" d="M135.3,52.7c-1.7,0.1-3.5,0.1-5.4-0.1c-1.9-0.2-2.9-1.4-2.9-3.7l0.1-22.1h2.7c0.7,0,1.2,0.3,1.7,0.8
			s0.7,1.1,0.7,1.8v3.4h3.1v1.1c0,0.8-0.3,1.4-0.8,1.8c-0.5,0.5-1.1,0.7-1.8,0.7h-0.5l-0.1,11.1c0,0.9,0.5,1.3,1.5,1.3h1.6
			L135.3,52.7z"/>
		<path class="st6" d="M148.5,38.4c-0.7-1.1-1.8-1.6-3.1-1.6c-1.4,0-2.5,0.5-3.2,1.5c-0.8,1-1.1,2.4-1.2,4.1l-0.1,10.3h-5.1
			l0.1-25.9h2.6c0.7,0,1.3,0.3,1.8,0.8s0.7,1.1,0.7,1.8v5.9c0.9-1.5,2.2-2.4,3.9-2.8c1.7-0.4,3.2-0.3,4.7,0.3
			c1.4,0.6,2.6,1.6,3.5,2.9c0.9,1.3,1.4,3.1,1.4,5.4l-0.1,11.7h-5l0.1-10.4c0-0.8-0.1-1.4-0.2-2.1C149.2,39.7,148.9,39,148.5,38.4z"
			/>
		<path class="st6" d="M155.7,26.9h2.7c0.7,0,1.3,0.2,1.8,0.7s0.7,1.1,0.7,1.8l-0.1,23.4h-5.3L155.7,26.9z"/>
		<path class="st6" d="M175.7,46.7h3.8c-0.6,2.1-1.6,3.7-3.2,4.8c-1.6,1.1-3.5,1.7-5.9,1.7c-2.9,0-5.1-1-6.7-2.8
			c-1.6-1.8-2.4-4.4-2.4-7.8c0-3.2,0.8-5.7,2.4-7.5c1.6-1.8,3.9-2.8,6.7-2.7c3,0,5.3,0.9,7,2.7c1.6,1.9,2.4,4.5,2.4,7.8
			c0,0.2,0,0.4,0,0.5c0,0.2,0,0.3,0,0.3c0,0.3,0,0.4-0.1,0.5l-13-0.1c0,1.6,0.4,2.7,1.1,3.5c0.6,0.8,1.6,1.2,2.9,1.2
			c0.9,0,1.6-0.2,2.2-0.5c0.2,0,0.3-0.1,0.4-0.3c0.1-0.1,0.3-0.3,0.4-0.4c0.1-0.1,0.2-0.3,0.6-0.6C174.7,46.8,175.1,46.7,175.7,46.7
			z M166.7,40.8h7.7c-0.1-1.4-0.4-2.4-1-3c-0.6-0.7-1.6-1.1-2.8-1.1c-1.1,0-2,0.3-2.7,1C167.2,38.5,166.8,39.5,166.7,40.8z"/>
		<path class="st6" d="M189.5,53c-1.7,0.1-3.5,0.1-5.4-0.1c-1.9-0.2-2.9-1.4-2.9-3.7l0.1-22.1h2.7c0.7,0,1.2,0.3,1.7,0.8
			s0.7,1.1,0.7,1.8v3.4h3.1v1.1c0,0.8-0.3,1.4-0.8,1.8c-0.5,0.5-1.1,0.7-1.8,0.7h-0.5l-0.1,11.1c0,0.9,0.5,1.3,1.5,1.3h1.6L189.5,53
			z"/>
		<path class="st6" d="M203.9,46.9h3.8c-0.6,2.1-1.6,3.7-3.2,4.8c-1.6,1.1-3.5,1.7-5.9,1.7c-2.9,0-5.1-1-6.7-2.8
			c-1.6-1.8-2.4-4.4-2.4-7.8c0-3.2,0.8-5.7,2.4-7.5c1.6-1.8,3.9-2.8,6.7-2.7c3,0,5.3,0.9,7,2.7c1.6,1.9,2.4,4.5,2.4,7.8
			c0,0.2,0,0.4,0,0.5c0,0.2,0,0.3,0,0.3c0,0.3,0,0.4-0.1,0.5l-13-0.1c0,1.6,0.4,2.7,1.1,3.5c0.6,0.8,1.6,1.2,2.9,1.2
			c0.9,0,1.6-0.2,2.2-0.5c0.2,0,0.3-0.1,0.4-0.3c0.1-0.1,0.3-0.3,0.4-0.4c0.1-0.1,0.2-0.3,0.6-0.6C202.8,47,203.3,46.9,203.9,46.9z
			 M194.9,41h7.7c-0.1-1.4-0.4-2.4-1-3c-0.6-0.7-1.6-1.1-2.8-1.1c-1.1,0-2,0.3-2.7,1C195.3,38.6,195,39.6,194.9,41z"/>
		<path class="st6" d="M208.3,46.4h5.1c0,1,0.4,1.8,1.1,2.3c0.7,0.5,1.8,0.8,3,0.8c0.9,0,1.7-0.2,2.3-0.5s0.9-0.8,0.9-1.4
			c0-0.9-1-1.6-3.2-2.1c-0.9-0.2-1.6-0.3-2-0.5c-2.7-0.7-4.4-1.5-5.3-2.4c-1-0.9-1.5-2.1-1.5-3.6c0-1.9,0.7-3.5,2.2-4.7
			c1.5-1.1,3.5-1.7,5.9-1.7c2.6,0,4.7,0.6,6.2,1.8c1.4,1.3,2.2,2.9,2.3,4.9h-3.2c-1,0-1.7-0.4-2.2-1.3c-0.2-0.2-0.4-0.4-0.6-0.6
			c-0.6-0.5-1.4-0.7-2.5-0.7c-1,0-1.8,0.1-2.3,0.4c-0.5,0.3-0.7,0.7-0.7,1.4c0,0.8,1.3,1.5,3.9,2.1c0.3,0.1,0.6,0.2,0.8,0.2
			c0.2,0.1,0.4,0.1,0.6,0.1c2.6,0.7,4.3,1.4,5.3,2.3c0.9,0.9,1.4,2.1,1.4,3.6c0,2.2-0.8,3.9-2.4,5.1c-1.5,1.1-3.8,1.6-6.8,1.6
			c-2.9,0-5-0.6-6.4-1.8c-1.5-1.2-2.2-2.8-2.2-5.1L208.3,46.4z"/>
	</g>
	<g class="st2">
		<path class="st6" d="M278.9,58c1,0.9,1.8,2.1,2.2,3.7c0.4,1.5,0.7,3.1,0.7,4.8c0,1.4-0.2,2.7-0.6,4.1s-1,2.5-1.8,3.4
			c-1.3,1.5-3,2.4-5.1,2.6c-2.1,0.3-3.9,0.1-5.6-0.5c-1.9-0.8-3.3-2.1-4.2-3.9c-0.8-1.7-1.3-3.6-1.2-5.8c0-1.6,0.2-3,0.5-4.1
			c0.4-1.2,0.8-2.1,1.4-2.9c1.2-1.6,2.8-2.7,4.6-3.1c1.7-0.4,3.3-0.5,5-0.1C276.5,56.5,277.9,57.1,278.9,58z M275.2,71.3
			c1.1-1.1,1.5-2.9,1.5-5.1c-0.1-2.3-0.5-3.9-1.3-4.8c-0.3-0.4-0.8-0.7-1.6-1c-0.8-0.3-1.5-0.3-2.3-0.1s-1.5,0.8-2.1,1.7
			s-0.9,2.4-1,4.4c0,1.8,0.3,3.2,0.8,4.1c0.6,0.9,1.2,1.5,2,1.7c0.8,0.3,1.5,0.3,2.3,0S274.8,71.6,275.2,71.3z"/>
		<path class="st6" d="M245.1,56h2.6c0.8,0,1.4,0.2,1.8,0.7c0.5,0.5,0.7,1.1,0.7,1.8l-0.1,10.2c0,1.2,0.4,2.1,1.1,2.6
			c0.7,0.6,1.5,0.8,2.4,0.8s1.7-0.3,2.4-0.8c0.7-0.5,1.1-1.4,1.1-2.6l0.1-12.8h5.3l-0.1,11.7c0,3.4-0.9,5.7-2.7,6.8
			c-1.8,1.1-3.8,1.8-5.9,1.8c-2.2,0-4.2-0.6-6.1-1.8c-1.9-1.2-2.8-3.5-2.7-7L245.1,56z"/>
		<path class="st6" d="M226.7,55.9c1.7-0.1,3.5-0.1,5.4,0.1c1.9,0.2,2.9,1.4,2.9,3.7l-0.1,22.1h-2.7c-0.7,0-1.2-0.3-1.7-0.8
			s-0.7-1.1-0.7-1.8v-3.4h-3.1v-1.1c0-0.8,0.3-1.4,0.8-1.8c0.5-0.5,1.1-0.7,1.8-0.7h0.5l0.1-11.1c0-0.9-0.5-1.3-1.5-1.3h-1.6
			L226.7,55.9z"/>
		<path class="st6" d="M213.6,70.2c0.7,1.1,1.8,1.6,3.1,1.6c1.4,0,2.5-0.5,3.2-1.5c0.8-1,1.1-2.4,1.2-4.1l0.1-10.3h5.1l-0.1,25.9
			h-2.6c-0.7,0-1.3-0.3-1.8-0.8s-0.7-1.1-0.7-1.8v-5.9c-0.9,1.5-2.2,2.4-3.9,2.8s-3.2,0.3-4.7-0.3c-1.4-0.6-2.6-1.6-3.5-2.9
			s-1.4-3.1-1.4-5.4l0.1-11.7h5l-0.1,10.4c0,0.8,0.1,1.4,0.2,2.1C212.9,68.9,213.1,69.6,213.6,70.2z"/>
		<path class="st6" d="M192.7,61.9h-3.8c0.6-2.1,1.6-3.7,3.2-4.8c1.6-1.1,3.5-1.7,5.9-1.7c2.9,0,5.1,1,6.7,2.8
			c1.6,1.8,2.4,4.4,2.4,7.8c0,3.2-0.8,5.7-2.4,7.5c-1.6,1.8-3.9,2.8-6.7,2.7c-3,0-5.3-0.9-7-2.7c-1.6-1.9-2.4-4.5-2.4-7.8
			c0-0.2,0-0.4,0-0.5s0-0.3,0-0.3c0-0.3,0-0.4,0.1-0.5l13,0.1c0-1.6-0.4-2.7-1.1-3.5c-0.6-0.8-1.6-1.2-2.9-1.2
			c-0.9,0-1.6,0.2-2.2,0.5c-0.2,0-0.3,0.1-0.4,0.3c-0.1,0.1-0.3,0.3-0.4,0.4c-0.1,0.2-0.2,0.3-0.6,0.6
			C193.8,61.8,193.3,61.9,192.7,61.9z M201.7,67.8H194c0.1,1.4,0.4,2.4,1,3c0.6,0.7,1.6,1.1,2.8,1.1c1.1,0,2-0.3,2.7-1
			C201.3,70.1,201.7,69.1,201.7,67.8z"/>
		<path class="st6" d="M161.7,55.6h5.2l-0.1,11.7v1.1c0,1.2,0.4,2.1,1.1,2.6c0.7,0.6,1.5,0.8,2.4,0.8s1.7-0.3,2.4-0.8
			s1.1-1.4,1.1-2.6l0.1-12.8h5.3l-0.1,11.7c0,3.4-0.9,5.7-2.7,6.8c-1.8,1.1-3.8,1.8-5.9,1.8c-1.2,0-2.3-0.1-3.4-0.4
			c-1.1-0.3-2.1-0.8-3-1.5c-0.8,0.6-1.7,1.1-2.7,1.4s-2.1,0.4-3.2,0.5c-2.2,0-4.2-0.6-6.1-1.8c-1.8-1.2-2.8-3.5-2.7-7l0.1-11.7h2.6
			c0.8,0,1.4,0.2,1.8,0.7c0.5,0.5,0.7,1.1,0.7,1.8l-0.1,10.2c0,1.2,0.4,2.1,1.1,2.6c0.7,0.6,1.5,0.8,2.4,0.8s1.7-0.3,2.5-0.8
			c0.7-0.5,1.1-1.4,1.1-2.6V67L161.7,55.6z"/>
		<path class="st6" d="M135.2,56.2c1.1-0.5,2.2-0.9,3.4-1s2.2-0.2,3.1-0.2c1.8,0,3.4,0.5,4.7,1.5s2,2.6,2,4.9c0,2.1-0.6,3.6-1.9,4.5
			c-1.2,0.9-2.8,1.5-4.7,1.8c-0.3,0-0.6,0-0.9,0.1c-0.4,0.1-0.8,0.1-1.2,0.2c-2.2,0.3-3.3,0.9-3.3,1.9c0,0.8,0.4,1.2,1.2,1.5
			c0.8,0.2,1.5,0.3,2.1,0.4c0.7,0,1.3-0.1,1.9-0.3c0.6-0.2,1-0.6,1.2-1.1h5c-0.2,1.6-0.9,2.8-2.1,3.8c-1.4,1.1-3.3,1.7-5.8,1.7
			c-2.8,0-4.9-0.5-6.3-1.5c-1.4-1-2.2-2.4-2.2-4.2v-6.9c0-2,0.4-3.6,1.1-4.7C133.3,57.6,134.2,56.7,135.2,56.2z M136.4,65.5
			c0.7-0.3,1.7-0.7,2.9-1l1.7-0.3c0.9-0.2,1.6-0.6,2-1c0.4-0.6,0.5-1.1,0.5-1.7c0-0.8-0.2-1.4-0.7-1.8c-0.4-0.4-1.1-0.6-2-0.6
			c-1.4,0-2.5,0.4-3.3,1.2s-1.2,1.9-1.2,3.3L136.4,65.5z"/>
		<path class="st6" d="M121.9,55.3c1.7-0.1,3.5-0.1,5.4,0.1c1.9,0.2,2.9,1.4,2.9,3.7L130,81.3h-2.7c-0.7,0-1.2-0.3-1.7-0.8
			s-0.7-1.1-0.7-1.8v-3.4h-3.1v-1.1c0-0.8,0.3-1.4,0.8-1.8c0.5-0.5,1.1-0.7,1.8-0.7h0.5l0.1-11.1c0-0.9-0.5-1.3-1.5-1.3h-1.6
			L121.9,55.3z"/>
	</g>
</g>
<g>
	<polygon class="st6" points="272.3,33.1 272.3,34.6 272.3,36.2 272.3,37.7 273.8,37.7 273.8,36.2 273.8,34.6 273.8,33.1 
		273.8,31.6 273.8,30.1 272.3,30.1 272.3,31.6 	"/>
	<polygon class="st6" points="270.8,39.2 270.8,40.7 270.8,42.3 272.3,42.3 272.3,40.7 272.3,39.2 272.3,37.7 270.8,37.7 	"/>
	<polygon class="st6" points="270.8,28.5 270.8,30.1 272.3,30.1 272.3,28.5 272.3,27 272.3,25.5 270.8,25.5 270.8,27 	"/>
	<polygon class="st6" points="269.2,43.8 269.2,45.3 270.8,45.3 270.8,43.8 270.8,42.3 269.2,42.3 	"/>
	<polygon class="st6" points="269.2,25.5 270.8,25.5 270.8,24 270.8,22.5 269.2,22.5 269.2,24 	"/>
	<rect x="267.7" y="45.3" class="st6" width="1.5" height="1.5"/>
	<rect x="267.7" y="20.9" class="st6" width="1.5" height="1.5"/>
	<rect x="266.2" y="46.8" class="st6" width="1.5" height="1.5"/>
	<rect x="266.2" y="28.5" class="st6" width="1.5" height="1.5"/>
	<rect x="266.2" y="19.4" class="st6" width="1.5" height="1.5"/>
	<rect x="264.7" y="48.3" class="st6" width="1.5" height="1.5"/>
	<rect x="264.7" y="17.9" class="st6" width="1.5" height="1.5"/>
	<polygon class="st6" points="264.7,49.9 263.1,49.9 261.6,49.9 261.6,51.4 263.1,51.4 264.7,51.4 	"/>
	<polygon class="st6" points="263.1,48.3 263.1,46.8 263.1,45.3 263.1,43.8 263.1,42.3 261.6,42.3 261.6,43.8 260.1,43.8 
		258.6,43.8 257,43.8 257,42.3 255.5,42.3 254,42.3 252.5,42.3 252.5,43.8 254,43.8 255.5,43.8 255.5,45.3 257,45.3 257,46.8 
		258.6,46.8 258.6,48.3 260.1,48.3 261.6,48.3 	"/>
	<polygon class="st6" points="263.1,28.5 264.7,28.5 266.2,28.5 266.2,27 264.7,27 263.1,27 261.6,27 260.1,27 260.1,28.5 
		261.6,28.5 	"/>
	<polygon class="st6" points="263.1,17.9 264.7,17.9 264.7,16.4 263.1,16.4 261.6,16.4 261.6,17.9 	"/>
	<polygon class="st6" points="258.6,51.4 257,51.4 257,52.9 258.6,52.9 260.1,52.9 261.6,52.9 261.6,51.4 260.1,51.4 	"/>
	<polygon class="st6" points="260.1,42.3 261.6,42.3 261.6,40.7 260.1,40.7 258.6,40.7 257,40.7 257,42.3 258.6,42.3 	"/>
	<rect x="258.6" y="28.5" class="st6" width="1.5" height="1.5"/>
	<polygon class="st6" points="258.6,16.4 260.1,16.4 261.6,16.4 261.6,14.8 260.1,14.8 258.6,14.8 257,14.8 257,16.4 	"/>
	<polygon class="st6" points="254,52.9 252.5,52.9 250.9,52.9 249.4,52.9 249.4,54.4 250.9,54.4 252.5,54.4 254,54.4 255.5,54.4 
		257,54.4 257,52.9 255.5,52.9 	"/>
	<polygon class="st6" points="255.5,40.7 255.5,39.2 257,39.2 257,37.7 258.6,37.7 260.1,37.7 261.6,37.7 263.1,37.7 264.7,37.7 
		266.2,37.7 267.7,37.7 267.7,36.2 269.2,36.2 269.2,34.6 269.2,33.1 269.2,31.6 269.2,30.1 267.7,30.1 267.7,31.6 266.2,31.6 
		264.7,31.6 263.1,31.6 261.6,31.6 260.1,31.6 258.6,31.6 258.6,30.1 257,30.1 257,31.6 255.5,31.6 255.5,33.1 255.5,34.6 254,34.6 
		254,36.2 254,37.7 252.5,37.7 252.5,39.2 252.5,40.7 254,40.7 	"/>
	<rect x="250.9" y="40.7" class="st6" width="1.5" height="1.5"/>
	<rect x="250.9" y="24" class="st6" width="1.5" height="1.5"/>
	<polygon class="st6" points="252.5,14.8 254,14.8 255.5,14.8 257,14.8 257,13.3 255.5,13.3 254,13.3 252.5,13.3 250.9,13.3 
		249.4,13.3 249.4,14.8 250.9,14.8 	"/>
	<polygon class="st6" points="250.9,36.2 250.9,34.6 250.9,33.1 252.5,33.1 252.5,31.6 254,31.6 254,30.1 254,28.5 254,27 254,25.5 
		252.5,25.5 252.5,27 250.9,27 249.4,27 249.4,25.5 247.9,25.5 246.4,25.5 246.4,24 244.9,24 243.3,24 243.3,22.5 241.8,22.5 
		241.8,24 240.3,24 240.3,25.5 240.3,27 240.3,28.5 241.8,28.5 241.8,30.1 243.3,30.1 243.3,31.6 244.9,31.6 244.9,33.1 246.4,33.1 
		246.4,34.6 246.4,36.2 247.9,36.2 247.9,37.7 247.9,39.2 249.4,39.2 249.4,37.7 250.9,37.7 	"/>
	<rect x="249.4" y="22.5" class="st6" width="1.5" height="1.5"/>
	<polygon class="st6" points="247.9,51.4 246.4,51.4 244.9,51.4 244.9,52.9 246.4,52.9 247.9,52.9 249.4,52.9 249.4,51.4 	"/>
	<rect x="246.4" y="42.3" class="st6" width="1.5" height="1.5"/>
	<polygon class="st6" points="247.9,16.4 249.4,16.4 249.4,14.8 247.9,14.8 246.4,14.8 244.9,14.8 244.9,16.4 246.4,16.4 	"/>
	<polygon class="st6" points="244.9,40.7 244.9,39.2 244.9,37.7 243.3,37.7 243.3,36.2 241.8,36.2 241.8,37.7 241.8,39.2 
		240.3,39.2 238.8,39.2 238.8,37.7 238.8,36.2 237.2,36.2 237.2,37.7 237.2,39.2 237.2,40.7 238.8,40.7 238.8,42.3 240.3,42.3 
		241.8,42.3 243.3,42.3 244.9,42.3 246.4,42.3 246.4,40.7 	"/>
	<polygon class="st6" points="246.4,22.5 247.9,22.5 249.4,22.5 249.4,20.9 247.9,20.9 246.4,20.9 244.9,20.9 243.3,20.9 
		243.3,22.5 244.9,22.5 	"/>
	<polygon class="st6" points="243.3,49.9 241.8,49.9 241.8,51.4 243.3,51.4 244.9,51.4 244.9,49.9 	"/>
	<polygon class="st6" points="244.9,17.9 244.9,16.4 243.3,16.4 241.8,16.4 241.8,17.9 243.3,17.9 	"/>
	<rect x="240.3" y="48.3" class="st6" width="1.5" height="1.5"/>
	<polygon class="st6" points="241.8,36.2 241.8,34.6 240.3,34.6 238.8,34.6 238.8,36.2 240.3,36.2 	"/>
	<rect x="240.3" y="17.9" class="st6" width="1.5" height="1.5"/>
	<rect x="238.8" y="46.8" class="st6" width="1.5" height="1.5"/>
	<rect x="238.8" y="19.4" class="st6" width="1.5" height="1.5"/>
	<rect x="237.2" y="45.3" class="st6" width="1.5" height="1.5"/>
	<rect x="237.2" y="20.9" class="st6" width="1.5" height="1.5"/>
	<polygon class="st6" points="237.2,42.3 235.7,42.3 235.7,43.8 235.7,45.3 237.2,45.3 237.2,43.8 	"/>
	<polygon class="st6" points="237.2,24 237.2,22.5 235.7,22.5 235.7,24 235.7,25.5 237.2,25.5 	"/>
	<polygon class="st6" points="235.7,39.2 235.7,37.7 234.2,37.7 234.2,39.2 234.2,40.7 234.2,42.3 235.7,42.3 235.7,40.7 	"/>
	<polygon class="st6" points="235.7,28.5 235.7,27 235.7,25.5 234.2,25.5 234.2,27 234.2,28.5 234.2,30.1 235.7,30.1 	"/>
	<polygon class="st6" points="234.2,34.6 234.2,33.1 234.2,31.6 234.2,30.1 232.7,30.1 232.7,31.6 232.7,33.1 232.7,34.6 
		232.7,36.2 232.7,37.7 234.2,37.7 234.2,36.2 	"/>
	<polygon class="st6" points="276.6,60.7 276.6,63.8 276.6,66.9 276.6,70 276.6,73.1 279.7,73.1 279.7,70 279.7,66.9 279.7,63.8 
		279.7,60.7 	"/>
	<polygon class="st6" points="270.5,73.1 270.5,70 270.5,66.9 270.5,63.8 270.5,60.7 273.5,60.7 276.6,60.7 276.6,57.6 273.5,57.6 
		270.5,57.6 267.4,57.6 267.4,60.7 264.3,60.7 264.3,63.8 264.3,66.9 264.3,70 264.3,73.1 267.4,73.1 267.4,76.2 270.5,76.2 
		273.5,76.2 276.6,76.2 276.6,73.1 273.5,73.1 	"/>
	<polygon class="st6" points="258.1,60.7 258.1,63.8 258.1,66.9 258.1,70 255,70 255,66.9 251.9,66.9 251.9,63.8 251.9,60.7 
		251.9,57.6 248.8,57.6 245.7,57.6 245.7,60.7 245.7,63.8 245.7,66.9 245.7,70 245.7,73.1 248.8,73.1 248.8,76.2 251.9,76.2 
		251.9,73.1 255,73.1 255,76.2 258.1,76.2 261.2,76.2 261.2,73.1 261.2,70 261.2,66.9 261.2,63.8 261.2,60.7 261.2,57.6 258.1,57.6 
			"/>
	<polygon class="st6" points="230.3,57.6 230.3,60.7 230.3,63.8 230.3,66.9 230.3,70 227.2,70 227.2,73.1 230.3,73.1 230.3,76.2 
		233.3,76.2 236.4,76.2 236.4,73.1 236.4,70 236.4,66.9 236.4,63.8 236.4,60.7 236.4,57.6 233.3,57.6 	"/>
	<rect x="221" y="39.1" class="st6" width="3.1" height="3.1"/>
	<polygon class="st6" points="217.9,57.6 217.9,60.7 217.9,63.8 217.9,66.9 217.9,70 214.8,70 214.8,66.9 214.8,63.8 214.8,60.7 
		214.8,57.6 211.7,57.6 208.6,57.6 208.6,60.7 208.6,63.8 208.6,66.9 208.6,70 211.7,70 211.7,73.1 214.8,73.1 217.9,73.1 
		217.9,76.2 221,76.2 224.1,76.2 224.1,73.1 224.1,70 224.1,66.9 224.1,63.8 224.1,60.7 224.1,57.6 221,57.6 	"/>
	<polygon class="st6" points="217.9,36 214.8,36 211.7,36 211.7,39.1 214.8,39.1 217.9,39.1 221,39.1 221,36 	"/>
	<path class="st6" d="M208.6,42.2v3.1h3.1v3.1h-3.1v3.1h3.1v3.1h3.1h3.1h3.1v-3.1h3.1v-3.1v-3.1H221h-3.1v-3.1h-3.1h-3.1v-3.1h-3.1
		V42.2z M217.9,51.5h-3.1v-3.1h3.1V51.5z"/>
	<rect x="202.4" y="48.4" class="st6" width="3.1" height="3.1"/>
	<polygon class="st6" points="202.4,42.2 199.3,42.2 196.2,42.2 196.2,39.1 199.3,39.1 202.4,39.1 202.4,36 199.3,36 196.2,36 
		193.1,36 193.1,39.1 190.1,39.1 190.1,42.2 190.1,45.3 190.1,48.4 190.1,51.5 193.1,51.5 193.1,54.5 196.2,54.5 199.3,54.5 
		202.4,54.5 202.4,51.5 199.3,51.5 199.3,48.4 196.2,48.4 196.2,45.3 199.3,45.3 202.4,45.3 205.5,45.3 205.5,42.2 205.5,39.1 
		202.4,39.1 	"/>
	<polygon class="st6" points="202.4,57.6 199.3,57.6 196.2,57.6 193.1,57.6 193.1,60.7 196.2,60.7 196.2,63.8 199.3,63.8 
		199.3,66.9 196.2,66.9 193.1,66.9 190.1,66.9 190.1,70 190.1,73.1 193.1,73.1 193.1,70 196.2,70 199.3,70 199.3,73.1 196.2,73.1 
		193.1,73.1 193.1,76.2 196.2,76.2 199.3,76.2 202.4,76.2 202.4,73.1 205.5,73.1 205.5,70 205.5,66.9 205.5,63.8 205.5,60.7 
		202.4,60.7 	"/>
	<rect x="190.1" y="60.7" class="st6" width="3.1" height="3.1"/>
	<polygon class="st6" points="183.9,36 180.8,36 177.7,36 177.7,39.1 177.7,42.2 177.7,45.3 177.7,48.4 177.7,51.5 177.7,54.5 
		180.8,54.5 183.9,54.5 183.9,51.5 183.9,48.4 183.9,45.3 183.9,42.2 187,42.2 187,39.1 183.9,39.1 	"/>
	<polygon class="st6" points="177.7,60.7 177.7,63.8 177.7,66.9 174.6,66.9 174.6,63.8 174.6,60.7 174.6,57.6 171.5,57.6 
		171.5,60.7 171.5,63.8 171.5,66.9 171.5,70 171.5,73.1 168.4,73.1 168.4,76.2 171.5,76.2 174.6,76.2 177.7,76.2 180.8,76.2 
		180.8,73.1 180.8,70 180.8,66.9 180.8,63.8 180.8,60.7 180.8,57.6 177.7,57.6 	"/>
	<rect x="171.5" y="48.4" class="st6" width="3.1" height="3.1"/>
	<polygon class="st6" points="168.4,66.9 168.4,63.8 168.4,60.7 168.4,57.6 165.3,57.6 165.3,60.7 165.3,63.8 165.3,66.9 165.3,70 
		165.3,73.1 168.4,73.1 168.4,70 	"/>
	<polygon class="st6" points="165.3,54.5 168.4,54.5 171.5,54.5 171.5,51.5 168.4,51.5 168.4,48.4 165.3,48.4 165.3,45.3 
		168.4,45.3 171.5,45.3 174.6,45.3 174.6,42.2 174.6,39.1 171.5,39.1 171.5,42.2 168.4,42.2 165.3,42.2 165.3,39.1 168.4,39.1 
		171.5,39.1 171.5,36 168.4,36 165.3,36 162.2,36 162.2,39.1 159.1,39.1 159.1,42.2 159.1,45.3 159.1,48.4 159.1,51.5 162.2,51.5 
		162.2,54.5 	"/>
	<polygon class="st6" points="159.1,63.8 159.1,66.9 162.2,66.9 162.2,63.8 162.2,60.7 159.1,60.7 	"/>
	<polygon class="st6" points="152.9,66.9 152.9,63.8 152.9,60.7 156,60.7 159.1,60.7 159.1,57.6 156,57.6 152.9,57.6 149.9,57.6 
		149.9,60.7 146.8,60.7 146.8,63.8 146.8,66.9 146.8,70 146.8,73.1 149.9,73.1 149.9,76.2 152.9,76.2 156,76.2 159.1,76.2 
		159.1,73.1 156,73.1 152.9,73.1 152.9,70 156,70 159.1,70 159.1,66.9 156,66.9 	"/>
	<polygon class="st6" points="156,54.5 156,51.5 156,48.4 156,45.3 156,42.2 156,39.1 152.9,39.1 152.9,36 149.9,36 149.9,39.1 
		149.9,42.2 149.9,45.3 149.9,48.4 149.9,51.5 149.9,54.5 152.9,54.5 	"/>
	<polygon class="st6" points="146.8,51.5 146.8,48.4 146.8,45.3 146.8,42.2 143.7,42.2 143.7,39.1 140.6,39.1 137.5,39.1 137.5,36 
		134.4,36 131.3,36 131.3,39.1 131.3,42.2 131.3,45.3 131.3,48.4 131.3,51.5 131.3,54.5 134.4,54.5 137.5,54.5 137.5,51.5 
		137.5,48.4 137.5,45.3 137.5,42.2 140.6,42.2 140.6,45.3 140.6,48.4 140.6,51.5 140.6,54.5 143.7,54.5 146.8,54.5 	"/>
	<polygon class="st6" points="137.5,57.6 137.5,60.7 137.5,63.8 137.5,66.9 137.5,70 134.4,70 134.4,73.1 137.5,73.1 137.5,76.2 
		140.6,76.2 143.7,76.2 143.7,73.1 143.7,70 143.7,66.9 143.7,63.8 143.7,60.7 143.7,57.6 140.6,57.6 	"/>
	<polygon class="st6" points="125.1,36 122,36 118.9,36 118.9,39.1 118.9,42.2 118.9,45.3 118.9,48.4 118.9,51.5 118.9,54.5 
		122,54.5 125.1,54.5 125.1,51.5 125.1,48.4 125.1,45.3 125.1,42.2 128.2,42.2 128.2,39.1 125.1,39.1 	"/>
	<polygon class="st6" points="112.7,36 109.7,36 106.6,36 103.5,36 103.5,39.1 106.6,39.1 109.7,39.1 109.7,42.2 106.6,42.2 
		103.5,42.2 103.5,45.3 106.6,45.3 109.7,45.3 109.7,48.4 109.7,51.5 106.6,51.5 103.5,51.5 103.5,54.5 106.6,54.5 109.7,54.5 
		112.7,54.5 112.7,51.5 115.8,51.5 115.8,48.4 115.8,45.3 115.8,42.2 115.8,39.1 112.7,39.1 	"/>
	<polygon class="st6" points="103.5,45.3 100.4,45.3 100.4,48.4 100.4,51.5 103.5,51.5 103.5,48.4 	"/>
</g>
</svg>
