<?xml version="1.0" encoding="utf-8"?>
<!-- Generator: Adobe Illustrator 27.7.0, SVG Export Plug-In . SVG Version: 6.00 Build 0)  -->
<svg version="1.1" id="Calque_1" xmlns="http://www.w3.org/2000/svg" xmlns:xlink="http://www.w3.org/1999/xlink" x="0px" y="0px"
	 viewBox="0 0 123.3 113.9" style="enable-background:new 0 0 123.3 113.9;" xml:space="preserve">
<style type="text/css">
	.st0{fill:#F7C18A;}
	.st1{fill:#D67B3C;}
	.st2{fill:#E75654;}
	.st3{fill:#EC9D8F;}
	.st4{fill:#FFFFFF;}
</style>
<g>
	<rect x="113.9" y="66.4" class="st0" width="9.5" height="9.5"/>
	<rect x="113.9" y="56.9" class="st0" width="9.5" height="9.5"/>
	<rect x="113.9" y="47.4" class="st0" width="9.5" height="9.5"/>
	<rect x="113.9" y="38" class="st0" width="9.5" height="9.5"/>
	<rect x="113.9" y="28.5" class="st0" width="9.5" height="9.5"/>
	<rect x="113.9" y="19" class="st0" width="9.5" height="9.5"/>
	<rect x="113.9" y="9.5" class="st0" width="9.5" height="9.5"/>
	<rect x="104.4" y="75.9" class="st0" width="9.5" height="9.5"/>
	<rect x="104.4" y="66.4" class="st0" width="9.5" height="9.5"/>
	<rect x="104.4" y="56.9" class="st0" width="9.5" height="9.5"/>
	<rect x="104.4" y="47.4" class="st1" width="9.5" height="9.5"/>
	<rect x="104.4" y="38" class="st1" width="9.5" height="9.5"/>
	<rect x="104.4" y="28.5" class="st1" width="9.5" height="9.5"/>
	<rect x="104.4" y="19" class="st1" width="9.5" height="9.5"/>
	<rect x="104.4" y="9.5" class="st1" width="9.5" height="9.5"/>
	<rect x="104.4" class="st1" width="9.5" height="9.5"/>
	<rect x="94.9" y="75.9" class="st0" width="9.5" height="9.5"/>
	<rect x="94.9" y="66.4" class="st0" width="9.5" height="9.5"/>
	<rect x="94.9" y="56.9" class="st1" width="9.5" height="9.5"/>
	<rect x="94.9" y="47.4" class="st1" width="9.5" height="9.5"/>
	<rect x="94.9" y="38" class="st1" width="9.5" height="9.5"/>
	<rect x="94.9" y="28.5" class="st1" width="9.5" height="9.5"/>
	<rect x="94.9" y="19" class="st1" width="9.5" height="9.5"/>
	<rect x="94.9" y="9.5" class="st1" width="9.5" height="9.5"/>
	<rect x="94.9" class="st1" width="9.5" height="9.5"/>
	<rect x="85.4" y="75.9" class="st0" width="9.5" height="9.5"/>
	<rect x="85.4" y="66.4" class="st1" width="9.5" height="9.5"/>
	<rect x="85.4" y="56.9" class="st1" width="9.5" height="9.5"/>
	<rect x="85.4" y="47.4" class="st1" width="9.5" height="9.5"/>
	<rect x="85.4" y="38" class="st2" width="9.5" height="9.5"/>
	<rect x="85.4" y="28.5" class="st2" width="9.5" height="9.5"/>
	<rect x="85.4" y="19" class="st1" width="9.5" height="9.5"/>
	<rect x="85.4" y="9.5" class="st1" width="9.5" height="9.5"/>
	<rect x="85.4" class="st1" width="9.5" height="9.5"/>
	<rect x="75.9" y="75.9" class="st0" width="9.5" height="9.5"/>
	<rect x="75.9" y="66.4" class="st1" width="9.5" height="9.5"/>
	<rect x="75.9" y="56.9" class="st1" width="9.5" height="9.5"/>
	<rect x="75.9" y="47.4" class="st1" width="9.5" height="9.5"/>
	<rect x="75.9" y="38" class="st2" width="9.5" height="9.5"/>
	<rect x="75.9" y="28.5" class="st3" width="9.5" height="9.5"/>
	<rect x="75.9" y="19" class="st1" width="9.5" height="9.5"/>
	<rect x="75.9" y="9.5" class="st1" width="9.5" height="9.5"/>
	<rect x="75.9" class="st1" width="9.5" height="9.5"/>
	<rect x="66.4" y="75.9" class="st0" width="9.5" height="9.5"/>
	<rect x="66.4" y="66.4" class="st1" width="9.5" height="9.5"/>
	<rect x="66.4" y="56.9" class="st1" width="9.5" height="9.5"/>
	<rect x="66.4" y="47.4" class="st1" width="9.5" height="9.5"/>
	<rect x="66.4" y="38" class="st1" width="9.5" height="9.5"/>
	<rect x="66.4" y="28.5" class="st1" width="9.5" height="9.5"/>
	<rect x="66.4" y="19" class="st1" width="9.5" height="9.5"/>
	<rect x="66.4" y="9.5" class="st1" width="9.5" height="9.5"/>
	<rect x="66.4" class="st1" width="9.5" height="9.5"/>
	<rect x="56.9" y="75.9" class="st0" width="9.5" height="9.5"/>
	<rect x="56.9" y="66.4" class="st1" width="9.5" height="9.5"/>
	<rect x="56.9" y="56.9" class="st1" width="9.5" height="9.5"/>
	<rect x="56.9" y="47.4" class="st1" width="9.5" height="9.5"/>
	<rect x="56.9" y="38" class="st2" width="9.5" height="9.5"/>
	<rect x="56.9" y="28.5" class="st2" width="9.5" height="9.5"/>
	<rect x="56.9" y="19" class="st1" width="9.5" height="9.5"/>
	<rect x="56.9" y="9.5" class="st1" width="9.5" height="9.5"/>
	<rect x="56.9" class="st1" width="9.5" height="9.5"/>
	<rect x="47.4" y="75.9" class="st0" width="9.5" height="9.5"/>
	<rect x="47.4" y="66.4" class="st1" width="9.5" height="9.5"/>
	<rect x="47.4" y="56.9" class="st1" width="9.5" height="9.5"/>
	<rect x="47.4" y="47.4" class="st1" width="9.5" height="9.5"/>
	<rect x="47.4" y="38" class="st2" width="9.5" height="9.5"/>
	<rect x="47.4" y="28.5" class="st3" width="9.5" height="9.5"/>
	<rect x="47.4" y="19" class="st1" width="9.5" height="9.5"/>
	<rect x="47.4" y="9.5" class="st1" width="9.5" height="9.5"/>
	<rect x="47.4" class="st1" width="9.5" height="9.5"/>
	<rect x="38" y="94.9" class="st1" width="9.5" height="9.5"/>
	<rect x="38" y="85.4" class="st0" width="9.5" height="9.5"/>
	<rect x="38" y="75.9" class="st0" width="9.5" height="9.5"/>
	<rect x="38" y="66.4" class="st1" width="9.5" height="9.5"/>
	<rect x="38" y="56.9" class="st1" width="9.5" height="9.5"/>
	<rect x="38" y="47.4" class="st1" width="9.5" height="9.5"/>
	<rect x="38" y="38" class="st1" width="9.5" height="9.5"/>
	<rect x="38" y="28.5" class="st1" width="9.5" height="9.5"/>
	<rect x="38" y="19" class="st1" width="9.5" height="9.5"/>
	<rect x="38" y="9.5" class="st1" width="9.5" height="9.5"/>
	<rect x="38" class="st1" width="9.5" height="9.5"/>
	<rect x="28.5" y="104.4" class="st1" width="9.5" height="9.5"/>
	<rect x="28.5" y="94.9" class="st1" width="9.5" height="9.5"/>
	<rect x="28.5" y="85.4" class="st0" width="9.5" height="9.5"/>
	<rect x="28.5" y="75.9" class="st1" width="9.5" height="9.5"/>
	<rect x="28.5" y="66.4" class="st1" width="9.5" height="9.5"/>
	<rect x="28.5" y="56.9" class="st1" width="9.5" height="9.5"/>
	<rect x="28.5" y="47.4" class="st1" width="9.5" height="9.5"/>
	<rect x="28.5" y="38" class="st2" width="9.5" height="9.5"/>
	<rect x="28.5" y="28.5" class="st2" width="9.5" height="9.5"/>
	<rect x="28.5" y="19" class="st1" width="9.5" height="9.5"/>
	<rect x="28.5" y="9.5" class="st4" width="9.5" height="9.5"/>
	<rect x="28.5" class="st1" width="9.5" height="9.5"/>
	<rect x="19" y="94.9" class="st1" width="9.5" height="9.5"/>
	<rect x="19" y="85.4" class="st1" width="9.5" height="9.5"/>
	<rect x="19" y="75.9" class="st1" width="9.5" height="9.5"/>
	<rect x="19" y="66.4" class="st1" width="9.5" height="9.5"/>
	<rect x="19" y="56.9" class="st1" width="9.5" height="9.5"/>
	<rect x="19" y="47.4" class="st1" width="9.5" height="9.5"/>
	<rect x="19" y="38" class="st2" width="9.5" height="9.5"/>
	<rect x="19" y="28.5" class="st3" width="9.5" height="9.5"/>
	<rect x="19" y="19" class="st4" width="9.5" height="9.5"/>
	<rect x="19" y="9.5" class="st4" width="9.5" height="9.5"/>
	<rect x="19" class="st1" width="9.5" height="9.5"/>
	<rect x="9.5" y="75.9" class="st1" width="9.5" height="9.5"/>
	<rect x="9.5" y="66.4" class="st1" width="9.5" height="9.5"/>
	<rect x="9.5" y="56.9" class="st1" width="9.5" height="9.5"/>
	<rect x="9.5" y="47.4" class="st1" width="9.5" height="9.5"/>
	<rect x="9.5" y="38" class="st1" width="9.5" height="9.5"/>
	<rect x="9.5" y="28.5" class="st4" width="9.5" height="9.5"/>
	<rect x="9.5" y="19" class="st4" width="9.5" height="9.5"/>
	<rect x="9.5" y="9.5" class="st4" width="9.5" height="9.5"/>
	<rect x="9.5" class="st1" width="9.5" height="9.5"/>
	<rect y="66.4" class="st1" width="9.5" height="9.5"/>
	<rect y="56.9" class="st1" width="9.5" height="9.5"/>
	<rect y="47.4" class="st1" width="9.5" height="9.5"/>
	<rect y="38" class="st1" width="9.5" height="9.5"/>
	<rect y="28.5" class="st1" width="9.5" height="9.5"/>
	<rect y="19" class="st1" width="9.5" height="9.5"/>
	<rect y="9.5" class="st1" width="9.5" height="9.5"/>
</g>
</svg>
