<?xml version="1.0" encoding="utf-8"?>
<!-- Generator: Adobe Illustrator 27.6.1, SVG Export Plug-In . SVG Version: 6.00 Build 0)  -->
<svg version="1.1" id="Calque_1" xmlns="http://www.w3.org/2000/svg" xmlns:xlink="http://www.w3.org/1999/xlink" x="0px" y="0px"
	 viewBox="0 0 205.24 192.69" style="enable-background:new 0 0 205.24 192.69;" xml:space="preserve">
<style type="text/css">
	.st0{fill:#119D3C;}
</style>
<g>
	<g>
		<g>
			<path class="st0" d="M23.3,192.42v-18.73l-6.26,12.18h-4.33L6.4,173.69v18.73H0v-32.13h6.31l8.56,17.37l8.52-17.37h6.31v32.13
				H23.3z"/>
			<path class="st0" d="M37.34,192.42v-32.13h6.4v32.13H37.34z"/>
			<path class="st0" d="M62.34,192.69c-3.5,0-6.44-1.17-8.84-3.52c-1.43-1.4-2.3-3.02-2.67-4.83c-0.37-1.8-0.55-4.47-0.55-7.99
				c0-3.52,0.18-6.18,0.55-7.99c0.37-1.85,1.24-3.43,2.67-4.83c2.39-2.35,5.34-3.52,8.84-3.52c6.31,0,10.96,3.61,12.06,10.15h-6.49
				c-0.69-2.75-2.44-4.56-5.53-4.56c-1.75,0-3.13,0.54-4.1,1.67c-1.34,1.4-1.61,2.84-1.61,9.07s0.28,7.67,1.61,9.07
				c0.97,1.13,2.35,1.67,4.1,1.67c3.08,0,4.83-1.8,5.53-4.56h6.49C73.29,189.08,68.6,192.69,62.34,192.69z"/>
			<path class="st0" d="M97.33,192.42l-6.4-12.82h-4.6v12.82h-6.4v-32.13h12.84c6.68,0,10.63,4.47,10.63,9.84
				c0,4.51-2.81,7.31-5.98,8.44l7.32,13.85H97.33z M92.35,165.89h-6.03v8.48h6.03c2.81,0,4.65-1.76,4.65-4.24
				C97,167.64,95.16,165.89,92.35,165.89z"/>
			<path class="st0" d="M129.88,189.17c-2.3,2.26-5.11,3.52-8.84,3.52c-3.73,0-6.58-1.26-8.89-3.52c-3.31-3.25-3.22-7.26-3.22-12.81
				c0-5.55-0.09-9.57,3.22-12.82c2.3-2.26,5.16-3.52,8.89-3.52c3.73,0,6.54,1.26,8.84,3.52c3.32,3.25,3.27,7.27,3.27,12.82
				C133.14,181.9,133.19,185.92,129.88,189.17z M125.13,167.33c-0.92-1.04-2.35-1.71-4.1-1.71c-1.75,0-3.22,0.68-4.14,1.71
				c-1.24,1.35-1.57,2.84-1.57,9.03s0.32,7.67,1.57,9.02c0.92,1.04,2.39,1.71,4.14,1.71c1.75,0,3.18-0.68,4.1-1.71
				c1.24-1.35,1.61-2.84,1.61-9.02S126.38,168.68,125.13,167.33z"/>
			<path class="st0" d="M139.68,192.42v-32.13h6.4v32.13H139.68z"/>
			<path class="st0" d="M174.21,189.35c-2.16,2.12-5.25,3.07-8.65,3.07h-11.83v-32.13h11.83c3.41,0,6.49,0.95,8.65,3.07
				c3.68,3.61,3.32,8.03,3.32,12.86S177.89,185.74,174.21,189.35z M169.75,167.87c-1.11-1.31-2.58-1.98-4.79-1.98h-4.83v20.94h4.83
				c2.21,0,3.68-0.68,4.79-1.99c1.2-1.44,1.38-3.75,1.38-8.62S170.94,169.31,169.75,167.87z"/>
			<path class="st0" d="M193.09,192.69c-4.97,0-8.75-1.04-11.97-4.24l4.14-4.06c2.07,2.03,4.88,2.71,7.92,2.71
				c3.78,0,5.8-1.4,5.8-3.97c0-1.13-0.32-2.08-1.01-2.71c-0.64-0.59-1.38-0.9-2.9-1.13l-3.96-0.54c-2.81-0.41-4.88-1.26-6.35-2.66
				c-1.57-1.53-2.35-3.61-2.35-6.32c0-5.73,4.33-9.75,11.42-9.75c4.51,0,7.78,1.08,10.59,3.75l-4.05,3.93
				c-2.07-1.94-4.56-2.21-6.72-2.21c-3.41,0-5.06,1.85-5.06,4.06c0,0.81,0.28,1.67,0.97,2.3c0.64,0.59,1.7,1.08,3.04,1.26l3.87,0.54
				c2.99,0.41,4.88,1.22,6.26,2.48c1.75,1.62,2.53,3.97,2.53,6.81C205.24,189.17,199.95,192.69,193.09,192.69z"/>
		</g>
	</g>
	<path class="st0" d="M132.5,0L45.44,0c-7.38,0-13.39,6-13.39,13.39v87.06c0,22.42,18.24,40.66,40.66,40.66h87.07
		c7.38,0,13.39-6,13.39-13.39V40.66C173.17,18.24,154.93,0,132.5,0z M121.77,108.16c0,0.42-0.36,0.75-0.78,0.69
		c-3.5-0.44-7.31-0.78-11.39-0.99c-0.37-0.02-0.67-0.32-0.67-0.7V45.78c0-0.4,0.34-0.72,0.74-0.7c3.87,0.2,7.71,0.5,11.49,1
		c0.35,0.05,0.61,0.35,0.61,0.7V108.16z M146.54,114.44c-1.67-0.54-5.59-1.74-11.38-3.08c-0.32-0.07-0.55-0.36-0.55-0.68V36.17
		c0-0.33-0.23-0.62-0.55-0.69c-10.28-2.3-20.93-3.41-31.9-3.41c-10.63,0-21.16,1.26-31.15,3.42c-0.32,0.07-0.55,0.36-0.55,0.69
		v61.38c0,0.45,0.41,0.78,0.85,0.68c3.74-0.8,7.53-1.51,11.38-2.02c0.35-0.05,0.61-0.34,0.61-0.69V46.79c0-0.35,0.26-0.65,0.61-0.7
		c3.78-0.47,7.61-0.84,11.48-1.01c0.4-0.02,0.74,0.3,0.74,0.7v61.39c0,0.37-0.3,0.68-0.67,0.7c-17.95,0.84-33.08,5.36-36.87,6.58
		c-0.45,0.15-0.91-0.19-0.91-0.67V26.8c0-0.31,0.2-0.58,0.49-0.67c13.88-4.36,28.71-6.92,44.04-6.89c0.22,0,0.39,0.08,0.55,0.26
		l10.54,12.49c0.25,0.3,0.7,0.33,0.99,0.08l12.36-10.58c0.16-0.14,0.37-0.2,0.58-0.16c6.79,1.18,13.32,2.72,19.75,4.8
		c0.29,0.09,0.49,0.37,0.49,0.67l0,86.98C147.45,114.25,146.99,114.59,146.54,114.44z"/>
</g>
</svg>
