<?xml version="1.0" encoding="utf-8"?>
<!-- Generator: $$$/GeneralStr/196=Adobe Illustrator 27.6.0, SVG Export Plug-In . SVG Version: 6.00 Build 0)  -->
<svg version="1.1" id="Calque_1" xmlns="http://www.w3.org/2000/svg" xmlns:xlink="http://www.w3.org/1999/xlink" x="0px" y="0px"
	 viewBox="0 0 200.7 362.4" style="enable-background:new 0 0 200.7 362.4;" xml:space="preserve">
<style type="text/css">
	.st0{fill:#1EAA63;}
	.st1{fill:#2D1632;}
	.st2{fill:#2C2D71;}
</style>
<g>
	<rect x="195.4" y="342.3" class="st0" width="5.3" height="20.1"/>
</g>
<g>
	<rect x="29.3" y="75.1" class="st1" width="15.2" height="56"/>
</g>
<g>
	<rect x="0" y="288.5" class="st2" width="5" height="20.1"/>
</g>
<g>
	<rect x="75.2" y="43.4" class="st2" width="1.4" height="69.7"/>
</g>
<g>
	<rect x="111.1" y="24.2" class="st2" width="2.2" height="2.2"/>
</g>
<g>
	<rect x="156.5" y="130.6" class="st0" width="1" height="47.9"/>
</g>
<g>
	<rect x="188.1" y="0" class="st1" width="5.4" height="68.7"/>
</g>
<g>
	<rect x="120.9" y="181.8" class="st1" width="1.4" height="77.3"/>
</g>
<g>
	
		<rect x="179.3" y="70.3" transform="matrix(-4.122985e-13 1 -1 -4.122985e-13 266.4369 -109.8506)" class="st2" width="17.7" height="15.9"/>
</g>
<g>
	
		<rect x="20.5" y="286.9" transform="matrix(6.123234e-17 -1 1 6.123234e-17 -265.6003 324.1797)" class="st2" width="17.7" height="15.9"/>
</g>
<g>
	<rect x="153.9" y="166.2" class="st1" width="2.2" height="2.5"/>
</g>
<g>
	<rect x="43.3" y="249.9" class="st2" width="2.2" height="0.8"/>
</g>
</svg>
