<?xml version="1.0" encoding="utf-8"?>
<!-- Generator: Adobe Illustrator 27.7.0, SVG Export Plug-In . SVG Version: 6.00 Build 0)  -->
<svg version="1.1" id="Calque_1" xmlns="http://www.w3.org/2000/svg" xmlns:xlink="http://www.w3.org/1999/xlink" x="0px" y="0px"
	 viewBox="0 0 784 980" style="enable-background:new 0 0 784 980;" xml:space="preserve">
<path d="M744.8,431.2h-39.2V392h-39.2v-39.2h-39.2v-39.2H588v-39.2h-39.2v-39.2h-39.2V196h-39.2v-39.2h-39.2v-39.2h-78.4v39.2h-39.2
	V196h-39.2v39.2h-39.2v39.2H196v39.2h-39.2v39.2h-39.2V392H78.4v39.2H39.2v39.2H0v39.2h39.2v39.2h39.2v-39.2h39.2v-39.2h39.2v-39.2
	H196V392h39.2v-39.2h39.2v-39.2h39.2v-39.2h39.2V980h78.4V274.4h39.2v39.2h39.2v39.2h39.2V392H588v39.2h39.2v39.2h39.2v39.2h39.2
	v39.2h39.2v-39.2H784v-39.2h-39.2V431.2z M0,0v78.4h784V0H0z"/>
</svg>
