<?xml version="1.0" encoding="utf-8"?>
<!-- Generator: Adobe Illustrator 27.7.0, SVG Export Plug-In . SVG Version: 6.00 Build 0)  -->
<svg version="1.1" id="Calque_1" xmlns="http://www.w3.org/2000/svg" xmlns:xlink="http://www.w3.org/1999/xlink" x="0px" y="0px"
	 viewBox="0 0 837.8 97.7" style="enable-background:new 0 0 837.8 97.7;" xml:space="preserve">
<style type="text/css">
	.st0{fill:none;}
	.st1{fill:#FFFFFF;}
</style>
<polygon class="st0" points="820.4,97.7 819.9,0 258.3,0 258.8,97.7 "/>
<path class="st1" d="M9.6,77.5c-2.3,0.1-4.7,0.2-7.5,0.4V85H0v12.7h32.5V85.5h7.1v12.2H534v-4.7h7.1v4.7h296.7V70.1h-7.5v-7.7h-7.8
	V55H815v7.2h-7.7V55H792v14.8h-15.2v-7.2h-15.3v-7.3h-22.8v14.6h-15.2v-7.3h-7.4v15h7.3V85h-15V62.6H701v7.6h-7.6V85h-7.7V70.2H678
	V55.1h-14.8c-0.1,2.5-0.2,4.8-0.4,7.1h-7.6v-7.1h-7.5v7.3h-7.4v-7.2h-15.4v7h-15.2V47.5h-7.5v15h-7.4c-0.1,2.5-0.2,5.1-0.2,7.6
	h-15.1v-7.6h-7.7V47.4h-7.4v15.3h-15.4v14.8h-7.6v-7.3h-7.4v7.6h-15.2V85h-7.7v-7.2h-7.7v-7.5H496c-0.1,2.5-0.2,4.8-0.4,7.1H488v-15
	h-7.2c-0.1-2.6-0.3-4.9-0.4-7.6h-7.5v-7.4h-7.7v7.3h-14.9c-0.1-2.5-0.2-4.8-0.3-7.1h-30.3v22.6h-7.4v7.2H397V62.5h-38v7.2H344V55.1
	c2.5-0.1,4.8-0.3,7.1-0.4v-7.3h-14.8v30.1h-7.8v-15h-7.4V47.5h-7.8v7.4h-7.4v14.8h-7.8v-7h-15.2v7h-30.5V55.1h-7.5v7.4h-7.4v7.7h7.5
	v7.4h-15.3v-7.7H207v-15h-7.5v7.3h-22.6v-7.1h7.3v-7.7h-22.7V70H154v7.4h-7.8V62.5h-7.7v7.3H131v-7.3h-7.4v14.8h-15.4V55.1h-7.6
	v14.6H85.7V55c2.5-0.1,4.8-0.2,7.1-0.4v-7.1H77.7V55h-7.5v7.4c-2.5,0-5,0.1-7.5,0.1v7.7H55v7.2h-7.6v-7.6h-7.6V55
	c-2.6-0.1-4.9-0.3-7.6-0.4v-7.3h-7.4V55h-7.8v7.1H1.7v-7.5H0v15.7h9.6V77.5z M807.2,77.9v-7.6h7.6v7.2h15v7.6H800v-7.1H807.2z
	 M769.4,77.7h7.2V85h-7.2V77.7z M761.8,70.4h7.5v7.2h-7.5V70.4z M754.4,77.7h7.3V85h-7.3V77.7z M739.2,85.6h7.1v7.1h-7.1V85.6z
	 M655.4,77.7h7.2V85h-7.2V77.7z M648.1,70.4h7.2v7.3h-7.2V70.4z M632.9,62.5h7.3v14.8h-7.3V62.5z M632.3,85.5v7.1h-14.7v-7.1H632.3z
	 M594.5,70.3c10,0,20,0,30.3,0v7h-30.3V70.3z M564.5,70.2h7V85h-7V70.2z M473.1,62.8V70h7.2v7.4h-14.7V62.8H473.1z M465.6,85.6h7.2
	v7h-7.2V85.6z M450.4,62.7h7.1v14.8h-7.1V62.7z M435.1,62.8h7.3v7.2h-7.3V62.8z M427.5,70.2h7.5v7.4h-7.5V70.2z M420.1,77.7h7.3V85
	h-7.3V77.7z M382.1,70.3h7.1v7.1h-7.1V70.3z M366.9,70.4h7.1v7.1h-7.1V70.4z M344.1,78h7.2V85h-7.2V78z M313.7,62.5h7.3v7.2h-7.3
	V62.5z M275.8,77.8h6.9V85h-6.9V77.8z M245.1,77.8h14.8V85h-14.8V77.8z M214.8,78h7.2v7h-7.2V78z M184.3,70.4h14.8v7.2h-14.8V70.4z
	 M176.9,77.7h7.3V85h-7.3V77.7z M138.7,85.4h7.2v7.3h-7.2V85.4z M131.4,78h7.2v7.3h-7.2V78z M70.3,62.6h7.2v7.3h-7.2V62.6z
	 M17.1,70.2h7.3c0.1-2.7,0.3-5,0.4-7.5H32v14.9H17.1V70.2z M9.7,77.6c2.5,0,4.9,0.1,7.4,0.1V85H9.7V77.6z"/>
<path class="st1" d="M837.8,62.5c-2.5,0-5.1,0-7.7,0.1c0-2.4,0-4.7,0-7.7c2.7,0,5.2,0,7.7,0C837.8,57.4,837.8,60,837.8,62.5z"/>
<path class="st1" d="M518.7,70.2c0-2.6,0-5.1,0-7.7l-0.1,0.1c2.5,0,5,0,7.7,0c0-3,0-5.3,0-7.7l-0.1,0.1c2.4,0,4.7,0,7.5,0
	c0-5.1,0-9.9,0-15c2.7,0,5,0,7.6,0c0,2.3,0,4.5,0,7.2c2.6,0,4.9,0,7.4,0c0,2.7,0,5,0,7.6c-2.3,0.1-4.7,0.2-7.2,0.4
	c0,2.4,0,4.6,0,7.2c-2.6,0-4.9,0-7.8,0c0,2.9,0,5.4,0,7.8l0.1-0.1c-5.1,0-10.2,0-15.3,0L518.7,70.2z"/>
<path class="st1" d="M503.3,39.7c0,4.9,0,9.8,0,15.3c5.3,0,10.3,0,15.3,0l-0.1-0.1c0,2.6,0,5.1,0,7.7l0.1-0.1c-7.4,0-14.9,0-22.8,0
	c0-5,0-9.9,0-15c-2.6,0-4.9,0-7.4,0c0-2.6,0-4.9,0-7.7c4.9,0,9.9,0,14.9,0L503.3,39.7z"/>
<path class="st1" d="M693.4,62.6c0-4.9,0-9.8,0-15c5,0,9.8,0,15.1,0c0,2.4,0,4.9,0,7.4l0.1-0.1c-2.5,0-5,0-7.7,0c0,3,0,5.3,0,7.7
	l0.1-0.1c-2.6,0-5.1,0-7.7,0L693.4,62.6z"/>
<path class="st1" d="M397.1,62.6c0-4.9,0-9.8,0-15c5,0,9.9,0,14.9,0c0,2.3,0,4.5,0,7.1c-2.2,0-4.5,0-7.4,0c0,2.9,0,5.4,0,7.9
	l0.1-0.1c-2.6,0-5.1,0-7.7,0L397.1,62.6z"/>
<path class="st1" d="M237.5,62.5c-7.4,0-14.8,0-22.5,0c0-2.4,0-4.7,0-7.3c7.3,0,14.6,0,22.4,0c0,2.5,0,4.9,0,7.4
	C237.4,62.6,237.5,62.5,237.5,62.5z"/>
<path class="st1" d="M146.3,62.6c0-2.4,0-4.7,0-7.5c-2.5,0-4.8,0-7.4,0c0-2.7,0-5,0-7.7c5,0,10,0,15,0l-0.1-0.1c0,5,0,10,0,15.2
	c-2.8,0-5.2,0-7.6,0L146.3,62.6z"/>
<path class="st1" d="M366.4,47.4c3,0,5.1,0,7.6,0c0,2.5,0,4.7,0,7.2c-4.7,0-9.6,0-14.7,0c0-4.8,0-9.6,0-14.6c2.3,0,4.5,0,7.1,0
	C366.4,42.2,366.4,44.5,366.4,47.4z"/>
<path class="st1" d="M85.5,32.3c0-2.9,0-5.1,0-7.6c2.5,0,4.7,0,7.2,0c0,4.7,0,9.6,0,14.7c-4.8,0-9.6,0-14.7,0c0-2.3,0-4.5,0-7.1
	C80.3,32.3,82.6,32.3,85.5,32.3z"/>
<path class="st1" d="M579.5,62.6c0-2.4,0-4.7,0-7.4c5,0,9.8,0,15.1,0c0,2.4,0,4.9,0,7.4l0.1-0.1c-5.1,0-10.2,0-15.3,0L579.5,62.6z"
	/>
<path class="st1" d="M716.4,55.1c0-2.5,0-4.9,0-7.6c5,0,9.8,0,14.8,0c0,2.4,0,4.6,0,7.5c-5,0-9.9,0-14.9,0
	C716.3,55,716.4,55.1,716.4,55.1z"/>
<path class="st1" d="M305.9,54.9c-2.4,0-4.7,0-7.4,0c0-4.9,0-9.8,0-14.9c2.2,0,4.5,0,7.3,0c0,5,0,10,0,15
	C305.8,55,305.9,54.9,305.9,54.9z"/>
<path class="st1" d="M746.8,47.1c0-4.9,0-9.6,0-14.6c2.3,0,4.6,0,7.1,0c0,4.8,0,9.6,0,14.6C751.5,47.1,749.2,47.1,746.8,47.1z"/>
<path class="st1" d="M670.5,40c0,2.4,0,4.5,0,6.9c-4.9,0-9.7,0-14.8,0c0-2.2,0-4.5,0-6.9C660.6,40,665.5,40,670.5,40z"/>
<path class="st1" d="M564.3,47.3c-2.4,0-4.7,0-7.4,0c0-4.9,0-9.8,0-14.9c2.2,0,4.5,0,7.3,0c0,5,0,10,0,15
	C564.2,47.4,564.3,47.3,564.3,47.3z"/>
<path class="st1" d="M161.4,32.1c0,5.1,0,10.2,0,15.3l0.1-0.1c-2.6,0-5.1,0-7.7,0l0.1,0.1c0-4.9,0-9.8,0-15.2c2.7,0,5.1,0,7.6,0
	L161.4,32.1z"/>
<path class="st1" d="M511.1,77.8c0-2.4,0-4.8,0-7.6c2.7,0,5.1,0,7.6,0l-0.1-0.1c0,2.6,0,5.1,0,7.7l0.1-0.1c-2.6,0-5.1,0-7.7,0
	L511.1,77.8z"/>
<path class="st1" d="M685.8,70.2c0-2.4,0-4.8,0-7.6c2.6,0,5.1,0,7.6,0l-0.1-0.1c0,2.6,0,5.1,0,7.7l0.1-0.1c-2.6,0-5.1,0-7.7,0
	L685.8,70.2z"/>
<path class="st1" d="M404.5,62.6c2.4,0,4.8,0,7.6,0c0,2.6,0,5.1,0,7.6l0.1-0.1c-2.5,0-5,0-7.6,0c0-2.9,0-5.2,0-7.6L404.5,62.6z"/>
<path class="st1" d="M777,62.6c0-2.4,0-4.7,0-7.4c2.4,0,4.7,0,7.3,0c0,2.2,0,4.5,0,7.2c-2.5,0-4.9,0-7.4,0
	C776.9,62.5,777,62.6,777,62.6z"/>
<path class="st1" d="M708.5,55c2.6,0,5.3,0.1,7.9,0.1c0,0-0.1-0.1-0.1-0.1c0,2.5-0.1,5.1-0.2,7.6l0.1-0.1c-2.6,0-5.1,0-7.7,0
	l0.1,0.1c0-2.6,0-5.1,0-7.7L708.5,55z"/>
<path class="st1" d="M267.6,62.3c-2.4,0-4.6,0-7.1,0c0-2.4,0-4.6,0-7.2c2.3,0,4.6,0,7.1,0C267.6,57.5,267.6,59.7,267.6,62.3z"/>
<path class="st1" d="M123.5,62.5c-2.4,0-4.7,0-7.4,0c0-2.4,0-4.7,0-7.5c2.4,0,4.9,0,7.4,0l-0.1-0.1c0,2.6,0,5.1,0,7.7L123.5,62.5z"
	/>
<path class="st1" d="M62.8,62.5c-2.4,0-4.7,0-7.4,0c0-2.4,0-4.7,0-7.3c2.2,0,4.5,0,7.2,0c0,2.5,0,4.9,0,7.4
	C62.6,62.6,62.8,62.5,62.8,62.5z"/>
<path class="st1" d="M807.4,55c0-2.4,0-4.7,0-7.6c2.6,0,5.1,0,7.6,0l-0.1-0.1c0,2.6,0,5.1,0,7.7l0.1-0.1c-2.6,0-5.1,0-7.7,0
	L807.4,55z"/>
<path class="st1" d="M518.7,55c0-2.4,0-4.7,0-7.4c2.4,0,4.7,0,7.5,0c0,2.4,0,4.9,0,7.4l0.1-0.1c-2.6,0-5.1,0-7.7,0L518.7,55z"/>
<path class="st1" d="M275.6,54.7c0-2.4,0-4.6,0-7.1c2.3,0,4.6,0,7.2,0c0,2.3,0,4.6,0,7.1C280.5,54.7,278.3,54.7,275.6,54.7z"/>
<path class="st1" d="M191.8,47.4c2.4,0,4.7,0,7.6,0c0,2.6,0,5.1,0,7.6l0.1-0.1c-2.5,0-5,0-7.6,0c0-2.9,0-5.2,0-7.6L191.8,47.4z"/>
<path class="st1" d="M123.5,55c0-2.4,0-4.7,0-7.4c2.4,0,4.7,0,7.3,0c0,2.2,0,4.5,0,7.2c-2.5,0-4.9,0-7.4,0
	C123.4,54.9,123.5,55,123.5,55z"/>
<path class="st1" d="M815,47.4c0-2.4,0-4.7,0-7.4c2.4,0,4.7,0,7.3,0c0,2.2,0,4.5,0,7.2c-2.5,0-4.9,0-7.4,0L815,47.4z"/>
<path class="st1" d="M473.1,47.4c0-2.4,0-4.7,0-7.4c2.4,0,4.7,0,7.3,0c0,2.2,0,4.5,0,7.2c-2.5,0-4.9,0-7.4,0L473.1,47.4z"/>
<path class="st1" d="M336.3,47.3c-2.4,0-4.7,0-7.4,0c0-2.4,0-4.7,0-7.3c2.2,0,4.5,0,7.2,0c0,2.5,0,4.9,0,7.4
	C336.2,47.4,336.3,47.3,336.3,47.3z"/>
<path class="st1" d="M237.8,39.9c2.4,0,4.5,0,7,0c0,2.4,0,4.7,0,7.2c-2.3,0-4.5,0-7,0C237.8,44.9,237.8,42.6,237.8,39.9z"/>
<path class="st1" d="M184.3,47.4c0-2.4,0-4.7,0-7.4c2.4,0,4.7,0,7.5,0c0,2.4,0,4.9,0,7.4l0.1-0.1c-2.6,0-5.1,0-7.7,0L184.3,47.4z"/>
<path class="st1" d="M100.9,39.9c2.4,0,4.6,0,7.1,0c0,2.3,0,4.6,0,7.1c-2.2,0-4.5,0-7.1,0C100.9,44.8,100.9,42.6,100.9,39.9z"/>
<path class="st1" d="M24.8,47.3c-2.4,0-4.7,0-7.4,0c0-2.4,0-4.7,0-7.3c2.2,0,4.5,0,7.2,0c0,2.5,0,4.9,0,7.4
	C24.6,47.4,24.8,47.3,24.8,47.3z"/>
<path class="st1" d="M594.8,39.5c0-2.4,0-4.6,0-7.1c2.3,0,4.6,0,7.2,0c0,2.3,0,4.6,0,7.1C599.6,39.5,597.4,39.5,594.8,39.5z"/>
<path class="st1" d="M503.4,39.8c0-2.4,0-4.7,0-7.4c2.4,0,4.7,0,7.3,0c0,2.2,0,4.5,0,7.2c-2.5,0-4.9,0-7.4,0
	C503.3,39.7,503.4,39.8,503.4,39.8z"/>
<path class="st1" d="M283.3,32.3c2.5,0,4.8,0,7.1,0c0,2.4,0,4.6,0,7.1c-2.3,0-4.6,0-7.1,0C283.3,37.2,283.3,34.9,283.3,32.3z"/>
<path class="st1" d="M724,24.7c2.4,0,4.6,0,7.1,0c0,2.3,0,4.6,0,7.1c-2.2,0-4.5,0-7.1,0C724,29.6,724,27.4,724,24.7z"/>
<path class="st1" d="M708.7,31.8c0-2.4,0-4.6,0-7c2.4,0,4.7,0,7.2,0c0,2.3,0,4.5,0,7C713.8,31.8,711.5,31.8,708.7,31.8z"/>
<path class="st1" d="M617.6,24.7c2.4,0,4.6,0,7.1,0c0,2.3,0,4.6,0,7.1c-2.2,0-4.5,0-7.1,0C617.6,29.6,617.6,27.4,617.6,24.7z"/>
<path class="st1" d="M579.6,24.7c2.4,0,4.6,0,7.1,0c0,2.3,0,4.6,0,7.1c-2.2,0-4.5,0-7.1,0C579.6,29.6,579.6,27.4,579.6,24.7z"/>
<path class="st1" d="M534,24.6c2.5,0,4.6,0,7,0c0,2.4,0,4.6,0,7.2c-2.2,0-4.5,0-7,0C534,29.5,534,27.2,534,24.6z"/>
<path class="st1" d="M427.6,24.7c2.4,0,4.6,0,7.1,0c0,2.4,0,4.6,0,7.2c-2.3,0-4.6,0-7.1,0C427.6,29.5,427.6,27.3,427.6,24.7z"/>
<path class="st1" d="M267.5,31.9c-2.4,0-4.6,0-7,0c0-2.4,0-4.7,0-7.2c2.3,0,4.5,0,7,0C267.5,27,267.5,29.3,267.5,31.9z"/>
<path class="st1" d="M214.6,24.6c2.3,0,4.7,0,7.3,0c0,2.4,0,4.7,0,7.2c-2.2,0-4.5,0-7.2,0c0-2.5,0-4.9,0-7.4L214.6,24.6z"/>
<path class="st1" d="M161.5,32.2c0-2.4,0-4.7,0-7.4c2.4,0,4.7,0,7.3,0c0,2.2,0,4.5,0,7.3c-2.5,0-4.9,0-7.4,0
	C161.4,32.1,161.5,32.2,161.5,32.2z"/>
<path class="st1" d="M101,24.7c2.4,0,4.5,0,7,0c0,2.4,0,4.7,0,7.2c-2.3,0-4.5,0-7,0C101,29.7,101,27.4,101,24.7z"/>
<path class="st1" d="M40.2,24.7c2.4,0,4.6,0,7,0c0,2.4,0,4.7,0,7.2c-2.3,0-4.5,0-7,0C40.2,29.7,40.2,27.4,40.2,24.7z"/>
<path class="st1" d="M791.9,24.4c-2.5,0-4.6,0-7,0c0-2.4,0-4.6,0-7.2c2.2,0,4.5,0,7,0C791.9,19.5,791.9,21.8,791.9,24.4z"/>
<path class="st1" d="M237.2,24.3c-2.4,0-4.6,0-7.1,0c0-2.4,0-4.6,0-7.2c2.3,0,4.6,0,7.1,0C237.2,19.5,237.2,21.7,237.2,24.3z"/>
<path class="st1" d="M214.7,24.5c-2.4,0-4.7,0-7.4,0c0-2.4,0-4.7,0-7.3c2.2,0,4.5,0,7.2,0c0,2.5,0,4.9,0,7.4
	C214.6,24.6,214.7,24.5,214.7,24.5z"/>
<path class="st1" d="M2.1,17.1c2.4,0,4.6,0,7.1,0c0,2.3,0,4.6,0,7.1c-2.2,0-4.5,0-7.1,0C2.1,22,2.1,19.8,2.1,17.1z"/>
<path class="st1" d="M313.1,16.7c-2.4,0-4.6,0-7,0c0-2.4,0-4.7,0-7.2c2.3,0,4.5,0,7,0C313.1,11.8,313.1,14.1,313.1,16.7z"/>
<path class="st1" d="M290.7,16.6c0-2.4,0-4.5,0-6.9c2.4,0,4.7,0,7.2,0c0,2.2,0,4.5,0,6.9C295.5,16.6,293.1,16.6,290.7,16.6z"/>
<path class="st1" d="M829.8,9.1c-2.5,0-4.7,0-7.1,0c0-2.4,0-4.6,0-7.1c2.2,0,4.5,0,7.1,0C829.8,4.2,829.8,6.5,829.8,9.1z"/>
<path class="st1" d="M534,9c0-2.5,0-4.7,0-7.1c2.4,0,4.6,0,7.1,0c0,2.2,0,4.5,0,7.1C538.9,9,536.6,9,534,9z"/>
</svg>
