<?xml version="1.0" encoding="utf-8"?>
<!-- Generator: Adobe Illustrator 27.7.0, SVG Export Plug-In . SVG Version: 6.00 Build 0)  -->
<svg version="1.1" id="Layer_1" xmlns="http://www.w3.org/2000/svg" xmlns:xlink="http://www.w3.org/1999/xlink" x="0px" y="0px"
	 viewBox="0 0 561.6 288" style="enable-background:new 0 0 561.6 288;" xml:space="preserve">
<style type="text/css">
	.st0{fill:#FFFFFF;}
	.st1{clip-path:url(#SVGID_00000106842809619641681480000012942667358941770425_);fill:#FFFFFF;}
</style>
<rect y="0" class="st0" width="561.6" height="288"/>
<g>
	<defs>
		<rect id="SVGID_1_" width="561.6" height="288"/>
	</defs>
	<clipPath id="SVGID_00000129911648147049780820000010084069107219694991_">
		<use xlink:href="#SVGID_1_"  style="overflow:visible;"/>
	</clipPath>
	<path style="clip-path:url(#SVGID_00000129911648147049780820000010084069107219694991_);fill:#FFFFFF;" d="M-259.3,129.7v15.6h9.6
		v7.2c-2.3,0.1-4.7,0.2-7.5,0.4v7.1h-2.1v159.9h837.7V145.1h-7.5c0-2.7,0-5.2,0-7.7h-7.8V130h-7.4v7.2H548V130h-15.2v14.9h-15.2
		v-7.2h-15.3v-7.3h-22.8v14.6h-15.2v-7.3h-7.4v15h7.3v7.4h-15v-22.4h-7.5v7.6h-7.6V160h-7.7v-14.8h-7.7v-15.1h-14.8
		c-0.1,2.5-0.2,4.8-0.4,7.1h-7.6v-7.1h-7.5v7.3h-7.4c0-2.4,0-4.9,0-7.2h-15.4v7h-15.2v-14.7h-7.5v15h-7.4c-0.1,2.5-0.2,5.1-0.2,7.6
		H320v-7.6h-7.7v-15.2h-7.4v15.3h-15.4v14.8H282v-7.3h-7.4v7.6h-15.2v7.2h-7.7v-7.2h-7.7v-7.5h-7.2c-0.1,2.5-0.2,4.8-0.4,7.1h-7.6
		v-15h-7.2c-0.1-2.6-0.3-4.9-0.4-7.6h-7.5v-7.4h-7.7v7.3H191c-0.1-2.5-0.2-4.8-0.3-7.1h-30.3v22.6h-7.4v7.2h-15.3v-14.9h-38v7.2
		H84.7v-14.7c2.5-0.1,4.8-0.3,7.1-0.4v-7.3H77v30.1h-7.8v-15h-7.4c0-4.9,0-9.9,0-14.9h-7.8v7.4h-7.4v14.8h-7.8v-7.1H23.6v7.1H-6.9
		v-14.6h-7.5v7.4h-7.4v7.7h7.5v7.4c-5,0-9.9,0-15.3,0v-7.7h-22.7v-15h-7.5v7.3h-22.6v-7.1h7.3v-7.7h-22.7V145h-7.5v7.4h-7.8v-14.8
		h-7.7v7.3h-7.5v-7.3h-7.4v14.8h-15.4v-22.2h-7.6v14.6h-14.9V130c2.5-0.1,4.8-0.2,7.1-0.4v-7.1h-15.1v7.4h-7.5v7.4
		c-2.5,0-5,0.1-7.5,0.1v7.7h-7.8v7.2h-7.6v-7.6h-7.6V130c-2.6-0.1-4.9-0.3-7.6-0.4v-7.3h-7.4v7.7h-7.8v7.1h-15.2v-7.5L-259.3,129.7
		L-259.3,129.7z M540.7,152.9h7.2v-7.6h7.6v7.2h15v7.6h-29.9L540.7,152.9L540.7,152.9z M510.1,152.7h7.2v7.3h-7.2V152.7z
		 M502.5,145.4h7.5v7.2c-2.5,0-5,0-7.5,0C502.5,150.3,502.5,148,502.5,145.4z M495.1,152.7h7.3v7.2h-7.3V152.7z M479.8,160.6h7.1
		v7.1h-7.1V160.6z M396.1,152.7h7.2v7.3h-7.2V152.7z M388.7,145.4h7.2v7.3c-2.3,0-4.6,0-7.2,0V145.4z M373.5,137.5
		c2.4,0,4.9,0,7.3,0v14.8h-7.3V137.5z M372.9,160.5v7.1h-14.7v-7.1H372.9z M335.2,145.3c10,0,20,0,30.3,0v7h-30.3V145.3z
		 M305.1,145.2h7V160h-7V145.2z M274.7,168.1h7.1v7.1h-7.1V168.1z M206.3,137.8h7.5v7.2h7.2v7.4h-14.7L206.3,137.8L206.3,137.8z
		 M206.2,160.6h7.2v7h-7.2V160.6z M191.1,137.7h7.1v14.8h-7.1V137.7z M175.7,137.8h7.3v7.2h-7.3V137.8z M168.2,145.2h7.5
		c0,2.3,0,4.7,0,7.4h-7.5C168.2,150.3,168.2,148,168.2,145.2z M160.8,152.7h7.3v7.2h-7.3V152.7z M122.8,145.3h7.1v7.1h-7.1V145.3z
		 M107.6,145.4h7.1v7.1h-7.1V145.4z M84.8,153H92v6.9h-7.2V153z M54.4,137.5c2.4,0,4.9,0,7.3,0v7.2h-7.3V137.5z M16.5,152.8h6.9v7.2
		h-6.9V152.8z M0.6,152.8v7.3h-14.8c0-2.4,0-4.8,0-7.3H0.6z M-44.5,153h7.2v7h-7.2V153z M-75,145.4h14.8v7.2H-75
		C-75,150.3-75,148-75,145.4z M-82.4,152.7h7.3v7.2h-7.3V152.7z M-120.6,160.4c2.3,0,4.6,0,7.2,0v7.3h-7.2V160.4z M-128,153h7.2v7.3
		h-7.2V153z M-181.8,137.6v7.3h-7.2c0-2.4,0-4.9,0-7.3H-181.8z M-226.8,160.5h7.1v14.8h-7.1V160.5z M-242.2,145.2h7.3
		c0.1-2.7,0.3-5,0.4-7.5h7.1v14.9h-14.8C-242.2,150.3-242.2,148-242.2,145.2z M-249.7,152.6c2.5,0.1,4.9,0.1,7.4,0.1v7.2h-7.4V152.6
		z"/>
	<path style="clip-path:url(#SVGID_00000129911648147049780820000010084069107219694991_);fill:#FFFFFF;" d="M578.4,137.5
		c-2.5,0-5.1,0-7.7,0.1c0-2.4,0-4.7,0-7.7c2.7,0,5.2,0,7.7,0C578.4,132.4,578.4,135,578.4,137.5z"/>
	<path style="clip-path:url(#SVGID_00000129911648147049780820000010084069107219694991_);fill:#FFFFFF;" d="M259.3,145.1
		c0-2.6,0-5.1,0-7.7l-0.1,0.1c2.5,0,5,0,7.7,0c0-3,0-5.3,0-7.7l-0.1,0.1c2.4,0,4.7,0,7.5,0c0-5.1,0-9.9,0-15c2.7,0,5,0,7.6,0
		c0,2.3,0,4.5,0,7.2c2.6,0,4.9,0,7.4,0c0,2.7,0,5,0,7.6c-2.3,0.1-4.6,0.2-7.2,0.4c0,2.4,0,4.6,0,7.2c-2.6,0-4.9,0-7.8,0
		c0,2.9,0,5.4,0,7.8l0.1-0.1c-5.1,0-10.2,0-15.3,0L259.3,145.1z"/>
	<path style="clip-path:url(#SVGID_00000129911648147049780820000010084069107219694991_);fill:#FFFFFF;" d="M244,114.6
		c0,4.9,0,9.8,0,15.3c5.3,0,10.3,0,15.3,0l-0.1-0.1c0,2.6,0,5.1,0,7.7l0.1-0.1c-7.4,0-14.9,0-22.8,0c0-5,0-9.9,0-15
		c-2.6,0-4.9,0-7.4,0c0-2.6,0-4.9,0-7.7c4.9,0,9.9,0,14.9,0L244,114.6z"/>
	<path style="clip-path:url(#SVGID_00000129911648147049780820000010084069107219694991_);fill:#FFFFFF;" d="M434.1,137.6
		c0-4.9,0-9.8,0-15c5,0,9.8,0,15.1,0c0,2.4,0,4.9,0,7.4l0.1-0.1c-2.5,0-5,0-7.7,0c0,3,0,5.3,0,7.7l0.1-0.1c-2.6,0-5.1,0-7.7,0
		L434.1,137.6z"/>
	<path style="clip-path:url(#SVGID_00000129911648147049780820000010084069107219694991_);fill:#FFFFFF;" d="M137.8,137.6
		c0-4.9,0-9.8,0-15c5,0,9.9,0,14.9,0c0,2.3,0,4.5,0,7.1c-2.2,0-4.5,0-7.4,0c0,2.9,0,5.4,0,7.9l0.1-0.1c-2.6,0-5.1,0-7.7,0
		L137.8,137.6z"/>
	<path style="clip-path:url(#SVGID_00000129911648147049780820000010084069107219694991_);fill:#FFFFFF;" d="M-21.8,137.4
		c-7.4,0-14.8,0-22.5,0c0-2.4,0-4.7,0-7.3c7.3,0,14.6,0,22.4,0c0,2.5,0,4.9,0,7.4C-21.9,137.6-21.8,137.4-21.8,137.4z"/>
	<path style="clip-path:url(#SVGID_00000129911648147049780820000010084069107219694991_);fill:#FFFFFF;" d="M-113,137.6
		c0-2.4,0-4.7,0-7.5c-2.5,0-4.8,0-7.4,0c0-2.7,0-5,0-7.7c5,0,10,0,15,0l-0.1-0.1c0,5,0,10,0,15.2c-2.8,0-5.2,0-7.6,0L-113,137.6z"/>
	<path style="clip-path:url(#SVGID_00000129911648147049780820000010084069107219694991_);fill:#FFFFFF;" d="M107.1,122.4
		c3,0,5.1,0,7.6,0c0,2.5,0,4.7,0,7.2c-4.7,0-9.6,0-14.7,0c0-4.8,0-9.6,0-14.6c2.3,0,4.5,0,7.1,0
		C107.1,117.1,107.1,119.4,107.1,122.4z"/>
	<path style="clip-path:url(#SVGID_00000129911648147049780820000010084069107219694991_);fill:#FFFFFF;" d="M-173.8,107.3
		c0-2.9,0-5.1,0-7.6c2.5,0,4.7,0,7.2,0c0,4.7,0,9.6,0,14.7c-4.8,0-9.6,0-14.7,0c0-2.3,0-4.5,0-7.1
		C-179,107.3-176.7,107.3-173.8,107.3z"/>
	<path style="clip-path:url(#SVGID_00000129911648147049780820000010084069107219694991_);fill:#FFFFFF;" d="M320.1,137.6
		c0-2.4,0-4.7,0-7.4c5,0,9.8,0,15.1,0c0,2.4,0,4.9,0,7.4l0.1-0.1c-5.1,0-10.2,0-15.3,0L320.1,137.6z"/>
	<path style="clip-path:url(#SVGID_00000129911648147049780820000010084069107219694991_);fill:#FFFFFF;" d="M457.1,130.1
		c0-2.5,0-4.9,0-7.6c5,0,9.8,0,14.8,0c0,2.4,0,4.6,0,7.5c-5,0-9.9,0-14.9,0C456.9,130,457.1,130.1,457.1,130.1z"/>
	<path style="clip-path:url(#SVGID_00000129911648147049780820000010084069107219694991_);fill:#FFFFFF;" d="M46.6,129.9
		c-2.4,0-4.7,0-7.4,0c0-4.9,0-9.8,0-14.9c2.2,0,4.5,0,7.3,0c0,5,0,10,0,15C46.5,130,46.6,129.9,46.6,129.9z"/>
	<path style="clip-path:url(#SVGID_00000129911648147049780820000010084069107219694991_);fill:#FFFFFF;" d="M487.4,122.1
		c0-4.9,0-9.6,0-14.6c2.3,0,4.6,0,7.1,0c0,4.8,0,9.6,0,14.6C492.2,122.1,489.9,122.1,487.4,122.1z"/>
	<path style="clip-path:url(#SVGID_00000129911648147049780820000010084069107219694991_);fill:#FFFFFF;" d="M411.2,115
		c0,2.4,0,4.5,0,6.9c-4.9,0-9.7,0-14.8,0c0-2.2,0-4.5,0-6.9C401.3,115,406.2,115,411.2,115z"/>
	<path style="clip-path:url(#SVGID_00000129911648147049780820000010084069107219694991_);fill:#FFFFFF;" d="M304.9,122.2
		c-2.4,0-4.7,0-7.4,0c0-4.9,0-9.8,0-14.9c2.2,0,4.5,0,7.3,0c0,5,0,10,0,15C304.8,122.4,304.9,122.2,304.9,122.2z"/>
	<path style="clip-path:url(#SVGID_00000129911648147049780820000010084069107219694991_);fill:#FFFFFF;" d="M-97.9,107.1
		c0,5.1,0,10.2,0,15.3l0.1-0.1c-2.6,0-5.1,0-7.7,0l0.1,0.1c0-4.9,0-9.8,0-15.2c2.7,0,5.1,0,7.6,0L-97.9,107.1z"/>
	<path style="clip-path:url(#SVGID_00000129911648147049780820000010084069107219694991_);fill:#FFFFFF;" d="M251.7,152.8
		c0-2.4,0-4.8,0-7.6c2.6,0,5.1,0,7.6,0l-0.1-0.1c0,2.6,0,5.1,0,7.7l0.1-0.1c-2.6,0-5.1,0-7.7,0L251.7,152.8z"/>
	<path style="clip-path:url(#SVGID_00000129911648147049780820000010084069107219694991_);fill:#FFFFFF;" d="M426.5,145.2
		c0-2.4,0-4.8,0-7.6c2.6,0,5.1,0,7.6,0l-0.1-0.1c0,2.6,0,5.1,0,7.7l0.1-0.1c-2.6,0-5.1,0-7.7,0L426.5,145.2z"/>
	<path style="clip-path:url(#SVGID_00000129911648147049780820000010084069107219694991_);fill:#FFFFFF;" d="M145.2,137.6
		c2.4,0,4.8,0,7.6,0c0,2.6,0,5.1,0,7.6l0.1-0.1c-2.5,0-5,0-7.6,0c0-2.9,0-5.2,0-7.6L145.2,137.6z"/>
	<path style="clip-path:url(#SVGID_00000129911648147049780820000010084069107219694991_);fill:#FFFFFF;" d="M517.7,137.6
		c0-2.4,0-4.7,0-7.4c2.4,0,4.7,0,7.3,0c0,2.2,0,4.5,0,7.2c-2.5,0-4.9,0-7.4,0C517.6,137.4,517.7,137.6,517.7,137.6z"/>
	<path style="clip-path:url(#SVGID_00000129911648147049780820000010084069107219694991_);fill:#FFFFFF;" d="M449.2,129.9
		c2.6,0,5.3,0.1,7.9,0.1c0,0-0.1-0.1-0.1-0.1c0,2.5-0.1,5.1-0.2,7.6l0.1-0.1c-2.6,0-5.1,0-7.7,0l0.1,0.1c0-2.6,0-5.1,0-7.7
		L449.2,129.9z"/>
	<path style="clip-path:url(#SVGID_00000129911648147049780820000010084069107219694991_);fill:#FFFFFF;" d="M8.3,137.3
		c-2.4,0-4.6,0-7.1,0c0-2.4,0-4.6,0-7.2c2.3,0,4.6,0,7.1,0C8.3,132.5,8.3,134.7,8.3,137.3z"/>
	<path style="clip-path:url(#SVGID_00000129911648147049780820000010084069107219694991_);fill:#FFFFFF;" d="M-135.8,137.4
		c-2.4,0-4.7,0-7.4,0c0-2.4,0-4.7,0-7.5c2.4,0,4.9,0,7.4,0l-0.1-0.1c0,2.6,0,5.1,0,7.7L-135.8,137.4z"/>
	<path style="clip-path:url(#SVGID_00000129911648147049780820000010084069107219694991_);fill:#FFFFFF;" d="M-196.6,137.4
		c-2.4,0-4.7,0-7.4,0c0-2.4,0-4.7,0-7.3c2.2,0,4.5,0,7.2,0c0,2.5,0,4.9,0,7.4C-196.7,137.6-196.6,137.4-196.6,137.4z"/>
	<path style="clip-path:url(#SVGID_00000129911648147049780820000010084069107219694991_);fill:#FFFFFF;" d="M548.1,130
		c0-2.4,0-4.7,0-7.6c2.6,0,5.1,0,7.6,0l-0.1-0.1c0,2.6,0,5.1,0,7.7l0.1-0.1c-2.6,0-5.1,0-7.7,0L548.1,130z"/>
	<path style="clip-path:url(#SVGID_00000129911648147049780820000010084069107219694991_);fill:#FFFFFF;" d="M259.3,130
		c0-2.4,0-4.7,0-7.4c2.4,0,4.7,0,7.5,0c0,2.4,0,4.9,0,7.4l0.1-0.1c-2.6,0-5.1,0-7.7,0L259.3,130z"/>
	<path style="clip-path:url(#SVGID_00000129911648147049780820000010084069107219694991_);fill:#FFFFFF;" d="M16.3,129.7
		c0-2.4,0-4.6,0-7.1c2.3,0,4.6,0,7.2,0c0,2.3,0,4.6,0,7.1C21.1,129.7,19,129.7,16.3,129.7z"/>
	<path style="clip-path:url(#SVGID_00000129911648147049780820000010084069107219694991_);fill:#FFFFFF;" d="M-67.5,122.4
		c2.4,0,4.7,0,7.6,0c0,2.6,0,5.1,0,7.6l0.1-0.1c-2.5,0-5,0-7.6,0c0-2.9,0-5.2,0-7.6L-67.5,122.4z"/>
	<path style="clip-path:url(#SVGID_00000129911648147049780820000010084069107219694991_);fill:#FFFFFF;" d="M-135.8,130
		c0-2.4,0-4.7,0-7.4c2.4,0,4.7,0,7.3,0c0,2.2,0,4.5,0,7.2c-2.5,0-4.9,0-7.4,0C-135.9,129.9-135.8,130-135.8,130z"/>
	<path style="clip-path:url(#SVGID_00000129911648147049780820000010084069107219694991_);fill:#FFFFFF;" d="M555.7,122.4
		c0-2.4,0-4.7,0-7.4c2.4,0,4.7,0,7.3,0c0,2.2,0,4.5,0,7.2c-2.5,0-4.9,0-7.4,0L555.7,122.4z"/>
	<path style="clip-path:url(#SVGID_00000129911648147049780820000010084069107219694991_);fill:#FFFFFF;" d="M213.7,122.4
		c0-2.4,0-4.7,0-7.4c2.4,0,4.7,0,7.3,0c0,2.2,0,4.5,0,7.2c-2.5,0-4.9,0-7.4,0L213.7,122.4z"/>
	<path style="clip-path:url(#SVGID_00000129911648147049780820000010084069107219694991_);fill:#FFFFFF;" d="M77,122.2
		c-2.4,0-4.7,0-7.4,0c0-2.4,0-4.7,0-7.3c2.2,0,4.5,0,7.2,0c0,2.5,0,4.9,0,7.4C76.9,122.4,77,122.2,77,122.2z"/>
	<path style="clip-path:url(#SVGID_00000129911648147049780820000010084069107219694991_);fill:#FFFFFF;" d="M-21.5,114.9
		c2.4,0,4.5,0,7,0c0,2.4,0,4.7,0,7.2c-2.3,0-4.5,0-7,0C-21.5,119.9-21.5,117.6-21.5,114.9z"/>
	<path style="clip-path:url(#SVGID_00000129911648147049780820000010084069107219694991_);fill:#FFFFFF;" d="M-75,122.4
		c0-2.4,0-4.7,0-7.4c2.4,0,4.7,0,7.5,0c0,2.4,0,4.9,0,7.4l0.1-0.1c-2.6,0-5.1,0-7.7,0L-75,122.4z"/>
	<path style="clip-path:url(#SVGID_00000129911648147049780820000010084069107219694991_);fill:#FFFFFF;" d="M-158.4,114.9
		c2.4,0,4.6,0,7.1,0c0,2.3,0,4.6,0,7.1c-2.2,0-4.5,0-7.1,0C-158.4,119.8-158.4,117.6-158.4,114.9z"/>
	<path style="clip-path:url(#SVGID_00000129911648147049780820000010084069107219694991_);fill:#FFFFFF;" d="M-234.6,122.2
		c-2.4,0-4.7,0-7.4,0c0-2.4,0-4.7,0-7.3c2.2,0,4.5,0,7.2,0c0,2.5,0,4.9,0,7.4C-234.7,122.4-234.6,122.2-234.6,122.2z"/>
	<path style="clip-path:url(#SVGID_00000129911648147049780820000010084069107219694991_);fill:#FFFFFF;" d="M335.4,114.5
		c0-2.4,0-4.6,0-7.1c2.4,0,4.6,0,7.2,0c0,2.3,0,4.6,0,7.1C340.3,114.5,338.1,114.5,335.4,114.5z"/>
	<path style="clip-path:url(#SVGID_00000129911648147049780820000010084069107219694991_);fill:#FFFFFF;" d="M244.1,114.8
		c0-2.4,0-4.7,0-7.4c2.4,0,4.7,0,7.3,0c0,2.2,0,4.5,0,7.2c-2.5,0-4.9,0-7.4,0C244,114.6,244.1,114.8,244.1,114.8z"/>
	<path style="clip-path:url(#SVGID_00000129911648147049780820000010084069107219694991_);fill:#FFFFFF;" d="M24,107.3
		c2.5,0,4.8,0,7.1,0c0,2.4,0,4.6,0,7.1c-2.3,0-4.6,0-7.1,0C24,112.2,24,109.9,24,107.3z"/>
	<path style="clip-path:url(#SVGID_00000129911648147049780820000010084069107219694991_);fill:#FFFFFF;" d="M464.7,99.7
		c2.4,0,4.6,0,7.1,0c0,2.3,0,4.6,0,7.1c-2.2,0-4.5,0-7.1,0C464.7,104.6,464.7,102.4,464.7,99.7z"/>
	<path style="clip-path:url(#SVGID_00000129911648147049780820000010084069107219694991_);fill:#FFFFFF;" d="M449.4,106.8
		c0-2.4,0-4.6,0-7c2.4,0,4.7,0,7.2,0c0,2.3,0,4.5,0,7C454.4,106.8,452.1,106.8,449.4,106.8z"/>
	<path style="clip-path:url(#SVGID_00000129911648147049780820000010084069107219694991_);fill:#FFFFFF;" d="M358.3,99.7
		c2.4,0,4.6,0,7.1,0c0,2.3,0,4.6,0,7.1c-2.2,0-4.5,0-7.1,0C358.3,104.6,358.3,102.4,358.3,99.7z"/>
	<path style="clip-path:url(#SVGID_00000129911648147049780820000010084069107219694991_);fill:#FFFFFF;" d="M320.3,99.7
		c2.4,0,4.6,0,7.1,0c0,2.3,0,4.6,0,7.1c-2.2,0-4.5,0-7.1,0C320.3,104.6,320.3,102.4,320.3,99.7z"/>
	<path style="clip-path:url(#SVGID_00000129911648147049780820000010084069107219694991_);fill:#FFFFFF;" d="M274.7,99.6
		c2.5,0,4.6,0,7,0c0,2.4,0,4.6,0,7.2c-2.2,0-4.5,0-7,0C274.7,104.5,274.7,102.2,274.7,99.6z"/>
	<path style="clip-path:url(#SVGID_00000129911648147049780820000010084069107219694991_);fill:#FFFFFF;" d="M168.3,99.7
		c2.4,0,4.6,0,7.1,0c0,2.4,0,4.6,0,7.2c-2.3,0-4.6,0-7.1,0C168.3,104.5,168.3,102.3,168.3,99.7z"/>
	<path style="clip-path:url(#SVGID_00000129911648147049780820000010084069107219694991_);fill:#FFFFFF;" d="M8.2,106.9
		c-2.4,0-4.6,0-7,0c0-2.4,0-4.7,0-7.2c2.3,0,4.5,0,7,0C8.2,102,8.2,104.2,8.2,106.9z"/>
	<path style="clip-path:url(#SVGID_00000129911648147049780820000010084069107219694991_);fill:#FFFFFF;" d="M-44.7,99.6
		c2.3,0,4.7,0,7.3,0c0,2.4,0,4.7,0,7.2c-2.2,0-4.5,0-7.2,0c0-2.5,0-4.9,0-7.4L-44.7,99.6z"/>
	<path style="clip-path:url(#SVGID_00000129911648147049780820000010084069107219694991_);fill:#FFFFFF;" d="M-97.8,107.2
		c0-2.4,0-4.7,0-7.4c2.4,0,4.7,0,7.3,0c0,2.2,0,4.5,0,7.2c-2.5,0-4.9,0-7.4,0C-97.9,107.1-97.8,107.2-97.8,107.2z"/>
	<path style="clip-path:url(#SVGID_00000129911648147049780820000010084069107219694991_);fill:#FFFFFF;" d="M-158.3,99.6
		c2.4,0,4.5,0,7,0c0,2.4,0,4.7,0,7.2c-2.3,0-4.5,0-7,0C-158.3,104.7-158.3,102.4-158.3,99.6z"/>
	<path style="clip-path:url(#SVGID_00000129911648147049780820000010084069107219694991_);fill:#FFFFFF;" d="M-219.1,99.7
		c2.4,0,4.6,0,7,0c0,2.4,0,4.7,0,7.2c-2.3,0-4.5,0-7,0C-219.1,104.6-219.1,102.4-219.1,99.7z"/>
	<path style="clip-path:url(#SVGID_00000129911648147049780820000010084069107219694991_);fill:#FFFFFF;" d="M532.6,99.4
		c-2.5,0-4.6,0-7,0c0-2.4,0-4.6,0-7.2c2.2,0,4.5,0,7,0C532.6,94.5,532.6,96.8,532.6,99.4z"/>
	<path style="clip-path:url(#SVGID_00000129911648147049780820000010084069107219694991_);fill:#FFFFFF;" d="M-22.1,99.3
		c-2.4,0-4.6,0-7.1,0c0-2.4,0-4.6,0-7.2c2.3,0,4.6,0,7.1,0C-22.1,94.5-22.1,96.7-22.1,99.3z"/>
	<path style="clip-path:url(#SVGID_00000129911648147049780820000010084069107219694991_);fill:#FFFFFF;" d="M-44.6,99.4
		c-2.4,0-4.7,0-7.4,0c0-2.4,0-4.7,0-7.3c2.2,0,4.5,0,7.2,0c0,2.5,0,4.9,0,7.4C-44.7,99.6-44.6,99.4-44.6,99.4z"/>
	<path style="clip-path:url(#SVGID_00000129911648147049780820000010084069107219694991_);fill:#FFFFFF;" d="M-257.2,92.1
		c2.4,0,4.6,0,7.1,0c0,2.3,0,4.6,0,7.1c-2.2,0-4.5,0-7.1,0C-257.2,97-257.2,94.8-257.2,92.1z"/>
	<path style="clip-path:url(#SVGID_00000129911648147049780820000010084069107219694991_);fill:#FFFFFF;" d="M53.8,91.7
		c-2.4,0-4.6,0-7,0c0-2.4,0-4.7,0-7.2c2.3,0,4.5,0,7,0C53.8,86.8,53.8,89.1,53.8,91.7z"/>
	<path style="clip-path:url(#SVGID_00000129911648147049780820000010084069107219694991_);fill:#FFFFFF;" d="M31.4,91.6
		c0-2.4,0-4.5,0-6.9c2.4,0,4.7,0,7.2,0c0,2.2,0,4.5,0,6.9C36.2,91.6,33.8,91.6,31.4,91.6z"/>
	<path style="clip-path:url(#SVGID_00000129911648147049780820000010084069107219694991_);fill:#FFFFFF;" d="M570.5,84.1
		c-2.5,0-4.7,0-7.1,0c0-2.4,0-4.6,0-7.1c2.2,0,4.5,0,7.1,0C570.5,79.2,570.5,81.5,570.5,84.1z"/>
	<path style="clip-path:url(#SVGID_00000129911648147049780820000010084069107219694991_);fill:#FFFFFF;" d="M274.7,84
		c0-2.5,0-4.7,0-7.1c2.4,0,4.6,0,7.1,0c0,2.2,0,4.5,0,7.1C279.6,84,277.3,84,274.7,84z"/>
</g>
</svg>
